<svg width="48" height="51" viewBox="0 0 48 51" fill="none" xmlns="http://www.w3.org/2000/svg">
<path d="M24 46.2169C34.752 46.2169 43.5 37.1032 43.5 25.9017C43.5 14.7002 34.752 5.58652 24 5.58652C13.248 5.58652 4.5 14.7002 4.5 25.9017C4.5 37.1032 13.248 46.2168 24 46.2169ZM24 8.71193C33.098 8.71193 40.5 16.4234 40.5 25.9017C40.5 35.38 33.098 43.0914 24 43.0914C14.902 43.0914 7.5 35.38 7.5 25.9017C7.5 16.4234 14.902 8.71193 24 8.71193ZM18.9399 27.0081C18.3539 26.3976 18.3539 25.4078 18.9399 24.7973L24.9399 18.5465C25.2319 18.2423 25.616 18.0882 26 18.0882C26.384 18.0882 26.7681 18.2402 27.0601 18.5465C27.6461 19.157 27.6461 20.1468 27.0601 20.7573L22.12 25.9037L27.0601 31.0502C27.6461 31.6607 27.6461 32.6505 27.0601 33.2609C26.4741 33.8714 25.524 33.8714 24.938 33.2609L18.9399 27.0081Z" fill="white"/>
</svg>
