<svg width="72" height="72" viewBox="0 0 72 72" fill="none" xmlns="http://www.w3.org/2000/svg">
<g clip-path="url(#clip0_5_153)">
<path d="M31.4013 53.7275H40.5987V70.875H31.4013V53.7275Z" fill="#384656"/>
<path d="M31.4013 53.7275H40.5987V56.2587H31.4013V53.7275Z" fill="#2F3B48"/>
<path d="M68.7649 53.7275H3.23508C2.06972 53.7275 1.125 52.7827 1.125 51.6174V13.752C1.125 12.5866 2.06972 11.6419 3.23508 11.6419H68.7651C69.9304 11.6419 70.8751 12.5866 70.8751 13.752V51.6175C70.875 52.7827 69.9303 53.7275 68.7649 53.7275Z" fill="#A2DAFD"/>
<path d="M68.7649 51.1962H3.23508C2.06972 51.1962 1.125 50.2515 1.125 49.0862V51.6174C1.125 52.7828 2.06972 53.7275 3.23508 53.7275H68.7651C69.9304 53.7275 70.8751 52.7828 70.8751 51.6174V49.0862C70.875 50.2515 69.9303 51.1962 68.7649 51.1962Z" fill="#83C8EA"/>
<path d="M40.0026 6.63427H31.9972C31.2203 6.63427 30.5906 6.00441 30.5906 5.22759V2.53167C30.5906 1.75486 31.2204 1.125 31.9972 1.125H40.0026C40.7796 1.125 41.4093 1.75486 41.4093 2.53167V5.22759C41.4093 6.00441 40.7796 6.63427 40.0026 6.63427Z" fill="#FFE07D"/>
<path d="M22.3166 6.63427H14.3113C13.5343 6.63427 12.9046 6.00441 12.9046 5.22759V2.53167C12.9046 1.75486 13.5345 1.125 14.3113 1.125H22.3166C23.0934 1.125 23.7233 1.75486 23.7233 2.53167V5.22759C23.7233 6.00441 23.0936 6.63427 22.3166 6.63427Z" fill="#FFE07D"/>
<path d="M49.6834 6.63427H57.6888C58.4656 6.63427 59.0954 6.00441 59.0954 5.22759V2.53167C59.0954 1.75486 58.4656 1.125 57.6888 1.125H49.6834C48.9065 1.125 48.2767 1.75486 48.2767 2.53167V5.22759C48.2767 6.00441 48.9065 6.63427 49.6834 6.63427Z" fill="#FFE07D"/>
<path d="M22.3166 4.10302H14.3113C13.5345 4.10302 12.9046 3.47316 12.9046 2.69635V5.2276C12.9046 6.00455 13.5345 6.63427 14.3113 6.63427H22.3166C23.0936 6.63427 23.7233 6.00441 23.7233 5.2276V2.69635C23.7233 3.47316 23.0936 4.10302 22.3166 4.10302Z" fill="#FFD064"/>
<path d="M57.6888 4.10302H49.6834C48.9065 4.10302 48.2767 3.47316 48.2767 2.69635V5.2276C48.2767 6.00455 48.9065 6.63427 49.6834 6.63427H57.6888C58.4656 6.63427 59.0954 6.00441 59.0954 5.2276V2.69635C59.0954 3.47316 58.4656 4.10302 57.6888 4.10302Z" fill="#FFD064"/>
<path d="M40.0026 4.10302H31.9972C31.2203 4.10302 30.5906 3.47316 30.5906 2.69635V5.2276C30.5906 6.00455 31.2203 6.63427 31.9972 6.63427H40.0026C40.7796 6.63427 41.4093 6.00441 41.4093 5.2276V2.69635C41.4093 3.47316 40.7796 4.10302 40.0026 4.10302Z" fill="#FFD064"/>
<path d="M29.0836 44.805L18.4129 29.5391L7.74194 44.805H29.0836Z" fill="#FFE07D"/>
<path d="M9.51129 42.2737L7.74194 44.805H29.0836L27.3143 42.2737H9.51129Z" fill="#FFD064"/>
<path d="M29.6176 32.9521L25.208 39.2605C27.0007 41.8252 29.0836 44.8049 29.0836 44.8049H37.9028L29.6176 32.9521Z" fill="#E7A561"/>
<path d="M27.3143 42.2737C28.3171 43.7084 29.0836 44.805 29.0836 44.805H37.9028L36.1334 42.2737H27.3143Z" fill="#E49542"/>
<path d="M68.829 10.5376H64.7467C64.163 10.5376 63.6899 11.0107 63.6899 11.5944C63.6899 12.1781 64.163 12.6512 64.7467 12.6512H68.829C69.4122 12.6512 69.8866 13.1255 69.8866 13.7085V51.6482C69.8866 52.2312 69.4122 52.7055 68.829 52.7055H3.17095C2.58778 52.7055 2.11345 52.2312 2.11345 51.6482V13.7084C2.11345 13.1254 2.58778 12.651 3.17095 12.651H60.5197C61.1034 12.651 61.5765 12.1778 61.5765 11.5942C61.5765 11.0107 61.1034 10.5375 60.5197 10.5375H54.7774V7.63355H57.7311C59.0909 7.63355 60.1972 6.52725 60.1972 5.16741V2.46614C60.1972 1.1063 59.0909 0 57.7311 0H49.7101C48.3502 0 47.244 1.1063 47.244 2.46614V5.16727C47.244 6.52711 48.3502 7.63341 49.7101 7.63341H52.6639V10.5375H37.0568V7.63355H40.0106C41.3705 7.63355 42.4768 6.52725 42.4768 5.16741V2.46614C42.4768 1.1063 41.3705 0 40.0106 0H31.9894C30.6295 0 29.5232 1.1063 29.5232 2.46614V5.16727C29.5232 6.52711 30.6295 7.63341 31.9894 7.63341H34.9432V10.5375H19.3361V7.63355H22.2899C23.6497 7.63355 24.756 6.52725 24.756 5.16741V2.46614C24.756 1.1063 23.6497 0 22.2899 0H14.2689C12.9091 0 11.8027 1.1063 11.8027 2.46614V5.16727C11.8027 6.52711 12.909 7.63341 14.2688 7.63341H17.2225V10.5375H3.17095C1.42256 10.5376 0 11.9599 0 13.7084V51.648C0 53.3964 1.42256 54.8189 3.17095 54.8189H10.0207V57.7778H2.32481C1.74108 57.7778 1.26802 58.251 1.26802 58.8345C1.26802 59.4181 1.74108 59.8913 2.32481 59.8913H30.3355V70.9432C30.3355 71.5268 30.8085 72 31.3923 72H40.6077C41.1915 72 41.6645 71.5268 41.6645 70.9432V67.111C41.6645 66.5274 41.1915 66.0542 40.6077 66.0542C40.024 66.0542 39.5509 66.5274 39.5509 67.111V69.8866H32.4489V54.8189H39.5509V62.884C39.5509 63.4676 40.024 63.9408 40.6077 63.9408C41.1915 63.9408 41.6645 63.4676 41.6645 62.884V59.8913H69.6752C70.2589 59.8913 70.732 59.4183 70.732 58.8345C70.732 58.251 70.2589 57.7778 69.6752 57.7778H61.9793V54.8189H68.829C70.5774 54.8189 72 53.3964 72 51.648V13.7084C72 11.9599 70.5774 10.5376 68.829 10.5376ZM49.3574 5.16741V2.46614C49.3574 2.27166 49.5156 2.11345 49.7101 2.11345H57.7311C57.9255 2.11345 58.0838 2.27166 58.0838 2.46614V5.16727C58.0838 5.36175 57.9255 5.51995 57.7311 5.51995H49.7101C49.5157 5.51995 49.3574 5.36175 49.3574 5.16741ZM31.6368 5.16741V2.46614C31.6368 2.27166 31.795 2.11345 31.9895 2.11345H40.0106C40.2051 2.11345 40.3633 2.27166 40.3633 2.46614V5.16727C40.3633 5.36175 40.2051 5.51995 40.0106 5.51995H31.9894C31.795 5.51995 31.6368 5.36175 31.6368 5.16741ZM13.9163 5.16741V2.46614C13.9163 2.27166 14.0745 2.11345 14.2689 2.11345H22.2899C22.4844 2.11345 22.6426 2.27166 22.6426 2.46614V5.16727C22.6426 5.36175 22.4844 5.51995 22.2899 5.51995H14.2689C14.0745 5.51995 13.9163 5.36175 13.9163 5.16741ZM12.1343 54.8189H20.1682V57.7778H12.1343V54.8189ZM30.3355 57.7779H22.2816V54.819H30.3355V57.7779ZM41.6645 54.8189H49.7184V57.7778H41.6645V54.8189ZM59.8657 57.7779H51.8318V54.819H59.8657V57.7779Z" fill="black"/>
<path d="M64.3126 41.0051H44.4019C43.8182 41.0051 43.3451 41.4783 43.3451 42.0619C43.3451 42.6455 43.8182 43.1187 44.4019 43.1187H64.3126C64.8963 43.1187 65.3694 42.6455 65.3694 42.0619C65.3692 41.4783 64.8962 41.0051 64.3126 41.0051Z" fill="black"/>
<path d="M64.3126 34.6499H44.4019C43.8182 34.6499 43.3451 35.1231 43.3451 35.7067C43.3451 36.2903 43.8182 36.7635 44.4019 36.7635H64.3126C64.8963 36.7635 65.3694 36.2903 65.3694 35.7067C65.3692 35.1229 64.8962 34.6499 64.3126 34.6499Z" fill="black"/>
<path d="M17.9152 44.8223C17.9152 45.4059 18.3883 45.8791 18.972 45.8791H37.9066C38.735 45.9056 39.2691 44.8805 38.7727 44.2169L30.4713 32.3408C30.0798 31.746 29.1305 31.7461 28.739 32.3408L25.1871 37.4224L19.2447 28.9211C18.8532 28.3262 17.9038 28.3264 17.5123 28.9211L6.82059 44.2169C6.32419 44.8806 6.85856 45.9056 7.68684 45.8791H14.7452C15.329 45.8791 15.802 45.4059 15.802 44.8223C15.802 44.2387 15.329 43.7655 14.7452 43.7655H9.71466L18.3784 31.3709L27.0422 43.7655H18.9721C18.3883 43.7655 17.9152 44.2387 17.9152 44.8223ZM26.4763 39.2669L29.6051 34.7906L35.8785 43.7655H29.6208L26.4763 39.2669Z" fill="black"/>
<path d="M18.2793 20.913H53.7206C54.3043 20.913 54.7774 20.4398 54.7774 19.8562C54.7774 19.2726 54.3043 18.7994 53.7206 18.7994H18.2793C17.6955 18.7994 17.2225 19.2726 17.2225 19.8562C17.2226 20.44 17.6957 20.913 18.2793 20.913Z" fill="black"/>
<path d="M47.1689 25.2893C47.1689 24.7057 46.6958 24.2325 46.1121 24.2325H27.1561C26.5724 24.2325 26.0993 24.7056 26.0993 25.2893C26.0993 25.8729 26.5724 26.3461 27.1561 26.3461H46.1121C46.6958 26.346 47.1689 25.8729 47.1689 25.2893Z" fill="black"/>
</g>
<defs>
<clipPath id="clip0_5_153">
<rect width="72" height="72" fill="white"/>
</clipPath>
</defs>
</svg>
