<svg width="20" height="20" viewBox="0 0 20 20" fill="none" xmlns="http://www.w3.org/2000/svg">
<path d="M18.1099 3.0965C16.8629 1.5835 15.1299 0.750488 13.2279 0.750488C12.0839 0.750488 10.9779 1.02847 9.99992 1.55847C9.02292 1.02847 7.91693 0.750488 6.77193 0.750488C4.86993 0.750488 3.13594 1.5835 1.88994 3.0965C0.533937 4.7425 -0.0280681 6.9905 0.384932 9.1095C1.35993 14.1055 6.44793 17.5955 8.59093 18.8635C9.02593 19.1205 9.51292 19.2495 9.99992 19.2495C10.4869 19.2495 10.9749 19.1215 11.4099 18.8635C13.5519 17.5945 18.6409 14.1055 19.6159 9.1095C20.0279 6.9905 19.4659 4.7425 18.1099 3.0965ZM18.1429 8.82251C17.2849 13.2215 12.6139 16.4075 10.6449 17.5725C10.2479 17.8085 9.75193 17.8075 9.35493 17.5725C7.38593 16.4075 2.71492 13.2215 1.85692 8.82251C1.52792 7.13851 1.97392 5.35448 3.04692 4.05048C4.00392 2.88948 5.32593 2.25049 6.77193 2.25049C7.78993 2.25049 8.76593 2.53049 9.59593 3.06049C9.84193 3.21749 10.1579 3.21749 10.4039 3.06049C11.2339 2.53049 12.2099 2.25049 13.2279 2.25049C14.6729 2.25049 15.9959 2.88948 16.9529 4.05048C18.0259 5.35448 18.4709 7.13751 18.1429 8.82251Z" fill="#41416E" fill-opacity="0.2"/>
</svg>
