<svg width="72" height="72" viewBox="0 0 72 72" fill="none" xmlns="http://www.w3.org/2000/svg">
<path d="M45.5248 64.9684H26.476L22.5006 70.5933H49.5003L45.5248 64.9684Z" fill="#C1B0B5"/>
<path d="M36.0004 10.9297C35.9864 10.9395 17.5267 25.1382 10.6882 30.3976V59.3435H61.3126V30.3976L36.0004 10.9297Z" fill="#F3EFF0"/>
<path d="M36.0004 10.9297C35.9935 10.9344 8.1798 32.3268 8.17951 32.3269C7.36812 32.9457 6.3261 33.2761 5.20392 33.1664C3.08332 32.9611 1.92459 31.7504 1.51819 29.9532C1.12022 28.194 1.82334 26.5628 3.07207 25.6107L33.4467 2.26727C34.9531 1.1195 37.0467 1.11866 38.5542 2.26727C58.2527 17.4059 35.6746 0.0525939 68.9288 25.6107C69.9413 26.3814 70.5938 27.5992 70.5938 28.9688C70.5938 31.299 68.7052 33.1875 66.3751 33.1875C65.4146 33.1875 64.5301 32.8669 63.8214 32.3269C62.6227 31.405 37.2517 11.8921 36.0004 10.9297Z" fill="#FF7B79"/>
<path d="M61.3126 53.741C64.7073 54.011 67.3932 56.7054 67.7152 60.0874C69.4252 61.052 70.5938 62.8647 70.5938 64.9684C70.5938 68.0748 68.0752 70.5933 64.9688 70.5933C61.8203 70.5933 56.1517 70.5933 49.5003 70.5933C47.1701 70.5933 45.2816 68.7048 45.2816 66.3746C45.2816 64.5409 46.4632 62.9834 48.1193 62.4062C47.9545 59.1103 50.5954 56.531 53.719 56.531C54.169 56.531 54.6007 56.5971 55.0197 56.6969C56.5092 54.5959 58.9307 53.5426 61.3126 53.741Z" fill="#D8EC84"/>
<path d="M61.3126 1.40665V19.7524L61.3098 19.7552L52.8752 13.2724V1.40665H61.3126Z" fill="#C1B0B5"/>
<path d="M41.6254 30.3751C44.9553 30.3751 47.2503 33.1974 47.2503 36.54C47.2503 41.1637 42.673 44.2251 36.0004 50.0623C29.3278 44.2251 24.7506 41.1637 24.7506 36.54C24.7506 33.1974 27.0455 30.3751 30.3755 30.3751C34.6504 30.3751 36.0004 35.2969 36.0004 35.2969C36.0004 35.2969 37.3504 30.3751 41.6254 30.3751Z" fill="#FF7B79"/>
<path d="M26.7193 66.3746C26.7193 68.7048 24.8307 70.5933 22.5006 70.5933C15.8491 70.5933 10.1806 70.5933 7.03202 70.5933C3.92565 70.5933 1.40708 68.0748 1.40708 64.9684C1.40708 62.8647 2.57566 61.052 4.28564 60.0874C4.60767 56.7054 7.29357 54.011 10.6882 53.741C13.0728 53.5423 15.4932 54.598 16.9811 56.6969C17.4002 56.5971 17.8319 56.531 18.2819 56.531C21.3898 56.531 23.9068 59.0508 23.9068 62.1559C23.9068 62.2417 23.8857 62.3219 23.8815 62.4062C25.539 62.9839 26.7193 64.5426 26.7193 66.3746Z" fill="#D8EC84"/>
<path d="M30.3755 28.9688C26.2893 28.9688 23.3443 32.3882 23.3443 36.54C23.3443 41.1032 26.8564 44.0955 32.1727 48.625C33.0991 49.4143 34.0571 50.2306 35.0746 51.1206C35.3396 51.3525 35.67 51.4685 36.0004 51.4685C36.3309 51.4685 36.6612 51.3527 36.9263 51.1206C37.9437 50.2306 38.9018 49.4143 39.8282 48.625C45.1445 44.0955 48.6565 41.1032 48.6565 36.54C48.6565 32.3878 45.7109 28.9688 41.6254 28.9688C38.832 28.9688 37.0603 30.5638 36.0004 32.104C34.9407 30.5638 33.1688 28.9688 30.3755 28.9688ZM37.3566 35.669C37.3673 35.6301 38.4595 31.7813 41.6254 31.7813C44.0304 31.7813 45.8441 33.8271 45.8441 36.54C45.8441 39.8045 42.8931 42.3189 38.0042 46.4843C37.3555 47.0371 36.6914 47.6028 36.0004 48.1995C35.3094 47.6028 34.6454 47.0369 33.9967 46.4843C29.1078 42.3189 26.1568 39.8045 26.1568 36.54C26.1568 33.8271 27.9704 31.7813 30.3755 31.7813C33.501 31.7813 34.5957 35.498 34.6454 35.673C34.8143 36.2816 35.3685 36.7031 36.0004 36.7031C36.6338 36.7031 37.189 36.2797 37.3566 35.669Z" fill="black"/>
<path d="M17.7194 15.7503C18.4961 15.7503 19.1257 15.1207 19.1257 14.344C19.1257 13.5674 18.4961 12.9378 17.7194 12.9378C16.9428 12.9378 16.3132 13.5674 16.3132 14.344C16.3132 15.1207 16.9428 15.7503 17.7194 15.7503Z" fill="black"/>
<path d="M62.9692 33.4455C63.9552 34.1969 65.133 34.5939 66.3751 34.5939C69.4767 34.5939 72 32.0705 72 28.9689C72 27.1972 71.191 25.5654 69.7858 24.4958L62.7189 19.0648V1.40675C62.7189 0.63023 62.0893 0.000518799 61.3126 0.000518799H52.8752C52.0986 0.000518799 51.469 0.63023 51.469 1.40675V10.4192L39.4063 1.14885C38.4203 0.397498 37.2426 0.000518799 36.0004 0.000518799C34.7583 0.000518799 33.5806 0.397498 32.5898 1.15236L21.8828 9.38094C21.267 9.85414 21.1515 10.7371 21.6248 11.3528C22.098 11.9684 22.981 12.0841 23.5968 11.6108L34.2989 3.38589C34.7909 3.01112 35.3793 2.81299 36.0004 2.81299C36.6216 2.81299 37.2099 3.01112 37.6973 3.38237L68.0772 26.7298C68.7828 27.2668 69.1875 28.083 69.1875 28.9689C69.1875 30.5197 67.9259 31.7814 66.3751 31.7814C65.7539 31.7814 65.1656 31.5833 64.6786 31.2123C63.1033 30.0008 38.1285 10.7924 36.8578 9.81504C36.3703 9.44 35.6956 9.42538 35.1921 9.77905C35.1284 9.82362 7.32973 31.2065 7.32678 31.2089C6.76302 31.6389 6.05821 31.8368 5.33935 31.7669C3.94689 31.6321 3.19146 30.9772 2.88969 29.6429C2.63685 28.5251 3.03326 27.4086 3.92889 26.7258L13.5657 19.3199C14.1815 18.8467 14.2971 17.9637 13.8237 17.3481C13.3504 16.7324 12.4674 16.6167 11.8518 17.0901L2.21962 24.4925C0.442137 25.8475 -0.352103 28.0588 0.146688 30.2635C0.717197 32.786 2.46514 34.3142 5.06724 34.566C6.49386 34.7057 7.90178 34.3074 9.0324 33.4451L9.03029 33.4424C9.09005 33.3984 9.17161 33.337 9.28214 33.2526V52.546C6.06454 53.3177 3.57635 55.9357 2.98222 59.2506C1.12711 60.5624 0.0010018 62.6934 0.0010018 64.9684C0.0010018 68.8454 3.15518 71.9995 7.03217 71.9995H64.969C68.846 71.9995 72.0002 68.8454 72.0002 64.9684C72.0002 62.6934 70.874 60.5624 69.0189 59.2506C68.4247 55.9343 65.9348 53.3155 62.719 52.5454V33.253L62.9692 33.4455ZM54.2815 2.81299H59.9064V16.9034L54.2815 12.5805V2.81299ZM22.5006 69.1872H7.03203C4.70584 69.1872 2.81333 67.2947 2.81333 64.9685C2.81333 63.4659 3.6423 62.0651 4.97668 61.3123C5.37731 61.0863 5.64197 60.6786 5.6857 60.2206C5.96062 57.3332 8.35108 55.1249 11.2509 55.1249C13.0617 55.1249 14.7752 56.0167 15.8341 57.5103C16.1659 57.9783 16.7488 58.1979 17.3071 58.0649C17.6675 57.9791 17.9864 57.9373 18.282 57.9373C20.553 57.9373 22.4729 59.7612 22.5005 62.1064C22.3806 62.9518 22.8326 63.5299 23.419 63.7343C24.5074 64.1134 25.3132 65.1425 25.3132 66.3746C25.3131 67.9255 24.0514 69.1872 22.5006 69.1872ZM46.7182 61.503C45.849 61.9947 45.1315 62.7039 44.6333 63.5624H27.3672C26.8686 62.7036 26.1515 61.9946 25.2827 61.503C25.2591 61.2497 25.2217 60.9984 25.171 60.7485H46.83C46.7794 60.9983 46.7419 61.2497 46.7182 61.503ZM27.3707 69.1872C27.8506 68.3594 28.1255 67.3985 28.1255 66.3747H43.8753C43.8753 67.3985 44.1504 68.3594 44.6302 69.1872H27.3707ZM66.3153 60.2206C66.3589 60.6786 66.6237 61.0862 67.0243 61.3123C68.3587 62.0651 69.1877 63.4659 69.1877 64.9685C69.1877 67.2947 67.2952 69.1872 64.969 69.1872H49.5004C47.9496 69.1872 46.688 67.9255 46.688 66.3747C46.688 65.1412 47.4951 64.113 48.5821 63.7344C49.1736 63.5284 49.6198 62.947 49.5007 62.1065C49.5283 59.7673 51.4427 57.9375 53.7191 57.9375C54.0147 57.9375 54.3336 57.9792 54.6941 58.065C55.2519 58.1978 55.8352 57.9785 56.1671 57.5104C57.2261 56.0168 58.9395 55.125 60.7503 55.125C63.649 55.1249 66.0401 57.3307 66.3153 60.2206ZM59.9064 52.3567C57.8048 52.5709 55.8486 53.5765 54.4409 55.1671C54.1953 55.1389 53.9557 55.1249 53.719 55.1249C51.5004 55.1249 49.4162 56.1852 48.097 57.9373H23.904C22.5854 56.1856 20.5008 55.1249 18.2819 55.1249C18.0451 55.1249 17.8055 55.1389 17.5599 55.1671C16.1523 53.5763 14.1962 52.5709 12.0945 52.3567V31.0904C14.1358 29.5203 33.6515 14.5099 36.0003 12.7037L59.9064 31.0901V52.3567Z" fill="black"/>
</svg>
