<svg width="72" height="72" viewBox="0 0 72 72" fill="none" xmlns="http://www.w3.org/2000/svg">
<g clip-path="url(#clip0_7_400)">
<g clip-path="url(#clip1_7_400)">
<path d="M51.09 47.6398C50.5941 47.1438 49.9347 46.8706 49.2331 46.8706C48.5315 46.8706 47.8721 47.1437 47.3761 47.6398C46.8803 48.1356 46.6072 48.7952 46.6072 49.4966C46.6072 50.198 46.8803 50.8576 47.3763 51.3534L50.7022 54.6793C51.2141 55.1912 51.8865 55.4472 52.559 55.4472C53.2315 55.4472 53.904 55.1912 54.416 54.6792C55.6775 53.4178 56.9495 52.1274 58.1797 50.8798C58.9198 50.1291 59.6597 49.3783 60.4018 48.6297C61.4187 47.6032 61.413 45.9401 60.3894 44.9222C59.8942 44.4296 59.2376 44.1588 58.5392 44.1588C58.5359 44.1588 58.5323 44.1588 58.5288 44.1588C57.8277 44.1614 57.1701 44.4371 56.6774 44.9349L52.5518 49.1014L51.09 47.6398ZM52.5586 51.8214C52.8578 51.8207 53.1446 51.7008 53.3552 51.488L58.2763 46.518C58.3698 46.4234 58.4802 46.409 58.5375 46.4088C58.5921 46.412 58.7071 46.4225 58.8029 46.5176C58.9485 46.6623 58.9487 46.8995 58.8035 47.0461C58.0601 47.7962 57.3188 48.5482 56.5774 49.3002C55.3499 50.5451 54.0807 51.8325 52.8249 53.0883C52.6783 53.2348 52.4398 53.235 52.2931 53.0883L48.9672 49.7624C48.8715 49.6666 48.8572 49.5548 48.8572 49.4966C48.8572 49.4384 48.8715 49.3264 48.9673 49.2305C49.0631 49.1348 49.175 49.1206 49.2332 49.1206C49.2915 49.1206 49.4032 49.1349 49.4992 49.2307L51.7604 51.4919C51.9713 51.7029 52.2575 51.8214 52.5559 51.8214H52.5586ZM65.1471 8.99449H61.0343V8.91251C61.0343 5.75407 58.4648 3.18457 55.3065 3.18457H6.85294C3.6945 3.18443 1.125 5.75407 1.125 8.91251V38.5747C1.125 41.733 3.6945 44.3025 6.8528 44.3025H10.9655V44.3846C10.9655 47.5429 13.535 50.1124 16.6933 50.1124H39.8748V50.3742C39.8748 54.2804 41.2741 58.0908 43.8151 61.1034C46.3489 64.1075 49.8565 66.1301 53.6916 66.7987C53.7556 66.8098 53.8203 66.8154 53.8848 66.8154C53.9494 66.8154 54.0141 66.8098 54.078 66.7987C57.9132 66.1301 61.4208 64.1075 63.9546 61.1034C66.4955 58.0908 67.8949 54.2804 67.8949 50.3742V49.4052C69.7043 48.4077 70.875 46.4789 70.875 44.3846V14.7224C70.875 11.564 68.3055 8.99449 65.1471 8.99449ZM68.625 14.7224V18.8962H13.2155V14.7224C13.2155 12.8047 14.7756 11.2445 16.6933 11.2445H65.1471C67.0649 11.2445 68.625 12.8047 68.625 14.7224ZM6.85294 5.43443H55.3067C57.2244 5.43443 58.7845 6.99466 58.7845 8.91237V8.99435H16.6935C14.1036 8.99435 11.9109 10.7226 11.205 13.086H3.375V8.91251C3.375 6.99466 4.93509 5.43443 6.85294 5.43443ZM6.85294 42.0525C4.93509 42.0525 3.375 40.4922 3.375 38.5747V15.3361H10.9655V42.0525H6.85294ZM65.6449 50.3744C65.6449 57.221 60.603 63.2787 53.8848 64.5471C47.1666 63.2786 42.1248 57.2209 42.1248 50.3744V40.1805L53.8848 35.1406L65.6449 40.1805V50.3744ZM67.8949 46.5024V39.4387C67.8949 38.9887 67.6267 38.5818 67.213 38.4045L54.3279 32.8825C54.0449 32.7614 53.7247 32.7614 53.4416 32.8825L40.5565 38.4045C40.143 38.5818 39.8746 38.9885 39.8746 39.4387V47.8625H16.6935C14.7758 47.8625 13.2157 46.3023 13.2157 44.3847V21.146H68.625V44.3846C68.625 45.1641 68.3557 45.905 67.8949 46.5024ZM35.3222 26.9664H20.1968C18.4753 26.9664 17.0748 28.3668 17.0748 30.0884V39.8532C17.0748 41.5746 18.4753 42.9751 20.1968 42.9751H35.3222C37.0437 42.9751 38.4442 41.5746 38.4442 39.8532V30.0884C38.4442 28.3668 37.0437 26.9664 35.3222 26.9664ZM24.174 36.3064H19.325V33.6352H24.1741L24.174 36.3064ZM26.4243 29.2164H29.0952V36.3064H26.424L26.4243 29.2164ZM31.3452 33.6352H36.1942V36.3064H31.3452V33.6352ZM36.1942 30.0884V31.3852H31.3452V29.2164H35.3222C35.803 29.2164 36.1942 29.6076 36.1942 30.0884ZM20.1968 29.2164H24.1741L24.174 31.3852H19.3247V30.0884C19.325 29.6076 19.716 29.2164 20.1968 29.2164ZM35.3222 40.7253H20.1968C19.716 40.7253 19.3248 40.3342 19.3248 39.8534V38.5564H36.1941V39.8534C36.1942 40.334 35.803 40.7253 35.3222 40.7253ZM65.0673 31.2604C65.0673 31.8816 64.5636 32.3854 63.9423 32.3854H46.7277C46.1064 32.3854 45.6027 31.8816 45.6027 31.2604C45.6027 30.6391 46.1064 30.1354 46.7277 30.1354H63.9423C64.5637 30.1354 65.0673 30.6391 65.0673 31.2604Z" fill="white"/>
</g>
</g>
<defs>
<clipPath id="clip0_7_400">
<rect width="72" height="72" fill="white"/>
</clipPath>
<clipPath id="clip1_7_400">
<rect width="72" height="72" fill="white"/>
</clipPath>
</defs>
</svg>
