<svg width="72" height="72" viewBox="0 0 72 72" fill="none" xmlns="http://www.w3.org/2000/svg">
<g clip-path="url(#clip0_6_213)">
<path d="M19.2 33.6H34.8C35.1183 33.6 35.4235 33.4735 35.6485 33.2485C35.8736 33.0234 36 32.7182 36 32.4C36 32.0817 35.8736 31.7765 35.6485 31.5514C35.4235 31.3264 35.1183 31.2 34.8 31.2H19.2C18.8817 31.2 18.5765 31.3264 18.3515 31.5514C18.1264 31.7765 18 32.0817 18 32.4C18 32.7182 18.1264 33.0234 18.3515 33.2485C18.5765 33.4735 18.8817 33.6 19.2 33.6Z" fill="white"/>
<path d="M19.2 42C19.2 42.3183 19.3264 42.6235 19.5515 42.8486C19.7765 43.0736 20.0817 43.2 20.4 43.2H48C48.3183 43.2 48.6235 43.0736 48.8485 42.8486C49.0736 42.6235 49.2 42.3183 49.2 42C49.2 41.6818 49.0736 41.3766 48.8485 41.1515C48.6235 40.9265 48.3183 40.8 48 40.8H20.4C20.0817 40.8 19.7765 40.9265 19.5515 41.1515C19.3264 41.3766 19.2 41.6818 19.2 42Z" fill="white"/>
<path d="M50.7516 26.0484C50.9766 26.2734 51.2818 26.3999 51.6 26.4H51.72C51.8965 26.3825 52.067 26.326 52.2191 26.2347C52.3712 26.1434 52.5011 26.0195 52.5996 25.872L62.1996 11.472C62.2871 11.3409 62.3478 11.1938 62.3785 11.0392C62.4091 10.8846 62.409 10.7255 62.3781 10.5709C62.3472 10.4164 62.2862 10.2694 62.1986 10.1385C62.1109 10.0075 61.9983 9.89505 61.8672 9.80759C61.7361 9.72012 61.589 9.65934 61.4344 9.62872C61.2798 9.59809 61.1207 9.59821 60.9662 9.62908C60.8116 9.65994 60.6646 9.72095 60.5337 9.80861C60.4027 9.89627 60.2903 10.0089 60.2028 10.14L51.414 23.3172L47.6484 19.5516C47.4221 19.333 47.119 19.212 46.8043 19.2148C46.4897 19.2175 46.1887 19.3437 45.9662 19.5662C45.7437 19.7887 45.6175 20.0897 45.6148 20.4043C45.6121 20.7189 45.733 21.0221 45.9516 21.2484L50.7516 26.0484Z" fill="white"/>
<path d="M1.2 19.1999H8.2332L13.2504 47.3639C13.6812 49.7879 13.95 51.2927 14.172 52.2251L11.4 56.4419C11.0319 57.0305 10.8281 57.707 10.8098 58.4009C10.7914 59.0949 10.9593 59.7811 11.2958 60.3883C11.6324 60.9955 12.1253 61.5015 12.7235 61.8538C13.3218 62.2061 14.0034 62.3918 14.6976 62.3915H18.042C17.2421 63.4249 16.8056 64.6932 16.8 65.9999C16.7927 66.955 17.0135 67.898 17.4441 68.7505C17.8746 69.603 18.5025 70.3404 19.2754 70.9014C20.0483 71.4624 20.944 71.8308 21.888 71.976C22.832 72.1211 23.7969 72.0388 24.7027 71.7359C25.6085 71.433 26.4288 70.9183 27.0956 70.2345C27.7624 69.5507 28.2563 68.7176 28.5362 67.8045C28.8162 66.8914 28.8742 65.9246 28.7053 64.9846C28.5364 64.0446 28.1455 63.1585 27.5652 62.3999H39.6324C38.8382 63.4325 38.4052 64.6973 38.4 65.9999C38.4 67.5912 39.0321 69.1174 40.1574 70.2426C41.2826 71.3678 42.8087 71.9999 44.4 71.9999C45.9913 71.9999 47.5174 71.3678 48.6426 70.2426C49.7679 69.1174 50.4 67.5912 50.4 65.9999C50.3951 64.6974 49.9626 63.4326 49.1688 62.3999H52.8C53.1183 62.3999 53.4235 62.2735 53.6485 62.0485C53.8736 61.8234 54 61.5182 54 61.1999C54 60.8817 53.8736 60.5765 53.6485 60.3514C53.4235 60.1264 53.1183 59.9999 52.8 59.9999L14.6928 59.9915C14.4294 59.9915 14.1708 59.9217 13.9433 59.7891C13.7157 59.6566 13.5274 59.466 13.3974 59.237C13.2675 59.0079 13.2007 58.7484 13.2037 58.4851C13.2068 58.2218 13.2796 57.964 13.4148 57.7379L16.0644 53.7155L50.9508 51.8867C51.7879 51.8405 52.5906 51.5388 53.251 51.0224C53.9114 50.5059 54.3977 49.7996 54.6444 48.9983L58.8108 35.3279C62.2558 34.3831 65.3428 32.4368 67.6804 29.7356C70.018 27.0345 71.5011 23.7001 71.9416 20.1551C72.382 16.6102 71.7601 13.0142 70.1546 9.8231C68.5492 6.63198 66.0324 3.98936 62.9234 2.23019C59.8143 0.471025 56.253 -0.325484 52.6907 -0.0583754C49.1285 0.208733 45.7258 1.52743 42.9139 3.73058C40.1019 5.93372 38.0074 8.92211 36.8957 12.317C35.7841 15.7118 35.7054 19.3603 36.6696 22.7999H11.3124C10.776 19.7831 10.4208 17.7887 10.4208 17.7887C10.3712 17.5116 10.2258 17.2607 10.01 17.0799C9.7941 16.8992 9.52155 16.8 9.24 16.7999H1.2C0.88174 16.7999 0.576516 16.9264 0.351472 17.1514C0.126428 17.3765 0 17.6817 0 17.9999C0 18.3182 0.126428 18.6234 0.351472 18.8485C0.576516 19.0735 0.88174 19.1999 1.2 19.1999ZM22.8 69.5999C22.088 69.5999 21.392 69.3888 20.7999 68.9932C20.2079 68.5977 19.7465 68.0354 19.474 67.3776C19.2016 66.7198 19.1303 65.9959 19.2692 65.2976C19.4081 64.5993 19.7509 63.9578 20.2544 63.4544C20.7579 62.9509 21.3993 62.608 22.0977 62.4691C22.796 62.3302 23.5198 62.4015 24.1777 62.674C24.8355 62.9464 25.3977 63.4079 25.7933 63.9999C26.1889 64.5919 26.4 65.2879 26.4 65.9999C26.4 66.9547 26.0207 67.8704 25.3456 68.5455C24.6705 69.2207 23.7548 69.5999 22.8 69.5999ZM44.4 69.5999C43.688 69.5999 42.992 69.3888 42.3999 68.9932C41.8079 68.5977 41.3465 68.0354 41.074 67.3776C40.8016 66.7198 40.7303 65.9959 40.8692 65.2976C41.0081 64.5993 41.3509 63.9578 41.8544 63.4544C42.3579 62.9509 42.9993 62.608 43.6977 62.4691C44.396 62.3302 45.1198 62.4015 45.7777 62.674C46.4355 62.9464 46.9977 63.4079 47.3933 63.9999C47.7889 64.5919 48 65.2879 48 65.9999C48 66.9547 47.6207 67.8704 46.9456 68.5455C46.2705 69.2207 45.3548 69.5999 44.4 69.5999ZM54 2.39994C57.0854 2.39994 60.1015 3.31486 62.6669 5.02901C65.2323 6.74316 67.2318 9.17955 68.4125 12.0301C69.5932 14.8806 69.9022 18.0172 69.3003 21.0433C68.6983 24.0695 67.2126 26.8491 65.0309 29.0308C62.8492 31.2125 60.0695 32.6983 57.0434 33.3002C54.0173 33.9021 50.8807 33.5932 48.0301 32.4125C45.1796 31.2317 42.7432 29.2322 41.0291 26.6668C39.3149 24.1014 38.4 21.0853 38.4 17.9999C38.4048 13.864 40.0499 9.89887 42.9744 6.97433C45.8989 4.0498 49.8641 2.4047 54 2.39994ZM37.5132 25.1999C39.042 28.7561 41.6853 31.719 45.0448 33.6419C48.4043 35.5648 52.2978 36.3435 56.1384 35.8607L52.35 48.2939C52.2526 48.6273 52.0537 48.9221 51.781 49.1371C51.5083 49.3522 51.1753 49.4769 50.8284 49.4939L16.3884 51.2939C15.7056 47.4635 13.2816 33.8543 11.7408 25.1999H37.5132Z" fill="white"/>
</g>
<defs>
<clipPath id="clip0_6_213">
<rect width="72" height="72" fill="white"/>
</clipPath>
</defs>
</svg>
