<svg width="35" height="35" viewBox="0 0 35 35" fill="none" xmlns="http://www.w3.org/2000/svg">
<path d="M17.5 34C8.3946 34 1 26.6195 1 17.5C1 8.3946 8.38046 1 17.5 1C26.6054 1 34 8.38046 34 17.5C33.9859 26.6195 26.6054 34 17.5 34Z" stroke="#EE903B" stroke-width="1.5" stroke-miterlimit="10"/>
<path d="M17.5 10.0913C19.9178 10.0913 20.2005 10.1054 21.1478 10.1478C22.0244 10.1902 22.5052 10.3316 22.8303 10.4589C23.2545 10.6285 23.5514 10.8123 23.8766 11.1375C24.1877 11.4486 24.3856 11.7596 24.5553 12.1838C24.6825 12.509 24.8239 12.9756 24.8663 13.8663C24.9088 14.8136 24.9229 15.1105 24.9229 17.5141C24.9229 19.9177 24.9088 20.2147 24.8663 21.162C24.8239 22.0386 24.6825 22.5193 24.5553 22.8445C24.3856 23.2686 24.2018 23.5656 23.8766 23.8908C23.5656 24.2018 23.2545 24.3997 22.8303 24.5694C22.5052 24.6967 22.0386 24.8381 21.1478 24.8805C20.2005 24.9229 19.9036 24.937 17.5 24.937C15.0964 24.937 14.7995 24.9229 13.8522 24.8805C12.9756 24.8381 12.4949 24.6967 12.1697 24.5694C11.7455 24.3997 11.4486 24.2159 11.1234 23.8908C10.8124 23.5797 10.6144 23.2686 10.4447 22.8445C10.3175 22.5193 10.1761 22.0386 10.1337 21.162C10.0913 20.2147 10.0771 19.9177 10.0771 17.5141C10.0771 15.1105 10.0913 14.8136 10.1337 13.8663C10.1761 12.9897 10.3175 12.509 10.4447 12.1838C10.6144 11.7596 10.7982 11.4627 11.1234 11.1375C11.4345 10.8265 11.7455 10.6285 12.1697 10.4589C12.4949 10.3316 12.9615 10.1902 13.8522 10.1478C14.7995 10.1054 15.0823 10.0913 17.5 10.0913ZM17.5 8.4653C15.0399 8.4653 14.7288 8.47944 13.7674 8.52186C12.8059 8.56427 12.1414 8.7198 11.5758 8.94602C10.982 9.17224 10.473 9.4833 9.96403 9.97816C9.46917 10.4872 9.15811 10.9961 8.93189 11.59C8.70567 12.1555 8.55014 12.8201 8.50773 13.7815C8.46531 14.7429 8.45117 15.054 8.45117 17.5141C8.45117 19.9743 8.46531 20.2854 8.50773 21.2468C8.55014 22.2082 8.70567 22.8728 8.93189 23.4383C9.15811 24.0321 9.46917 24.5411 9.97816 25.036C10.4872 25.545 10.982 25.8419 11.5758 26.0823C12.1555 26.3085 12.8059 26.464 13.7674 26.5064C14.7288 26.5489 15.0399 26.563 17.5 26.563C19.9602 26.563 20.2712 26.5489 21.2327 26.5064C22.1941 26.464 22.8586 26.3085 23.4242 26.0823C24.018 25.856 24.527 25.545 25.0219 25.036C25.5309 24.527 25.8278 24.0321 26.0681 23.4383C26.2944 22.8586 26.4499 22.2082 26.4923 21.2468C26.5347 20.2854 26.5489 19.9743 26.5489 17.5141C26.5489 15.054 26.5347 14.7429 26.4923 13.7815C26.4499 12.8201 26.2944 12.1555 26.0681 11.59C25.8419 10.9961 25.5309 10.4872 25.0219 9.99229C24.5129 9.4833 24.018 9.18638 23.4242 8.94602C22.8445 8.7198 22.1941 8.56427 21.2327 8.52186C20.2571 8.47944 19.946 8.4653 17.5 8.4653Z" fill="#EE903B"/>
<path d="M17.4998 12.8622C14.9407 12.8622 12.8623 14.9406 12.8623 17.4997C12.8623 20.0589 14.9407 22.1373 17.4998 22.1373C20.059 22.1373 22.1374 20.0589 22.1374 17.4997C22.1374 14.9406 20.059 12.8622 17.4998 12.8622ZM17.4998 20.5255C15.8315 20.5255 14.4883 19.1823 14.4883 17.5139C14.4883 15.8455 15.8315 14.5023 17.4998 14.5023C19.1682 14.5023 20.5114 15.8455 20.5114 17.5139C20.5114 19.1681 19.1541 20.5255 17.4998 20.5255Z" fill="#EE903B"/>
<path d="M23.4098 12.6786C23.4098 13.2724 22.9291 13.7673 22.3211 13.7673C21.7273 13.7673 21.2324 13.2866 21.2324 12.6786C21.2324 12.0848 21.7131 11.5899 22.3211 11.5899C22.9149 11.5899 23.4098 12.0848 23.4098 12.6786Z" fill="#EE903B"/>
</svg>
