<svg width="18" height="27" viewBox="0 0 18 27" fill="none" xmlns="http://www.w3.org/2000/svg">
<path d="M11.5 0.604492H6.5C3.05375 0.604492 0.25 3.52545 0.25 7.11576V20.1383C0.25 23.7286 3.05375 26.6496 6.5 26.6496H11.5C14.9462 26.6496 17.75 23.7286 17.75 20.1383V7.11576C17.75 3.52545 14.9462 0.604492 11.5 0.604492ZM15.25 20.1383C15.25 22.2922 13.5675 24.0451 11.5 24.0451H6.5C4.4325 24.0451 2.75 22.2922 2.75 20.1383V7.11576C2.75 4.96183 4.4325 3.209 6.5 3.209H11.5C13.5675 3.209 15.25 4.96183 15.25 7.11576V20.1383ZM10.875 21.4406C10.875 22.1607 10.315 22.7428 9.625 22.7428H8.375C7.685 22.7428 7.125 22.1607 7.125 21.4406C7.125 20.7204 7.685 20.1383 8.375 20.1383H9.625C10.315 20.1383 10.875 20.7204 10.875 21.4406Z" fill="#EE903B"/>
</svg>
