<svg width="35" height="34" viewBox="0 0 35 34" fill="none" xmlns="http://www.w3.org/2000/svg">
<path d="M17.5 33C8.39545 33 1 25.8441 1 17C1 8.17135 8.37948 1 17.5 1C26.6045 1 34 8.15586 34 17C33.984 25.8441 26.6045 33 17.5 33Z" stroke="#EE903B" stroke-width="1.5" stroke-miterlimit="10"/>
<path d="M25.1753 12.4103C24.8961 11.4741 24.4479 10.686 23.8044 10.0012C23.1751 9.33123 22.4511 8.82322 21.5908 8.44796C20.6108 8.02164 19.4746 7.8145 18.3891 7.86446C17.9931 7.88233 17.6063 7.90312 17.2272 7.95746C16.159 8.10917 15.2183 8.42535 14.3517 8.92388C13.2457 9.56135 12.3821 10.4278 11.7851 11.5C11.4751 12.058 11.1698 13.0419 11.0402 13.6845C10.8866 14.4423 11.0218 15.7563 11.33 16.4973C11.715 17.4211 12.0316 17.8306 12.8041 18.4021C12.8089 18.4053 13.2864 18.7467 13.6046 18.7416C14.1838 18.7306 14.2992 18.1803 14.3543 17.9159C14.3646 17.866 14.3749 17.8167 14.387 17.7704C14.3976 17.7296 14.4116 17.6858 14.4259 17.6402C14.5078 17.3777 14.6191 17.0181 14.4344 16.6993C14.3649 16.5797 14.2827 16.4867 14.2103 16.405C14.171 16.3606 14.1313 16.3175 14.0994 16.2701C13.8246 15.8649 13.6854 15.358 13.6854 14.7636C13.6854 13.9835 13.8632 13.2768 14.2294 12.6036C14.8935 11.3822 15.9955 10.6116 17.4168 10.3739C18.2256 10.2393 19.1682 10.2958 19.8753 10.5205C20.5215 10.7262 21.0714 11.0897 21.4659 11.573C21.8836 12.0842 22.1223 12.7327 22.1752 13.5007C22.2098 13.9908 22.165 14.4846 22.1279 14.8125C21.985 16.0746 21.6151 17.0907 21.028 17.8328C20.5472 18.4418 20.0289 18.7471 19.443 18.7667C19.0657 18.7813 18.7836 18.7048 18.5287 18.5235C18.2881 18.3532 18.1448 18.1431 18.0772 17.8634C18.0008 17.544 18.093 17.2128 18.1911 16.862L18.2069 16.8058C18.2925 16.4973 18.3821 16.2154 18.4699 15.9379C18.608 15.5006 18.7513 15.0488 18.8692 14.5244C19.0026 13.9325 19.0202 13.4544 18.9236 13.0638C18.8046 12.5788 18.5419 12.2155 18.143 11.9836C17.7209 11.7393 17.1229 11.6922 16.6207 11.8636C15.8725 12.1171 15.3016 12.7917 15.0544 13.7144C14.9292 14.183 14.8928 14.675 14.9468 15.1753C14.9883 15.5677 15.0768 15.9244 15.2403 16.3551C15.2348 16.3737 15.2289 16.3934 15.223 16.4123C15.2113 16.4506 15.2006 16.4878 15.1925 16.5196C15.0166 17.2489 14.8454 17.9681 14.6746 18.6858C14.5126 19.3674 14.3502 20.0479 14.1846 20.7353L14.1471 20.8892C13.9774 21.5894 13.8025 22.3137 13.7618 23.1784L13.7434 23.5394C13.7074 24.2111 13.671 24.9059 13.7618 25.5484C13.7798 25.6739 13.8194 25.9551 14.0983 26.0532C14.1816 26.1152 14.2617 26.1414 14.3396 26.1414C14.5728 26.1414 14.7804 25.9062 14.9571 25.7067C15.5334 25.0561 16.0235 24.2345 16.4554 23.1959C16.6487 22.7312 16.7769 22.2313 16.9007 21.7477L16.9752 21.4596C17.0656 21.1153 17.1541 20.7663 17.2419 20.421L17.2478 20.398C17.4105 20.5395 17.5986 20.6671 17.8164 20.7857C18.2774 21.0391 18.7976 21.1868 19.3618 21.2244C19.8908 21.2601 20.4477 21.1926 21.0622 21.0176C21.5291 20.8856 21.9758 20.6846 22.3909 20.421C23.88 19.4742 24.895 17.8182 25.2491 15.7581C25.3553 15.1425 25.4005 14.6476 25.4005 14.1035C25.3997 13.477 25.3244 12.9066 25.1753 12.4103ZM24.5244 15.6367C24.2051 17.4922 23.3066 18.9735 21.9938 19.8079C21.6389 20.0337 21.2573 20.2047 20.8587 20.3178C20.3275 20.4695 19.8529 20.5282 19.4107 20.4983C18.9475 20.4673 18.5423 20.3531 18.1694 20.1482C17.7966 19.9458 17.5549 19.7259 17.3852 19.4352L16.9348 18.6628L16.5289 20.2445C16.4419 20.5876 16.3537 20.9348 16.2637 21.2772L16.1884 21.5697C16.0653 22.0493 15.9496 22.5026 15.7759 22.9191C15.3891 23.8497 14.9571 24.586 14.4575 25.1666C14.4186 24.6725 14.448 24.1182 14.4766 23.5795L14.4953 23.2141C14.5324 22.4183 14.6996 21.7287 14.8608 21.0617L14.8987 20.9067C15.0643 20.2189 15.2267 19.5373 15.3891 18.8554C15.5599 18.138 15.7307 17.4196 15.9063 16.6921C15.9114 16.6716 15.9188 16.6476 15.9265 16.6224C15.9706 16.4754 16.0165 16.3234 15.9544 16.1691C15.7968 15.7683 15.7138 15.4485 15.6767 15.0998C15.6326 14.6877 15.6616 14.2851 15.7641 13.9029C15.9471 13.2199 16.3456 12.7286 16.8584 12.5551C16.9855 12.5117 17.1185 12.4934 17.2463 12.4934C17.4546 12.4934 17.6478 12.543 17.772 12.6149C17.995 12.7447 18.1382 12.9482 18.2091 13.2385C18.2771 13.5142 18.258 13.8938 18.1518 14.3668C18.0401 14.861 17.9083 15.2785 17.7683 15.7209C17.6779 16.0061 17.5865 16.2956 17.4983 16.6129L17.4829 16.6683C17.3697 17.0728 17.2419 17.5312 17.3624 18.0337C17.4719 18.4889 17.7136 18.8433 18.1011 19.1183C18.4861 19.3915 18.9379 19.5136 19.4676 19.4972C20.2724 19.4702 20.9917 19.0621 21.6059 18.2846C22.2785 17.4342 22.6998 16.2942 22.8581 14.8949C22.8978 14.5382 22.9466 14.0007 22.9084 13.4518C22.8445 12.5313 22.5514 11.7451 22.0368 11.1149C21.5522 10.5216 20.8822 10.0763 20.0998 9.8272C19.2876 9.56864 18.2128 9.50227 17.2952 9.65544C15.6422 9.93187 14.3587 10.8315 13.5829 12.2578C13.1575 13.0405 12.9507 13.8603 12.9507 14.7643C12.9507 15.5068 13.1318 16.1505 13.4896 16.6778C13.5388 16.7508 13.5976 16.8186 13.6585 16.8872C13.7133 16.9492 13.7651 17.0075 13.7967 17.0618C13.8191 17.1213 13.7552 17.327 13.7243 17.4258C13.707 17.4816 13.6905 17.5352 13.6773 17.5852C13.6619 17.6435 13.6486 17.7059 13.6354 17.7686C13.6211 17.8372 13.599 17.9433 13.5759 18.0016C13.4888 17.9677 13.3298 17.8809 13.2438 17.8178C12.5837 17.3299 12.3416 17.0159 12.0103 16.2198C11.7616 15.6213 11.6382 14.4372 11.7616 13.8289C11.8994 13.1473 12.1929 12.2797 12.4294 11.8534C12.961 10.8983 13.732 10.1252 14.7213 9.55551C15.5048 9.10476 16.3585 8.81812 17.3326 8.6799C17.679 8.62994 18.0464 8.61061 18.424 8.59347C19.3974 8.54789 20.4183 8.73388 21.2962 9.11607C22.0632 9.45048 22.7082 9.90269 23.2677 10.499C23.8319 11.0992 24.2253 11.7921 24.4715 12.6178C24.6004 13.047 24.6654 13.5477 24.6654 14.105C24.665 14.6057 24.6228 15.0637 24.5244 15.6367Z" fill="#EE903B"/>
</svg>
