<svg width="120" height="120" viewBox="0 0 120 120" fill="none" xmlns="http://www.w3.org/2000/svg">
<g clip-path="url(#clip0_7_532)">
<path d="M48.8184 28.257L40.0221 15.3504V3.51562C40.0221 1.57406 38.448 0 36.5065 0H20.3269C18.3853 0 16.8112 1.57406 16.8112 3.51562V15.3502L8.01492 28.257C3.42047 29.3815 0 33.5318 0 38.468C0 41.0984 1.17328 43.5766 3.04547 45.4657C1.17328 47.355 0 49.8333 0 52.4637C0 56.8643 2.71875 60.6396 6.56391 62.2045V71.7544C2.71875 73.3191 0 77.0944 0 81.495C0 84.1805 1.0132 86.6327 2.67609 88.493C1.0132 90.3532 0 92.8055 0 95.4909C0 98.1764 1.0132 100.629 2.67586 102.489C1.0132 104.349 0 106.801 0 109.487C0 115.284 4.71633 120 10.5134 120H46.32C52.117 120 56.8334 115.284 56.8334 109.487C56.8334 106.801 55.8202 104.349 54.1575 102.489C55.8202 100.629 56.8334 98.1764 56.8334 95.4912C56.8334 92.8059 55.8202 90.3534 54.1573 88.4934C55.8199 86.6332 56.8334 84.1809 56.8334 81.4955C56.8334 77.0948 54.1144 73.3193 50.2692 71.7546V62.205C54.1144 60.6403 56.8334 56.8648 56.8334 52.4641C56.8334 49.7787 55.8202 47.3264 54.1575 45.4664C55.8202 43.6062 56.8334 41.1539 56.8334 38.4687C56.8336 33.5318 53.4131 29.3813 48.8184 28.257ZM22.1852 19.95H34.6481L40.1034 27.9544H16.7299L22.1852 19.95ZM32.9911 7.03125V12.9187H23.8425V7.03125H32.9911ZM7.03125 38.468C7.03125 36.548 8.59336 34.9859 10.5134 34.9859H46.32C48.24 34.9859 49.8021 36.548 49.8021 38.468C49.8021 40.388 48.24 41.9501 46.32 41.9501H11.3813C9.26719 41.9501 7.03125 40.1604 7.03125 38.468ZM46.3202 48.9813C48.2402 48.9813 49.8023 50.5434 49.8023 52.4634C49.8023 54.3834 48.2402 55.9455 46.3202 55.9455H10.5134C8.59336 55.9455 7.03125 54.3834 7.03125 52.4634C7.03125 50.771 9.26719 48.9813 11.3813 48.9813H46.3202ZM46.3202 84.9773H10.5134C8.59336 84.9773 7.03125 83.4152 7.03125 81.495C7.03125 79.575 8.59336 78.0129 10.5134 78.0129H46.32C48.24 78.0129 49.8021 79.575 49.8021 81.495C49.8023 83.4152 48.2402 84.9773 46.3202 84.9773ZM49.8023 95.4909C49.8023 97.4109 48.2402 98.973 46.3202 98.973H10.5134C8.59336 98.973 7.03125 97.4109 7.03125 95.4909C7.03125 93.5709 8.59336 92.0088 10.5134 92.0088H46.32C48.2402 92.0086 49.8023 93.5707 49.8023 95.4909ZM13.5952 70.9814V62.977H43.2384V70.9814H13.5952ZM46.3202 112.969H10.5134C8.59336 112.969 7.03125 111.407 7.03125 109.487C7.03125 107.567 8.59336 106.005 10.5134 106.005H46.32C48.24 106.005 49.8021 107.567 49.8021 109.487C49.8021 111.407 48.2402 112.969 46.3202 112.969Z" fill="white"/>
<path d="M116.484 55.1409H104.203V31.4339C104.203 25.3699 99.269 20.4365 93.2051 20.4365C87.1411 20.4365 82.2077 25.3699 82.2077 31.4339V55.1407H69.3176C67.376 55.1407 65.8019 56.7147 65.8019 58.6563V116.484C65.8019 118.426 67.376 120 69.3176 120H116.484C118.426 120 120 118.426 120 116.484V58.6565C120 56.7147 118.426 55.1409 116.484 55.1409ZM112.969 62.1721V70.9816H104.203V62.1721H112.969ZM89.239 70.9814V62.1719H97.1714V70.9814H89.239ZM89.239 31.4339C89.239 29.2469 91.0183 27.4678 93.2053 27.4678C95.3923 27.4678 97.1714 29.2469 97.1714 31.4339V55.1407H89.239V31.4339ZM82.2077 62.1721V70.9816H72.8332V62.1721H82.2077ZM72.8332 112.969V78.0126H112.969V112.969H72.8332Z" fill="white"/>
</g>
<defs>
<clipPath id="clip0_7_532">
<rect width="120" height="120" fill="white"/>
</clipPath>
</defs>
</svg>
