<svg width="72" height="72" viewBox="0 0 72 72" fill="none" xmlns="http://www.w3.org/2000/svg">
<g clip-path="url(#clip0_6_219)">
<path d="M59.571 17.3261C59.2504 17.3261 58.9331 17.1911 58.7104 16.9279C58.3099 16.4531 58.3684 15.7433 58.8431 15.3428C60.6634 13.806 61.9717 11.781 62.6265 9.48939C62.7986 8.89089 63.4252 8.55451 64.017 8.71539C64.6144 8.88639 64.9609 9.50964 64.791 10.1059C64.0125 12.8295 62.4577 15.2348 60.2955 17.0606C60.084 17.2395 59.8275 17.3261 59.571 17.3261Z" fill="white"/>
<path d="M38.5133 31.3492C38.1364 31.3492 37.7685 31.1602 37.5548 30.816C37.2285 30.2872 37.3905 29.5942 37.9193 29.2669C44.4206 25.2394 51.291 20.6651 58.9208 15.2809C59.4281 14.9242 60.129 15.0446 60.489 15.552C60.8468 16.0594 60.7253 16.7614 60.2179 17.1202C52.5521 22.5304 45.6458 27.1282 39.1039 31.1805C38.9205 31.2952 38.7158 31.3492 38.5133 31.3492Z" fill="white"/>
<path d="M55.3174 34.1145C54.9968 34.1145 54.6784 33.9784 54.4556 33.714C54.0551 33.2393 54.1159 32.5294 54.5918 32.13L57.1298 29.9948C57.6056 29.592 58.3155 29.655 58.7138 30.1309C59.1143 30.6056 59.0535 31.3155 58.5776 31.7149L56.0396 33.8501C55.8293 34.0279 55.5716 34.1145 55.3174 34.1145Z" fill="white"/>
<path d="M55.3151 34.1145C54.8145 34.1145 54.3577 33.7781 54.2261 33.2707L51.2167 21.6078C51.0615 21.006 51.4249 20.3928 52.0256 20.2365C52.6275 20.0835 53.2406 20.4435 53.397 21.0453L56.4064 32.7082C56.5616 33.3101 56.1982 33.9232 55.5975 34.0796C55.503 34.1032 55.4085 34.1145 55.3151 34.1145Z" fill="white"/>
<path d="M57.8542 31.9792C57.2389 31.9792 56.7371 31.4854 56.7292 30.87L56.5537 17.5522C56.5459 16.9301 57.0431 16.4205 57.663 16.4115H57.6787C58.2941 16.4115 58.7959 16.9054 58.8037 17.5207L58.9792 30.8385C58.9871 31.4606 58.4899 31.9702 57.87 31.9792C57.8644 31.9792 57.8587 31.9792 57.8542 31.9792Z" fill="white"/>
<path d="M40.6215 36.4804C40.0849 36.4804 39.6101 36.0957 39.5145 35.5489L38.4986 29.7405C38.3917 29.1285 38.8012 28.5458 39.4132 28.4389C40.023 28.3354 40.6091 28.7427 40.7149 29.3535L41.7307 35.1619C41.8376 35.7739 41.4281 36.3567 40.8161 36.4635C40.752 36.4748 40.6856 36.4804 40.6215 36.4804Z" fill="white"/>
<path d="M42.4924 35.1956C42.4046 35.1956 42.3169 35.1855 42.228 35.1652C41.625 35.019 41.2526 34.4115 41.3978 33.8074L43.1831 26.3891C43.3283 25.7861 43.9335 25.4171 44.541 25.5589C45.144 25.7051 45.5164 26.3126 45.3713 26.9167L43.5859 34.335C43.461 34.8502 42.9998 35.1956 42.4924 35.1956Z" fill="white"/>
<path d="M40.6237 36.4804C40.266 36.4804 39.9139 36.3106 39.6956 35.9922C39.3435 35.4803 39.474 34.7805 39.9859 34.4273L41.8534 33.1425C42.3652 32.7904 43.065 32.9221 43.4182 33.4328C43.7704 33.9447 43.6399 34.6444 43.128 34.9977L41.2605 36.2824C41.0659 36.4163 40.8442 36.4804 40.6237 36.4804Z" fill="white"/>
<path d="M21.6056 56.3827C21.4357 56.3827 21.2614 56.3445 21.0994 56.2624C20.5447 55.9822 20.3231 55.305 20.6032 54.7504L22.518 50.9625C22.797 50.4079 23.4742 50.184 24.03 50.4664C24.5846 50.7465 24.8062 51.4237 24.5261 51.9784L22.6114 55.7662C22.4134 56.1577 22.0162 56.3827 21.6056 56.3827Z" fill="white"/>
<path d="M23.5215 52.5949C22.9117 52.5949 22.4111 52.1077 22.3965 51.4957C22.3819 50.8747 22.8746 50.3595 23.4956 50.3449L25.0965 50.3077L25.9256 49.6867C26.0719 49.5765 26.2429 49.5045 26.424 49.4752L28.026 49.221L30.4785 48.096C30.5415 48.0679 30.6045 48.0454 30.6709 48.0274L32.6531 47.5256L34.3924 45.9832L34.6691 45.2992C34.0099 44.7131 33.345 44.1326 32.6767 43.5555C32.2346 43.1741 32.1581 42.5182 32.5001 42.0446L32.976 41.3865L32.9467 40.3346L32.1581 38.7866L31.2075 37.296C30.8745 36.7706 31.0309 36.0765 31.5562 35.7435C32.0827 35.4105 32.7769 35.5669 33.1087 36.0922L34.1111 37.674L35.0674 39.5381C35.1427 39.6866 35.1844 39.8497 35.19 40.0174L35.2384 41.7037C35.2451 41.9512 35.1697 42.1942 35.0257 42.3945L34.929 42.5272C35.5444 43.065 36.1564 43.6039 36.765 44.1495C37.1171 44.4667 37.233 44.9696 37.0552 45.4095L36.3814 47.0722C36.3161 47.2331 36.2149 47.376 36.0844 47.4907L33.9435 49.3897C33.8096 49.509 33.6476 49.5945 33.4744 49.6395L31.3267 50.184L28.827 51.3304C28.7336 51.3731 28.6346 51.4024 28.5334 51.4181L27.0551 51.6532L26.1607 52.3226C25.9729 52.4632 25.7467 52.542 25.5127 52.5476L23.5519 52.5937C23.5395 52.5949 23.5305 52.5949 23.5215 52.5949Z" fill="white"/>
<path d="M32.7409 58.9782C27.009 58.9782 21.2996 57.0792 16.7704 53.4938L16.3935 53.1934C15.9064 52.8076 15.8242 52.0999 16.2112 51.6139C16.5971 51.1268 17.3059 51.0436 17.7907 51.4317L18.1676 51.7309C24.1414 56.4593 32.373 57.9747 39.6517 55.6763C47.8147 53.1023 54.0574 45.9844 55.557 37.5413C55.6661 36.9304 56.2432 36.5232 56.8609 36.6301C57.4729 36.7392 57.8801 37.3219 57.7721 37.9339C56.1285 47.1916 49.2817 54.9991 40.329 57.8228C37.8641 58.5991 35.2991 58.9782 32.7409 58.9782Z" fill="white"/>
<path d="M13.8712 50.2279C13.5484 50.2279 13.2289 50.0907 13.0061 49.8241C6.17737 41.6341 5.16487 29.9352 10.4884 20.7147C15.1132 12.7024 23.7454 7.8233 32.976 7.92905C33.5981 7.93805 34.0942 8.4488 34.0852 9.0698C34.0763 9.69193 33.5362 10.1881 32.9445 10.1791C32.8432 10.1779 32.7409 10.1768 32.6396 10.1768C24.4451 10.1768 16.5397 14.7297 12.4357 21.8397C7.65787 30.1152 8.60287 41.0311 14.7319 48.3829C15.1301 48.8611 15.066 49.5698 14.589 49.9669C14.3797 50.1424 14.1255 50.2279 13.8712 50.2279Z" fill="white"/>
<path d="M37.7415 28.6527C37.6132 28.6527 37.4827 28.6302 37.3534 28.5829L32.0726 26.6457C31.4887 26.433 31.1906 25.785 31.4044 25.2023C31.617 24.6195 32.2627 24.318 32.8477 24.534L38.1285 26.4713C38.7124 26.6839 39.0105 27.3319 38.7967 27.9147C38.6302 28.3703 38.1994 28.6527 37.7415 28.6527Z" fill="white"/>
<path d="M37.8945 31.5316C37.2454 31.5316 36.6064 31.2458 36.1395 30.7024C35.3756 29.8126 35.3644 28.5762 36.1136 27.6987C36.5152 27.2239 37.2262 27.1677 37.6987 27.5727C38.1724 27.9743 38.2286 28.6853 37.8247 29.1578C37.8112 29.1736 37.8079 29.1814 37.8079 29.1814C37.8124 29.2051 37.8697 29.2726 37.9057 29.2816C38.4345 28.9542 39.1354 29.1117 39.4616 29.6393C39.789 30.1681 39.6315 30.8543 39.1039 31.1806C38.7236 31.4168 38.3062 31.5316 37.8945 31.5316Z" fill="white"/>
<path d="M36.9686 29.5538C36.711 29.5538 36.4511 29.466 36.2396 29.286C35.7671 28.8833 35.7098 28.1734 36.1125 27.6998C41.4833 21.3897 47.5121 15.5824 53.3396 9.96641L53.8774 9.44891C54.324 9.01691 55.035 9.03041 55.4681 9.47703C55.9001 9.92478 55.8866 10.6369 55.44 11.0678L54.9011 11.5864C49.1119 17.1642 43.1246 22.932 37.8259 29.1578C37.6031 29.4188 37.287 29.5538 36.9686 29.5538Z" fill="white"/>
<path d="M37.5131 24.9052C37.098 24.9052 36.6975 24.6746 36.5029 24.2764L35.37 21.9735L34.6534 20.8215C34.4407 20.475 34.4306 20.0419 34.6286 19.6852L35.3779 18.3352C35.5601 18.0067 35.8942 17.7907 36.27 17.7592L37.9429 17.6231L38.1161 17.4971L37.9822 17.1799C37.6414 17.2969 37.2645 17.2429 36.9709 17.0347L35.2035 15.7905L34.6871 15.8872C34.3384 15.9536 33.975 15.8501 33.714 15.6071L32.9029 14.8556C32.7701 14.733 32.6689 14.5789 32.607 14.409L32.2031 13.2739L30.6967 12.015L28.9552 11.7652C28.413 11.6876 28.0046 11.2286 27.9911 10.6807L27.9562 9.34199C27.9405 8.72099 28.431 8.20349 29.052 8.18774C29.6235 8.18887 30.1905 8.66137 30.2062 9.28349L30.2164 9.67387L31.3335 9.83474C31.5405 9.86399 31.734 9.95174 31.8937 10.0856L33.8816 11.7461C34.0369 11.8744 34.1527 12.0431 34.2214 12.2321L34.6354 13.3965L34.8277 13.5742L35.2552 13.4944C35.5556 13.4359 35.8627 13.5045 36.1125 13.68L37.7876 14.8612L38.2207 14.7026C38.7832 14.4956 39.411 14.7701 39.6439 15.3236L40.5394 17.451C40.7419 17.9325 40.5866 18.4905 40.1636 18.7976L39.0127 19.6335C38.8462 19.7539 38.6494 19.827 38.4424 19.845L37.0564 19.9586L36.918 20.2072L37.341 20.8924L38.5256 23.2886C38.799 23.8455 38.5695 24.5205 38.0126 24.795C37.8495 24.867 37.6796 24.9052 37.5131 24.9052Z" fill="white"/>
<path d="M34.0549 25.1043C33.4643 25.1043 32.967 24.6431 32.9333 24.0446C32.8973 23.4247 33.3709 22.8926 33.9908 22.8566L41.2841 22.4336C41.8905 22.3998 42.4361 22.8712 42.4721 23.4911C42.5081 24.111 42.0345 24.6431 41.4146 24.6791L34.1213 25.1021C34.0988 25.1032 34.0763 25.1043 34.0549 25.1043Z" fill="white"/>
<path d="M32.4608 26.7154C32.175 26.7154 31.8881 26.6063 31.6688 26.3903C31.2278 25.9526 31.2233 25.2405 31.6609 24.7984L33.2561 23.1874C33.6949 22.7464 34.4048 22.743 34.848 23.1795C35.289 23.6171 35.2935 24.3293 34.8559 24.7714L33.2606 26.3824C33.039 26.604 32.7499 26.7154 32.4608 26.7154Z" fill="white"/>
<path d="M46.2634 54.8437C46.188 54.8437 46.1104 54.8358 46.0339 54.8201C45.4253 54.6941 45.0338 54.0978 45.1609 53.4892L45.4759 51.9682C45.4916 51.8973 45.513 51.8276 45.5411 51.759L46.1048 50.4225L45.9135 49.3683L45.1541 48.645L43.7884 48.3401C43.4183 48.258 43.1134 47.9925 42.9806 47.637L42.3383 45.9225C42.2865 45.7852 42.2629 45.639 42.2674 45.4927L42.3326 43.4351C42.3428 43.0998 42.5014 42.7882 42.7658 42.5823L44.649 41.1165L46.1408 39.5302C46.3185 39.3401 46.557 39.2186 46.8146 39.1848L48.1826 39.006L48.5843 38.5605C48.8351 38.2815 49.2098 38.1476 49.5821 38.2016L51.4519 38.475C51.7354 38.5166 51.9919 38.664 52.1708 38.889L53.0741 40.0275L53.9966 40.7913C54.1136 40.887 54.2093 41.0051 54.279 41.1401L55.0316 42.5902C55.0958 42.7128 55.1363 42.8467 55.1509 42.9828L55.3466 44.7187C55.4164 45.3363 54.972 45.8932 54.3544 45.963C53.7266 46.0215 53.1788 45.5883 53.1101 44.9707L52.9391 43.4418L52.3879 42.381L51.5509 41.688C51.489 41.6385 51.4339 41.5811 51.3866 41.5203L50.6869 40.6383L49.8533 40.5168L49.5765 40.824C49.3976 41.0231 49.1535 41.1513 48.888 41.1851L47.5076 41.3662L46.2308 42.723C46.1914 42.7657 46.1486 42.8051 46.1025 42.84L44.5669 44.0358L44.5264 45.3431L44.8774 46.2802L45.9529 46.521C46.152 46.5648 46.3343 46.6627 46.4828 46.8033L47.7338 47.9936C47.9059 48.1578 48.0229 48.3738 48.0656 48.6078L48.3818 50.3527C48.42 50.5676 48.3964 50.7892 48.3109 50.9906L47.6595 52.5352L47.367 53.9482C47.2534 54.4792 46.7854 54.8437 46.2634 54.8437Z" fill="white"/>
<path d="M63.711 10.9226C63.6086 10.9226 63.504 10.9091 63.4028 10.8799C62.8054 10.71 62.4578 10.0879 62.6288 9.49052C62.7244 9.15414 62.5511 8.89652 62.4713 8.80089C62.3914 8.70527 62.1788 8.49264 61.83 8.52077C61.2225 8.57814 60.6645 8.12027 60.6083 7.50152C60.552 6.88277 61.0088 6.33602 61.6275 6.27977C62.5961 6.19539 63.567 6.59589 64.2038 7.36539C64.8416 8.13602 65.0621 9.16089 64.7921 10.107C64.6515 10.6009 64.1993 10.9226 63.711 10.9226Z" fill="white"/>
<path d="M54.6593 11.3828C54.3308 11.3828 54.0056 11.2399 53.784 10.9654C53.3925 10.4816 53.4679 9.77288 53.9505 9.38363C56.1533 7.60275 58.8071 6.5295 61.6286 6.27863C62.2395 6.22463 62.7941 6.68138 62.8481 7.30013C62.9033 7.91888 62.4465 8.4645 61.8266 8.51963C59.454 8.73113 57.2186 9.63338 55.3658 11.1319C55.1565 11.3006 54.9079 11.3828 54.6593 11.3828Z" fill="white"/>
<path d="M52.992 12.9893C52.9177 12.9893 52.8401 12.9814 52.7647 12.9657L39.7192 10.2848C39.1106 10.1599 38.718 9.56478 38.844 8.95616C38.97 8.34753 39.5651 7.95491 40.1726 8.08091L53.2192 10.7629C53.8279 10.8878 54.2205 11.4829 54.0945 12.0915C53.9831 12.6237 53.5151 12.9893 52.992 12.9893Z" fill="white"/>
<path d="M48.2557 17.5512C48.0938 17.5512 47.9306 17.5174 47.7754 17.4432L36.8888 12.2895C36.3274 12.024 36.0866 11.3524 36.3521 10.791C36.6176 10.2297 37.2915 9.98778 37.8506 10.2544L48.7372 15.408C49.2986 15.6735 49.5394 16.3452 49.2739 16.9065C49.0815 17.3138 48.6776 17.5512 48.2557 17.5512Z" fill="white"/>
<path d="M37.3714 12.3975C37.044 12.3975 36.7189 12.2558 36.4973 11.9813C36.1058 11.4987 36.18 10.7899 36.6615 10.3995L39.2366 8.3104C39.7215 7.91778 40.4291 7.99315 40.8184 8.47465C41.2099 8.95728 41.1356 9.66603 40.6541 10.0564L38.079 12.1455C37.8697 12.3143 37.6189 12.3975 37.3714 12.3975Z" fill="white"/>
<path d="M13.5428 65.7337C10.2915 65.7337 8.15738 64.4715 7.49926 62.1405C6.46313 58.4685 8.83576 54.3397 11.2916 50.7847C17.1484 42.309 24.8715 35.4195 31.6553 29.7978C32.1345 29.3985 32.8433 29.4671 33.2381 29.9463C33.6353 30.4245 33.5689 31.1343 33.0896 31.5292C26.4251 37.053 18.8438 43.8131 13.1423 52.0638C11.8361 53.955 8.77726 58.3819 9.66601 61.5296C10.1599 63.2846 12.3345 63.5625 14.0681 63.4713C20.1713 63.18 26.2834 59.9141 31.6766 57.0307L31.9354 56.8923C32.4833 56.5998 33.1661 56.8068 33.4586 57.3536C33.7523 57.9015 33.5441 58.5843 32.9974 58.8768L32.7375 59.0152C27.135 62.0089 20.7844 65.403 14.1761 65.718C13.9601 65.7281 13.7498 65.7337 13.5428 65.7337Z" fill="white"/>
<path d="M35.1472 35.3306C34.965 35.3306 34.7805 35.2867 34.6084 35.1922C32.9726 34.2978 31.761 32.7521 31.284 30.9498C31.1242 30.3491 31.4831 29.7337 32.0839 29.574C32.6824 29.4165 33.3011 29.7731 33.4597 30.3738C33.7792 31.581 34.5915 32.6182 35.6872 33.2178C36.2317 33.516 36.4331 34.1988 36.1339 34.7433C35.9302 35.1202 35.5455 35.3306 35.1472 35.3306Z" fill="white"/>
<path d="M17.9865 63.3027C16.6252 63.3027 15.282 63.0653 14.0974 62.4027C12.474 61.4802 11.7979 59.4934 12.5179 57.7789C14.4315 53.4207 17.5871 49.6789 20.6539 46.2195C24.0615 42.3732 27.8944 38.9419 31.5259 35.7559C32.1739 35.1867 32.8444 34.6399 33.5149 34.092L34.4295 33.3405C34.9076 32.9412 35.6186 33.0098 36.0135 33.4879C36.4106 33.9672 36.3442 34.6759 35.8661 35.0719L34.9369 35.8358C34.2878 36.3657 33.6386 36.8944 33.0097 37.4468C29.43 40.5855 25.659 43.9639 22.3369 47.7113C19.2667 51.1763 16.3609 54.621 14.5845 58.6665C14.3122 59.3145 14.5744 60.0863 15.2021 60.4429C17.082 61.4948 19.863 60.9919 22.0759 60.4373C25.6005 59.5519 28.8844 58.131 31.6327 56.8575C32.1952 56.5932 32.8646 56.8407 33.1256 57.4054C33.3866 57.969 33.1425 58.6373 32.5777 58.8983C29.736 60.2157 26.3284 61.6872 22.6226 62.6187C21.2107 62.9742 19.5874 63.3027 17.9865 63.3027Z" fill="white"/>
<path d="M28.0316 35.4375C27.5445 35.4375 27.0968 35.1203 26.9528 34.6298L26.37 32.6486L24.741 31.0309C24.4834 30.7744 24.3653 30.4099 24.4238 30.0521L24.6251 28.8236L23.9951 28.0013C23.7881 27.7313 23.715 27.3814 23.7949 27.0506L24.57 23.8736L24.0694 22.8971C23.9411 22.6474 23.9108 22.3583 23.985 22.086L24.8299 19.0046C24.9604 18.5299 25.3845 18.1946 25.8773 18.1789L25.9819 18.1744L25.9785 16.443L25.533 13.9703L24.6656 12.816L23.2583 13.005L22.1074 13.7509C21.5955 14.085 20.9115 13.9466 20.5661 13.4426L20.0284 12.6563C19.6774 12.1421 19.8101 11.4424 20.3231 11.0914C20.7956 10.7719 21.4256 10.8551 21.798 11.2714L22.2469 10.98C22.3864 10.8889 22.545 10.8304 22.7081 10.809L25.0189 10.4985C25.4261 10.4445 25.8244 10.6121 26.0696 10.9384L27.4939 12.834C27.5996 12.9746 27.6705 13.1378 27.702 13.311L28.2116 16.146C28.224 16.2113 28.2296 16.2765 28.2296 16.3429L28.2341 19.2634C28.2353 19.8709 27.7538 20.3693 27.1474 20.3895L26.7829 20.403L26.2733 22.2638L26.766 23.2245C26.8886 23.4653 26.9224 23.742 26.8583 24.0041L26.1113 27.0664L26.7086 27.8471C26.8976 28.0935 26.9753 28.4063 26.9258 28.7123L26.7401 29.8485L28.1633 31.2626C28.2971 31.3954 28.3961 31.5619 28.449 31.743L29.1128 34.0009C29.2883 34.5971 28.9474 35.2226 28.3511 35.397C28.242 35.4229 28.1363 35.4375 28.0316 35.4375Z" fill="white"/>
</g>
<defs>
<clipPath id="clip0_6_219">
<rect width="72" height="72" fill="white"/>
</clipPath>
</defs>
</svg>
