<svg width="36" height="38" viewBox="0 0 36 38" fill="none" xmlns="http://www.w3.org/2000/svg">
<path d="M32.5603 32.0497L25.7518 24.9566C27.4663 22.6938 28.4998 19.845 28.4998 16.7461C28.4998 9.42173 22.7803 3.46313 15.7498 3.46313C8.71932 3.46313 2.99982 9.42173 2.99982 16.7461C2.99982 24.0705 8.71932 30.0291 15.7498 30.0291C18.7258 30.0291 21.4588 28.9539 23.6308 27.1662L30.4393 34.2594C30.7318 34.5641 31.1158 34.7172 31.4998 34.7172C31.8838 34.7172 32.2678 34.5641 32.5603 34.2594C33.1468 33.6484 33.1468 32.6607 32.5603 32.0497ZM5.99982 16.7461C5.99982 11.1454 10.3738 6.58855 15.7498 6.58855C21.1258 6.58855 25.4998 11.1454 25.4998 16.7461C25.4998 22.3469 21.1258 26.9037 15.7498 26.9037C10.3738 26.9037 5.99982 22.3469 5.99982 16.7461Z" fill="#EE903B"/>
</svg>
