<svg width="35" height="34" viewBox="0 0 35 34" fill="none" xmlns="http://www.w3.org/2000/svg">
<path d="M17.5 33C8.38782 33 1 25.836 1 17C1 8.16395 8.38782 1 17.5 1C26.6122 1 34 8.16395 34 17C34.0158 25.836 26.628 33 17.5 33Z" stroke="#EE903B" stroke-width="1.5" stroke-miterlimit="10"/>
<path d="M14.0609 20.3968C12.9819 20.3759 12.0489 19.8393 11.5082 19.0351C11.8303 19.0241 12.1434 18.9755 12.4426 18.8939L12.4062 17.9207C11.1893 17.6847 10.2986 16.785 10.0213 15.7327C10.3523 15.8276 10.699 15.8802 11.0481 15.8893L12.8275 15.936L11.3327 14.9696C10.1564 14.2092 9.6995 12.8331 10.0782 11.6117C11.9194 13.5046 14.4856 14.715 17.3478 14.8611L18.0142 14.8951L17.8597 14.246C17.4164 12.383 18.8655 10.5664 20.8853 10.5664C21.7892 10.5664 22.596 10.9377 23.1709 11.5217L23.3615 11.7153L23.6277 11.6607C23.9205 11.6006 24.2083 11.5258 24.489 11.4366C24.3316 11.5785 24.1587 11.7046 23.9732 11.8118L24.286 12.7408C24.4435 12.7209 24.5998 12.6968 24.7547 12.6687C24.581 12.8187 24.3989 12.9597 24.2084 13.091L23.9794 13.2489L23.9928 13.5267C24.2182 18.2035 20.6265 23.4188 14.241 23.4188C13.0159 23.4188 11.8463 23.2045 10.769 22.8094C12.0663 22.6113 13.2957 22.0963 14.3531 21.2952L15.5022 20.4248L14.0609 20.3968Z" stroke="#EE903B"/>
</svg>
