<svg width="55" height="33" viewBox="0 0 55 33" fill="none" xmlns="http://www.w3.org/2000/svg">
<g clip-path="url(#clip0_87_712)">
<path d="M2.2 0H52.8C54.01 0 55 0.99 55 2.2V30.8C55 32.01 54.01 33 52.8 33H2.2C0.99 33 0 32.01 0 30.8V2.2C0 0.99 0.99 0 2.2 0Z" fill="#C3C3C3"/>
<path d="M0 4.62H55V11.77H0V4.62Z" fill="black"/>
<path d="M2.25488 15.1799H53.2399V25.2449H2.25488V15.1799Z" fill="white"/>
<path d="M17.0948 18.3786V17.5486H18.9748V24.7786H18.0548V18.3786H17.0948ZM20.428 24.0486C21.2746 23.3686 21.938 22.8119 22.418 22.3786C22.898 21.9386 23.3013 21.4819 23.628 21.0086C23.9613 20.5286 24.128 20.0586 24.128 19.5986C24.128 19.1652 24.0213 18.8252 23.808 18.5786C23.6013 18.3252 23.2646 18.1986 22.798 18.1986C22.3446 18.1986 21.9913 18.3419 21.738 18.6286C21.4913 18.9086 21.358 19.2852 21.338 19.7586H20.458C20.4846 19.0119 20.7113 18.4352 21.138 18.0286C21.5646 17.6219 22.1146 17.4186 22.788 17.4186C23.4746 17.4186 24.018 17.6086 24.418 17.9886C24.8246 18.3686 25.028 18.8919 25.028 19.5586C25.028 20.1119 24.8613 20.6519 24.528 21.1786C24.2013 21.6986 23.828 22.1586 23.408 22.5586C22.988 22.9519 22.4513 23.4119 21.798 23.9386H25.238V24.6986H20.428V24.0486ZM26.2699 19.3686C26.3166 18.7552 26.5533 18.2752 26.9799 17.9286C27.4066 17.5819 27.9599 17.4086 28.6399 17.4086C29.0933 17.4086 29.4833 17.4919 29.8099 17.6586C30.1433 17.8186 30.3933 18.0386 30.5599 18.3186C30.7333 18.5986 30.8199 18.9152 30.8199 19.2686C30.8199 19.6819 30.6999 20.0386 30.4599 20.3386C30.2266 20.6386 29.9199 20.8319 29.5399 20.9186V20.9686C29.9733 21.0752 30.3166 21.2852 30.5699 21.5986C30.8233 21.9119 30.9499 22.3219 30.9499 22.8286C30.9499 23.2086 30.8633 23.5519 30.6899 23.8586C30.5166 24.1586 30.2566 24.3952 29.9099 24.5686C29.5633 24.7419 29.1466 24.8286 28.6599 24.8286C27.9533 24.8286 27.3733 24.6452 26.9199 24.2786C26.4666 23.9052 26.2133 23.3786 26.1599 22.6986H27.0399C27.0866 23.0986 27.2499 23.4252 27.5299 23.6786C27.8099 23.9319 28.1833 24.0586 28.6499 24.0586C29.1166 24.0586 29.4699 23.9386 29.7099 23.6986C29.9566 23.4519 30.0799 23.1352 30.0799 22.7486C30.0799 22.2486 29.9133 21.8886 29.5799 21.6686C29.2466 21.4486 28.7433 21.3386 28.0699 21.3386H27.8399V20.5786H28.0799C28.6933 20.5719 29.1566 20.4719 29.4699 20.2786C29.7833 20.0786 29.9399 19.7719 29.9399 19.3586C29.9399 19.0052 29.8233 18.7219 29.5899 18.5086C29.3633 18.2952 29.0366 18.1886 28.6099 18.1886C28.1966 18.1886 27.8633 18.2952 27.6099 18.5086C27.3566 18.7219 27.2066 19.0086 27.1599 19.3686H26.2699ZM34.6246 23.1686V22.4786L38.1346 17.6186H39.2246V22.3786H40.2246V23.1686H39.2246V24.7786H38.3246V23.1686H34.6246ZM38.3646 18.5686L35.6746 22.3786H38.3646V18.5686ZM45.7437 18.3386H42.2337V20.6186C42.387 20.4052 42.6137 20.2319 42.9137 20.0986C43.2137 19.9586 43.537 19.8886 43.8837 19.8886C44.437 19.8886 44.887 20.0052 45.2337 20.2386C45.5803 20.4652 45.827 20.7619 45.9737 21.1286C46.127 21.4886 46.2037 21.8719 46.2037 22.2786C46.2037 22.7586 46.1137 23.1886 45.9337 23.5686C45.7537 23.9486 45.477 24.2486 45.1037 24.4686C44.737 24.6886 44.2803 24.7986 43.7337 24.7986C43.0337 24.7986 42.467 24.6186 42.0337 24.2586C41.6003 23.8986 41.337 23.4186 41.2437 22.8186H42.1337C42.2203 23.1986 42.4037 23.4952 42.6837 23.7086C42.9637 23.9219 43.317 24.0286 43.7437 24.0286C44.2703 24.0286 44.667 23.8719 44.9337 23.5586C45.2003 23.2386 45.3337 22.8186 45.3337 22.2986C45.3337 21.7786 45.2003 21.3786 44.9337 21.0986C44.667 20.8119 44.2737 20.6686 43.7537 20.6686C43.4003 20.6686 43.0903 20.7552 42.8237 20.9286C42.5637 21.0952 42.3737 21.3252 42.2537 21.6186H41.3937V17.5386H45.7437V18.3386ZM51.443 19.2686C51.2963 18.5286 50.8396 18.1586 50.073 18.1586C49.4796 18.1586 49.0363 18.3886 48.743 18.8486C48.4496 19.3019 48.3063 20.0519 48.313 21.0986C48.4663 20.7519 48.7196 20.4819 49.073 20.2886C49.433 20.0886 49.833 19.9886 50.273 19.9886C50.9596 19.9886 51.5063 20.2019 51.913 20.6286C52.3263 21.0552 52.533 21.6452 52.533 22.3986C52.533 22.8519 52.443 23.2586 52.263 23.6186C52.0896 23.9786 51.823 24.2652 51.463 24.4786C51.1096 24.6919 50.6796 24.7986 50.173 24.7986C49.4863 24.7986 48.9496 24.6452 48.563 24.3386C48.1763 24.0319 47.9063 23.6086 47.753 23.0686C47.5996 22.5286 47.523 21.8619 47.523 21.0686C47.523 18.6219 48.3763 17.3986 50.083 17.3986C50.7363 17.3986 51.2496 17.5752 51.623 17.9286C51.9963 18.2819 52.2163 18.7286 52.283 19.2686H51.443ZM50.083 20.7586C49.7963 20.7586 49.5263 20.8186 49.273 20.9386C49.0196 21.0519 48.813 21.2286 48.653 21.4686C48.4996 21.7019 48.423 21.9886 48.423 22.3286C48.423 22.8352 48.5696 23.2486 48.863 23.5686C49.1563 23.8819 49.5763 24.0386 50.123 24.0386C50.5896 24.0386 50.9596 23.8952 51.233 23.6086C51.513 23.3152 51.653 22.9219 51.653 22.4286C51.653 21.9086 51.5196 21.5019 51.253 21.2086C50.9863 20.9086 50.5963 20.7586 50.083 20.7586Z" fill="black"/>
<path d="M33 14H54V28H33V14Z" stroke="#EC1100" stroke-miterlimit="10"/>
</g>
<defs>
<clipPath id="clip0_87_712">
<rect width="55" height="33" fill="white"/>
</clipPath>
</defs>
</svg>
