<svg width="25" height="22" viewBox="0 0 25 22" fill="none" xmlns="http://www.w3.org/2000/svg">
<path d="M18.75 0.208984H6.25C2.80375 0.208984 0 3.12994 0 6.72026V14.5338C0 18.1241 2.80375 21.0451 6.25 21.0451H18.75C22.1963 21.0451 25 18.1241 25 14.5338V6.72026C25 3.12994 22.1963 0.208984 18.75 0.208984ZM6.25 2.81349H18.75C20.2225 2.81349 21.4862 3.70942 22.1 4.99865L14.58 10.2207C13.3163 11.0984 11.6837 11.0984 10.42 10.2207L2.90001 4.99865C3.51376 3.70942 4.7775 2.81349 6.25 2.81349ZM18.75 18.4405H6.25C4.1825 18.4405 2.5 16.6877 2.5 14.5338V7.85067L9.03252 12.3877C10.0863 13.1196 11.2925 13.4856 12.5 13.4856C13.7063 13.4856 14.9138 13.1196 15.9663 12.3877L22.5 7.85067V14.5338C22.5 16.6877 20.8175 18.4405 18.75 18.4405Z" fill="#EE903B"/>
</svg>
