<svg width="72" height="72" viewBox="0 0 72 72" fill="none" xmlns="http://www.w3.org/2000/svg">
<path d="M68.6493 37.6785L52.3778 64.2936C51.5154 65.7044 49.6725 66.1489 48.2618 65.2864L4.34551 38.4377C2.93474 37.5752 2.49028 35.7324 3.35276 34.3216L19.6242 7.7065C20.4867 6.29573 22.3295 5.85127 23.7403 6.71376L67.6565 33.5625C69.0673 34.4249 69.5118 36.2678 68.6493 37.6785Z" fill="#EF515C"/>
<path d="M12.0982 43.1827L4.34563 38.4431C2.92779 37.5763 2.49394 35.732 3.35289 34.327L19.6254 7.71006C20.4922 6.2923 22.3237 5.85051 23.7415 6.71732L31.4941 11.4569C30.0892 10.598 28.2448 11.0319 27.378 12.4497L11.1055 39.0666C10.2465 40.4716 10.6933 42.3238 12.0982 43.1827Z" fill="#E0344C"/>
<path d="M64.7316 20.4026V51.5975C64.7316 53.251 63.3912 54.5915 61.7376 54.5915H10.2644C8.61092 54.5915 7.27048 53.251 7.27048 51.5975V20.4026C7.27048 18.7491 8.61092 17.4086 10.2644 17.4086H61.7376C63.3912 17.4086 64.7316 18.7491 64.7316 20.4026Z" fill="#EF515C"/>
<path d="M19.3578 54.5979H10.2712C8.60934 54.5979 7.27719 53.2507 7.27719 51.6039V20.4069C7.27719 18.7452 8.60934 17.4129 10.2712 17.4129H19.3578C17.7111 17.4129 16.3638 18.7452 16.3638 20.4069V51.6039C16.3638 53.2507 17.7111 54.5979 19.3578 54.5979Z" fill="#E0344C"/>
<path d="M7.27728 27.5771H64.7312V33.4895H7.27728V27.5771Z" fill="#FADB43"/>
<path d="M7.27728 27.5771H22.2469V33.4895H7.27728V27.5771Z" fill="#E8C635"/>
<path d="M24.786 17.4081H30.6985V54.5919H24.786V17.4081Z" fill="#FADB43"/>
<path d="M24.786 17.4092H27.7422V54.5929H24.786V17.4092Z" fill="#E8C635"/>
<path d="M32.9343 26.2487L42.9587 36.2731L38.0173 37.2912L36.9992 42.2326L26.9749 32.2082L32.9343 26.2487Z" fill="#FADB43"/>
<path d="M26.9757 32.2052L29.4177 29.7632L37.8343 38.1797L37.0019 42.2314L26.9757 32.2052Z" fill="#E8C635"/>
<path d="M28.5095 32.2082L18.4851 42.2326L17.467 37.2912L12.5256 36.2731L22.55 26.2487L28.5095 32.2082Z" fill="#FADB43"/>
<path d="M22.553 26.2496L24.995 28.6916L16.5785 37.1081L12.5268 36.2758L22.553 26.2496Z" fill="#E8C635"/>
<path d="M42.5275 26.2037L41.7973 27.9664C40.1749 31.8832 35.6845 33.7432 31.7677 32.1208L30.005 31.3906C28.743 30.8679 28.1437 29.4211 28.6665 28.159L29.3966 26.3963C31.019 22.4795 35.5094 20.6196 39.4262 22.2419L41.1889 22.9721C42.4509 23.4948 43.0502 24.9417 42.5275 26.2037Z" fill="#FADB43"/>
<path d="M32.6269 27.7383L31.8981 29.4978C31.4532 30.5718 31.822 31.7821 32.7281 32.4384C32.4006 32.3564 32.0827 32.2514 31.7627 32.1189L30.0033 31.3901C28.7465 30.8695 28.1441 29.4153 28.6647 28.1585L29.3935 26.399C31.0168 22.4801 35.5086 20.6194 39.4276 22.2427L41.1872 22.9715C41.37 23.0473 41.5432 23.1458 41.6957 23.2625C38.0379 22.2695 34.1176 24.1393 32.6269 27.7383Z" fill="#E8C635"/>
<path d="M12.9568 26.2037L13.6869 27.9664C15.3093 31.8832 19.7997 33.7432 23.7165 32.1208L25.4792 31.3906C26.7412 30.8679 27.3405 29.4211 26.8178 28.159L26.0876 26.3963C24.4652 22.4795 19.9748 20.6196 16.058 22.2419L14.2953 22.9721C13.0333 23.4948 12.434 24.9417 12.9568 26.2037Z" fill="#FADB43"/>
<path d="M25.9864 31.1004C25.834 31.2172 25.6606 31.3157 25.4779 31.3914L23.7183 32.1202C19.7995 33.7435 15.3075 31.8829 13.6843 27.964L12.9554 26.2044C12.4349 24.9477 13.0371 23.4935 14.294 22.9728L16.0536 22.244C16.3734 22.1115 16.6914 22.0066 17.0188 21.9245C16.1127 22.581 15.7439 23.7912 16.1888 24.8652L16.9176 26.6247C18.4083 30.2237 22.3285 32.0935 25.9864 31.1004Z" fill="#E8C635"/>
<path d="M31.3655 30.116C31.3655 32.13 29.7469 33.7487 27.7519 33.7487C25.7379 33.7487 24.1193 32.13 24.1193 30.116C24.1193 28.1209 25.7379 26.5023 27.7519 26.5023C29.7469 26.5023 31.3655 28.1209 31.3655 30.116Z" fill="#FADB43"/>
<path d="M29.1192 33.4828C28.6975 33.6495 28.2367 33.7475 27.7562 33.7475C25.7365 33.7475 24.1187 32.1298 24.1187 30.1198C24.1187 28.1197 25.7365 26.5019 27.7562 26.5019C28.2367 26.5019 28.6975 26.6 29.1192 26.7667C27.7856 27.2961 26.8444 28.6001 26.8444 30.1198C26.8444 31.6493 27.7856 32.9534 29.1192 33.4828Z" fill="#E8C635"/>
<path d="M68.0705 32.8847L65.5255 31.3288V20.4033C65.5255 18.3175 63.8313 16.6128 61.7348 16.6128H41.4541L24.1546 6.03669C22.372 4.94684 20.0356 5.51038 18.9463 7.29197L13.2483 16.6128H10.2654C8.17959 16.6128 6.4749 18.3175 6.4749 20.4033V27.6926L2.67569 33.9073C1.58584 35.6882 2.14033 38.0206 3.9315 39.1146L6.4749 40.6696V51.5963C6.4749 53.6821 8.17959 55.3869 10.2654 55.3869H30.5476L47.8479 65.9636C48.4502 66.3317 49.1275 66.521 49.8161 66.521C50.1144 66.521 50.4148 66.4858 50.7116 66.4145C51.6954 66.1766 52.5278 65.5707 53.0551 64.7084L58.7538 55.3869H61.7349C63.8313 55.3869 65.5255 53.6821 65.5255 51.5963V44.3107L69.3268 38.093C70.4161 36.3114 69.8526 33.9745 68.0705 32.8847ZM63.9373 20.4033V26.783H43.147L43.261 26.508C43.9502 24.8432 43.1571 22.9282 41.4929 22.2375L39.7304 21.5075C37.6396 20.6431 35.3379 20.6421 33.2472 21.5086C32.6151 21.7702 32.0317 22.1093 31.4925 22.5022V18.201H61.7349C62.9525 18.201 63.9373 19.1857 63.9373 20.4033ZM25.58 53.7975V36.261L27.3233 34.5174C27.8545 34.5555 27.8489 34.5345 28.1606 34.5173L29.9042 36.2609V53.7975H25.58ZM41.7938 25.9L41.0637 27.6619C40.3601 29.3608 39.0376 30.6833 37.3392 31.3864C35.6404 32.0916 33.7699 32.0916 32.072 31.3864L31.9792 31.348C31.98 31.3456 31.9813 31.3434 31.9819 31.341C32.1914 30.6363 32.1971 29.9063 32.109 29.488L37.149 27.4022C37.5513 27.2328 37.742 26.7669 37.5725 26.3645C37.4031 25.9516 36.9373 25.7716 36.5348 25.9304L31.6114 27.9739C31.2743 27.3736 30.8003 26.8685 30.243 26.4775C31.3905 23.9682 33.8756 22.4516 36.4976 22.4516C37.3739 22.4516 38.2642 22.6201 39.1224 22.9758L40.8848 23.7048C41.74 24.0594 42.1479 25.0448 41.7938 25.9ZM27.7572 32.9504C26.1902 32.9504 24.9195 31.6904 24.9089 30.1233V30.1128C24.9089 28.5591 26.1918 27.2963 27.7572 27.2963C29.3131 27.2963 30.5737 28.5791 30.5737 30.1128V30.1233C30.5631 31.6904 29.3031 32.9504 27.7572 32.9504ZM25.58 24.0039V18.2028H29.9042V24.0039C29.4554 24.5598 29.0809 25.1789 28.7799 25.8448C28.453 25.7503 28.105 25.708 27.7572 25.708C27.3973 25.708 27.0372 25.7504 26.709 25.8457C26.7077 25.8459 26.7065 25.8467 26.7052 25.8469C26.4041 25.1802 26.0293 24.5603 25.58 24.0039ZM25.2495 26.48C25.249 26.4804 25.2483 26.4806 25.2478 26.4809C24.6866 26.8728 24.2208 27.381 23.8819 27.9739L18.9479 25.9304C18.5454 25.7716 18.0796 25.9515 17.9102 26.3645C17.7407 26.7668 17.9313 27.2327 18.3443 27.4022L23.3737 29.488C23.3313 29.6892 23.3207 29.901 23.3207 30.1128C23.3207 30.5463 23.3843 30.9586 23.5003 31.3501L23.4127 31.3864C19.908 32.8381 15.8722 31.1682 14.4205 27.6619L13.6905 25.9C13.3363 25.0448 13.7442 24.0594 14.5994 23.7058L16.3618 22.9758C19.7897 21.5545 23.7206 23.127 25.2495 26.48ZM13.0575 28.4906C13.6698 29.8577 14.6133 31.0132 15.8016 31.874L14.8599 32.8158H8.07115V28.4906L13.0575 28.4906ZM17.2182 32.7029C17.3253 32.7524 17.428 32.8083 17.5375 32.8537C19.5616 33.6925 21.8592 33.7484 24.0207 32.8547L24.2218 32.7714C24.5923 33.2684 25.0679 33.681 25.6073 33.9877L18.9654 40.6294L18.2447 37.1314C18.1812 36.8212 17.9382 36.5782 17.6274 36.5141L14.1289 35.7923L17.2182 32.7029ZM29.8763 33.987C30.4158 33.6906 30.8917 33.2781 31.2725 32.781C31.2735 32.7796 31.2741 32.7779 31.2752 32.7765L31.464 32.8547C32.5094 33.2869 33.6075 33.5041 34.7056 33.5041C35.8037 33.5041 36.9018 33.2869 37.9472 32.8537C38.0566 32.8084 38.1592 32.7525 38.2661 32.703L41.3553 35.7923L37.8573 36.5141C37.5465 36.5782 37.3036 36.8212 37.24 37.1314L36.5187 40.6294L29.8763 33.987ZM39.6827 31.8741C40.9061 30.9879 41.8729 29.7913 42.4832 28.3712H63.937V32.6965H40.5051L39.6827 31.8741ZM20.3014 8.12125C20.716 7.44293 21.4409 7.06863 22.1822 7.06863C22.5731 7.06863 22.9691 7.17306 23.3264 7.39124L38.4101 16.6128H15.1103L20.3014 8.12125ZM10.2654 18.201H23.9918V22.5022C23.4525 22.1094 22.8691 21.7702 22.2371 21.5085C20.1463 20.642 17.8446 20.6431 15.7538 21.5075L13.9914 22.2386C12.3271 22.9282 11.534 24.8432 12.2232 26.508L12.3866 26.9023H8.06313V20.4033C8.06313 19.1857 9.04777 18.201 10.2654 18.201ZM4.75974 37.76C3.72212 37.1246 3.39559 35.7717 4.03076 34.7366L6.4749 30.7385V38.8086L4.75974 37.76ZM8.06313 51.5963V34.404H13.2717L11.9642 35.7117C11.5182 36.1577 11.7472 36.9233 12.3654 37.0507L16.7951 37.9637L17.7076 42.3934C17.8357 43.0159 18.6026 43.2386 19.0466 42.7946L23.9918 37.8493V53.7987H10.2654C9.04777 53.7986 8.06313 52.814 8.06313 51.5963ZM51.7006 63.8791C51.394 64.3806 50.9106 64.7321 50.3393 64.8707C49.7691 65.0072 49.1776 64.9162 48.6761 64.6091L33.5915 55.3869H56.8923L51.7006 63.8791ZM61.7348 53.7986H31.4925V37.8492L36.4376 42.7946C36.8816 43.2386 37.6486 43.0158 37.7766 42.3934L38.6897 37.9637L43.1188 37.0507C43.7366 36.9234 43.9664 36.1581 43.52 35.7117L42.0931 34.2847H63.9373V51.5963C63.9373 52.814 62.9525 53.7986 61.7348 53.7986ZM67.9722 37.2637L65.5255 41.2658V33.19L67.2417 34.2392C68.2767 34.8731 68.6045 36.2297 67.9722 37.2637Z" fill="black"/>
<path d="M58.2562 43.0666H46.7575C46.3191 43.0666 45.9634 43.4223 45.9634 43.8607C45.9634 44.2991 46.3191 44.6548 46.7575 44.6548H58.2562C58.6946 44.6548 59.0503 44.2991 59.0503 43.8607C59.0503 43.4223 58.6946 43.0666 58.2562 43.0666Z" fill="black"/>
<path d="M58.2562 47.3515H46.7575C46.3191 47.3515 45.9634 47.7072 45.9634 48.1456C45.9634 48.584 46.3191 48.9397 46.7575 48.9397H58.2562C58.6946 48.9397 59.0503 48.584 59.0503 48.1456C59.0503 47.7072 58.6946 47.3515 58.2562 47.3515Z" fill="black"/>
<path d="M2.91301 5.8485H4.26084V7.19685C4.26084 7.63526 4.61654 7.99096 5.05496 7.99096C5.49338 7.99096 5.84908 7.63526 5.84908 7.19685V5.8485H7.19743C7.63584 5.8485 7.99154 5.4928 7.99154 5.05438C7.99154 4.61597 7.63584 4.26026 7.19743 4.26026H5.84908V2.91192C5.84908 2.4735 5.49338 2.1178 5.05496 2.1178C4.61654 2.1178 4.26084 2.4735 4.26084 2.91192V4.26026H2.91301C2.4746 4.26026 2.1189 4.61597 2.1189 5.05438C2.1189 5.4928 2.4746 5.8485 2.91301 5.8485Z" fill="black"/>
<path d="M62.7903 65.6141H61.4425V64.2668C61.4425 63.8284 61.0868 63.4727 60.6484 63.4727C60.21 63.4727 59.8543 63.8284 59.8543 64.2668V65.6141H58.5059C58.0675 65.6141 57.7118 65.9698 57.7118 66.4082C57.7118 66.8466 58.0675 67.2023 58.5059 67.2023H59.8543V68.5507C59.8543 68.9891 60.21 69.3448 60.6484 69.3448C61.0868 69.3448 61.4425 68.9891 61.4425 68.5507V67.2023H62.7903C63.2287 67.2023 63.5844 66.8466 63.5844 66.4082C63.5844 65.9698 63.2287 65.6141 62.7903 65.6141Z" fill="black"/>
<path d="M5.67019 64.0587C4.07135 64.0587 2.75842 65.3716 2.75842 66.9704C2.75842 68.5798 4.07135 69.8822 5.67019 69.8822C7.27962 69.8822 8.58195 68.5798 8.58195 66.9704C8.58195 65.3716 7.27962 64.0587 5.67019 64.0587ZM5.67019 68.2939C4.93966 68.2939 4.34666 67.701 4.34666 66.9704C4.34666 66.2398 4.93966 65.6469 5.67019 65.6469C6.40071 65.6469 6.99372 66.2398 6.99372 66.9704C6.99372 67.701 6.40071 68.2939 5.67019 68.2939Z" fill="black"/>
<path d="M52.9043 11.6469C54.5138 11.6469 55.8161 10.3445 55.8161 8.74566C55.8161 7.1363 54.5138 5.82336 52.9043 5.82336C51.2949 5.82336 49.9926 7.1363 49.9926 8.74566C49.9926 10.3445 51.2949 11.6469 52.9043 11.6469ZM52.9043 7.4116C53.635 7.4116 54.2278 8.01514 54.2278 8.74566C54.2278 9.47625 53.635 10.0587 52.9043 10.0587C52.1737 10.0587 51.5808 9.47625 51.5808 8.74566C51.5808 8.01513 52.1737 7.4116 52.9043 7.4116Z" fill="black"/>
<path d="M10.5124 12.796C10.9509 12.796 11.3066 12.4403 11.3066 12.0019V11.7031C11.3066 11.2646 10.9509 10.9089 10.5124 10.9089C10.074 10.9089 9.71832 11.2646 9.71832 11.7031V12.0019C9.71832 12.4403 10.074 12.796 10.5124 12.796Z" fill="black"/>
<path d="M32.405 5.99739C32.8434 5.99739 33.1991 5.64169 33.1991 5.20327V4.90444C33.1991 4.46602 32.8434 4.11032 32.405 4.11032C31.9665 4.11032 31.6108 4.46602 31.6108 4.90444V5.20327C31.6108 5.64169 31.9665 5.99739 32.405 5.99739Z" fill="black"/>
<path d="M41.6955 11.9502C42.1339 11.9502 42.4896 11.5945 42.4896 11.1561V10.8572C42.4896 10.4188 42.1339 10.0631 41.6955 10.0631C41.2571 10.0631 40.9014 10.4188 40.9014 10.8572V11.1561C40.9014 11.5945 41.2571 11.9502 41.6955 11.9502Z" fill="black"/>
<path d="M68.04 19.8924C68.4784 19.8924 68.8341 19.5367 68.8341 19.0983V18.7994C68.8341 18.361 68.4784 18.0053 68.04 18.0053C67.6015 18.0053 67.2458 18.361 67.2458 18.7994V19.0983C67.2459 19.5367 67.6016 19.8924 68.04 19.8924Z" fill="black"/>
<path d="M62.7903 5.99739C63.2287 5.99739 63.5844 5.64169 63.5844 5.20327V4.90444C63.5844 4.46602 63.2287 4.11032 62.7903 4.11032C62.3519 4.11032 61.9962 4.46602 61.9962 4.90444V5.20327C61.9962 5.64169 62.3519 5.99739 62.7903 5.99739Z" fill="black"/>
<path d="M26.2635 58.6532C25.8251 58.6532 25.4694 59.0089 25.4694 59.4473V59.7461C25.4694 60.1846 25.8251 60.5403 26.2635 60.5403C26.7019 60.5403 27.0576 60.1846 27.0576 59.7461V59.4473C27.0576 59.0089 26.7019 58.6532 26.2635 58.6532Z" fill="black"/>
<path d="M36.0007 66.0267C35.5623 66.0267 35.2066 66.3824 35.2066 66.8208V67.1197C35.2066 67.5581 35.5623 67.9138 36.0007 67.9138C36.4391 67.9138 36.7948 67.5581 36.7948 67.1197V66.8208C36.7948 66.3824 36.4391 66.0267 36.0007 66.0267Z" fill="black"/>
<path d="M67.2872 58.5033C66.8488 58.5033 66.4931 58.859 66.4931 59.2974V59.5972C66.4931 60.0357 66.8488 60.3914 67.2872 60.3914C67.7256 60.3914 68.0813 60.0357 68.0813 59.5972V59.2974C68.0813 58.859 67.7256 58.5033 67.2872 58.5033Z" fill="black"/>
<path d="M15.5439 62.1916C15.1055 62.1916 14.7498 62.5473 14.7498 62.9857V63.2845C14.7498 63.7229 15.1055 64.0786 15.5439 64.0786C15.9824 64.0786 16.3381 63.7229 16.3381 63.2845V62.9857C16.3381 62.5473 15.9824 62.1916 15.5439 62.1916Z" fill="black"/>
<path d="M4.54002 54.7477V54.4489C4.54002 54.0105 4.18432 53.6548 3.7459 53.6548C3.30748 53.6548 2.95178 54.0105 2.95178 54.4489V54.7477C2.95178 55.1862 3.30748 55.5419 3.7459 55.5419C4.18432 55.5419 4.54002 55.1862 4.54002 54.7477Z" fill="black"/>
</svg>
