<svg width="35" height="35" viewBox="0 0 35 35" fill="none" xmlns="http://www.w3.org/2000/svg">
<path d="M17.5 34C8.38728 34 1 26.6127 1 17.5C1 8.38728 8.38728 1 17.5 1C26.6127 1 34 8.38728 34 17.5C34 26.6127 26.6127 34 17.5 34Z" stroke="#EE903B" stroke-width="1.5" stroke-miterlimit="10"/>
<path d="M18.9908 14.0493L18.4908 14.0493V14.0492V14.0492V14.0491V14.0489V14.0488V14.0486V14.0484V14.0481V14.0479V14.0476V14.0472V14.0469V14.0465V14.0461V14.0457V14.0452V14.0447V14.0442V14.0436V14.0431V14.0425V14.0418V14.0412V14.0405V14.0398V14.0391V14.0383V14.0375V14.0367V14.0359V14.035V14.0341V14.0332V14.0323V14.0313V14.0303V14.0293V14.0282V14.0271V14.0261V14.0249V14.0238V14.0226V14.0214V14.0202V14.0189V14.0177V14.0164V14.015V14.0137V14.0123V14.0109V14.0095V14.0081V14.0066V14.0051V14.0036V14.002V14.0005V13.9989V13.9973V13.9956V13.994V13.9923V13.9906V13.9889V13.9871V13.9853V13.9835V13.9817V13.9799V13.978V13.9761V13.9742V13.9722V13.9703V13.9683V13.9663V13.9643V13.9622V13.9602V13.9581V13.956V13.9538V13.9517V13.9495V13.9473V13.9451V13.9428V13.9406V13.9383V13.936V13.9336V13.9313V13.9289V13.9265V13.9241V13.9217V13.9192V13.9168V13.9143V13.9118V13.9092V13.9067V13.9041V13.9015V13.8989V13.8962V13.8936V13.8909V13.8882V13.8855V13.8828V13.88V13.8773V13.8745V13.8717V13.8688V13.866V13.8631V13.8602V13.8573V13.8544V13.8515V13.8485V13.8455V13.8425V13.8395V13.8365V13.8335V13.8304V13.8273V13.8242V13.8211V13.8179V13.8148V13.8116V13.8084V13.8052V13.802V13.7988V13.7955V13.7922V13.7889V13.7856V13.7823V13.779V13.7756V13.7722V13.7688V13.7654V13.762V13.7586V13.7551V13.7516V13.7481V13.7446V13.7411V13.7376V13.734V13.7305V13.7269V13.7233V13.7197V13.7161V13.7124V13.7088V13.7051V13.7014V13.6977V13.694V13.6903V13.6865V13.6827V13.679V13.6752V13.6714V13.6676V13.6637V13.6599V13.656V13.6522V13.6483V13.6444V13.6405V13.6366V13.6326V13.6287V13.6247V13.6207V13.6167V13.6127V13.6087V13.6047V13.6007V13.5966V13.5925V13.5885V13.5844V13.5803V13.5762V13.572V13.5679V13.5637V13.5596V13.5554V13.5512V13.547V13.5428V13.5386V13.5344V13.5301V13.5259V13.5216V13.5173V13.513V13.5087V13.5044V13.5001V13.4958V13.4915V13.4871V13.4827V13.4784V13.474V13.4696V13.4652V13.4608V13.4564V13.4519V13.4475V13.4431V13.4386V13.4341V13.4297V13.4252V13.4207V13.4162V13.4117V13.4071V13.4026V13.3981V13.3935V13.389V13.3844V13.3798V13.3752V13.3707V13.3661V13.3614V13.3568V13.3522V13.3476V13.3429V13.3383V13.3336V13.329V13.3243V13.3196V13.315V13.3103V13.3056V13.3009V13.2962V13.2915V13.2867V13.282V13.2773V13.2725V13.2678V13.263V13.2583V13.2535V13.2487V13.2439V13.2391V13.2344V13.2296V13.2248V13.2199V13.2151V13.2103V13.2055V13.2007V13.1958V13.191V13.1861V13.1813V13.1764V13.1716V13.1667V13.1618V13.157V13.1521V13.1472V13.1423V13.1374V13.1325V13.1276V13.1227V13.1178V13.1129V13.108V13.1031V13.0982V13.0933V13.0883V13.0834V13.0785V13.0735V13.0686V13.0636V13.0587V13.0538V13.0488V13.0438V13.0389V13.0339V13.029V13.024V13.019V13.0141V13.0091V13.0041V12.9992V12.9942V12.9892V12.9842V12.9793V12.9743V12.9693V12.9643V12.9593V12.9543V12.9494V12.9444V12.9394V12.9344V12.9294V12.9244V12.9194V12.9144V12.9095V12.9045V12.8995V12.8945V12.8895V12.8845V12.8795V12.8745V12.8695V12.8645V12.8595V12.8546V12.8496V12.8446V12.8396V12.8346V12.8296V12.8246V12.8197V12.8147V12.8097V12.8047V12.7997V12.7948V12.7898V12.7848V12.7798V12.7749V12.7699V12.7649V12.76V12.755V12.7501V12.7451V12.7402V12.7352V12.7303V12.7253V12.7204V12.7154V12.7105V12.7056V12.7006V12.6957V12.6908V12.6859V12.681V12.676V12.6711V12.6662V12.6613V12.6564V12.6515V12.6466V12.6418V12.6369V12.632V12.6271V12.6223V12.6174V12.6125V12.6077V12.6028V12.598V12.5932V12.5883V12.5835V12.5787V12.5739V12.569V12.5642V12.5594V12.5546V12.5498V12.5451V12.5403V12.5355V12.5307V12.526V12.5212V12.5165V12.5117V12.507V12.5023V12.4975V12.4928V12.4881V12.4834V12.4787V12.474V12.4694V12.4647V12.46V12.4554V12.4507V12.4461V12.4414V12.4368V12.4322V12.4276V12.423V12.4184V12.4138V12.4092V12.4046V12.4001V12.3955V12.391V12.3864V12.3819V12.3774V12.3729V12.3684V12.3639V12.3594V12.3549V12.3504V12.346V12.3415V12.3371V12.3327V12.3283V12.3239V12.3195V12.3151V12.3107V12.3063V12.302V12.2976V12.2933V12.2889V12.2846V12.2803V12.276V12.2717V12.2675V12.2632V12.259V12.2547V12.2505V12.2463V12.2421V12.2379V12.2337V12.2295V12.2254V12.2212V12.2171V12.2129V12.2088V12.2047V12.2006V12.1966V12.1925V12.1885V12.1844V12.1804V12.1764V12.1724V12.1684V12.1644V12.1605V12.1565V12.1526V12.1487V12.1447V12.1408V12.137V12.1331C18.4908 11.7425 18.5188 11.3024 18.7676 10.976C19.0494 10.6062 19.4886 10.5233 19.9185 10.5233H19.9221H19.9258H19.9294H19.9331H19.9368H19.9405H19.9443H19.948H19.9518H19.9556H19.9595H19.9633H19.9672H19.9711H19.975H19.9789H19.9829H19.9868H19.9908H19.9948H19.9989H20.0029H20.007H20.011H20.0152H20.0193H20.0234H20.0276H20.0318H20.036H20.0402H20.0444H20.0486H20.0529H20.0572H20.0615H20.0658H20.0702H20.0745H20.0789H20.0833H20.0877H20.0921H20.0966H20.101H20.1055H20.11H20.1145H20.119H20.1236H20.1281H20.1327H20.1373H20.1419H20.1465H20.1511H20.1558H20.1605H20.1651H20.1698H20.1745H20.1793H20.184H20.1888H20.1935H20.1983H20.2031H20.2079H20.2128H20.2176H20.2225H20.2273H20.2322H20.2371H20.242H20.2469H20.2519H20.2568H20.2618H20.2667H20.2717H20.2767H20.2817H20.2868H20.2918H20.2968H20.3019H20.307H20.312H20.3171H20.3222H20.3274H20.3325H20.3376H20.3428H20.3479H20.3531H20.3583H20.3635H20.3687H20.3739H20.3791H20.3844H20.3896H20.3949H20.4001H20.4054H20.4107H20.416H20.4213H20.4266H20.4319H20.4373H20.4426H20.448H20.4533H20.4587H20.4641H20.4694H20.4748H20.4802H20.4857H20.4911H20.4965H20.5019H20.5074H20.5128H20.5183H20.5237H20.5292H20.5347H20.5402H20.5456H20.5511H20.5566H20.5622H20.5677H20.5732H20.5787H20.5843H20.5898H20.5953H20.6009H20.6065H20.612H20.6176H20.6232H20.6287H20.6343H20.6399H20.6455H20.6511H20.6567H20.6623H20.6679H20.6735H20.6792H20.6848H20.6904H20.6961H20.7017H20.7073H20.713H20.7186H20.7243H20.7299H20.7356H20.7412H20.7469H20.7526H20.7582H20.7639H20.7696H20.7752H20.7809H20.7866H20.7923H20.798H20.8036H20.8093H20.815H20.8207H20.8264H20.8321H20.8378H20.8435H20.8492H20.8549H20.8605H20.8662H20.8719H20.8776H20.8833H20.889H20.8947H20.9004H20.9061H20.9118H20.9175H20.9232H20.9289H20.9346H20.9403H20.946H20.9516H20.9573H20.963H20.9687H20.9744H20.9801H20.9857H20.9914H20.9971H21.0028H21.0084H21.0141H21.0198H21.0254H21.0311H21.0367H21.0424H21.0481H21.0537H21.0593H21.065H21.0706H21.0763H21.0819H21.0875H21.0931H21.0987H21.1044H21.11H21.1156H21.1212H21.1268H21.1324H21.1379H21.1435H21.1491H21.1547H21.1602H21.1658H21.1713H21.1769H21.1824H21.188H21.1935H21.199H21.2045H21.2101H21.2156H21.2211H21.2265H21.232H21.2375H21.243H21.2484H21.2539H21.2593H21.2648H21.2702H21.2757H21.2811H21.2865H21.2919H21.2973H21.3027H21.308H21.3134H21.3188H21.3241H21.3295H21.3348H21.3401H21.3454H21.3507H21.356H21.3613H21.3666H21.3719H21.3771H21.3824H21.3876H21.3928H21.3981H21.4033H21.4085H21.4136H21.4188H21.424H21.4291H21.4343H21.4394H21.4445H21.4496H21.4547H21.4598H21.4649H21.47H21.475H21.48H21.4851H21.4901H21.4951H21.5001H21.5051H21.51H21.515H21.5199H21.5248H21.5297H21.5346H21.5395H21.5444H21.5492H21.5541H21.5589H21.5637H21.5685H21.5733H21.5781H21.5828H21.5876H21.5923H21.5948V8.02905H21.5906H21.5847H21.5788H21.5728H21.5669H21.5609H21.5549H21.5488H21.5428H21.5367H21.5306H21.5245H21.5183H21.5121H21.5059H21.4997H21.4935H21.4872H21.481H21.4747H21.4683H21.462H21.4556H21.4493H21.4428H21.4364H21.43H21.4235H21.417H21.4105H21.404H21.3975H21.3909H21.3843H21.3777H21.3711H21.3645H21.3578H21.3512H21.3445H21.3378H21.3311H21.3243H21.3176H21.3108H21.304H21.2972H21.2904H21.2836H21.2767H21.2698H21.263H21.2561H21.2492H21.2422H21.2353H21.2283H21.2214H21.2144H21.2074H21.2004H21.1933H21.1863H21.1793H21.1722H21.1651H21.158H21.1509H21.1438H21.1367H21.1295H21.1224H21.1152H21.1081H21.1009H21.0937H21.0865H21.0793H21.072H21.0648H21.0575H21.0503H21.043H21.0357H21.0285H21.0212H21.0139H21.0066H20.9992H20.9919H20.9846H20.9772H20.9699H20.9625H20.9551H20.9478H20.9404H20.933H20.9256H20.9182H20.9108H20.9034H20.896H20.8885H20.8811H20.8737H20.8662H20.8588H20.8513H20.8438H20.8364H20.8289H20.8214H20.814H20.8065H20.799H20.7915H20.784H20.7765H20.769H20.7615H20.754H20.7465H20.739H20.7315H20.724H20.7165H20.709H20.7015H20.694H20.6864H20.6789H20.6714H20.6639H20.6564H20.6489H20.6413H20.6338H20.6263H20.6188H20.6113H20.6038H20.5963H20.5887H20.5812H20.5737H20.5662H20.5587H20.5512H20.5437H20.5362H20.5287H20.5212H20.5138H20.5063H20.4988H20.4913H20.4838H20.4764H20.4689H20.4615H20.454H20.4466H20.4391H20.4317H20.4242H20.4168H20.4094H20.402H20.3946H20.3872H20.3798H20.3724H20.365H20.3576H20.3503H20.3429H20.3355H20.3282H20.3209H20.3135H20.3062H20.2989H20.2916H20.2843H20.277H20.2697H20.2625H20.2552H20.248H20.2407H20.2335H20.2263H20.2191H20.2119H20.2047H20.1975H20.1904H20.1832H20.1761H20.169H20.1619H20.1548H20.1477H20.1406H20.1335H20.1265H20.1194H20.1124H20.1054H20.0984H20.0914H20.0845H20.0775H20.0706H20.0636H20.0567H20.0498H20.0429H20.0361H20.0292H20.0224H20.0156H20.0088H20.002H19.9952H19.9885H19.9817H19.975H19.9683H19.9616H19.955H19.9483H19.9417H19.9351H19.9285H19.9219H19.9153H19.9088H19.9023H19.8958H19.8893H19.8828H19.8764H19.87H19.8636H19.8572H19.8508H19.8445H19.8381H19.8318H19.8256H19.8193H19.8131H19.8069H19.8007H19.7945H19.7884H19.7822H19.7761H19.77H19.764H19.758H19.7519H19.746H19.74H19.7341H19.7281H19.7223H19.7164H19.7105H19.7047H19.6989H19.6932H19.6874H19.6817H19.676H19.6704H19.6647H19.6591H19.6535H19.648H19.6424H19.6369H19.6315H19.626H19.6206H19.6152H19.6098H19.6045H19.5992H19.5939H19.5886H19.5834H19.5782H19.5731H19.5679H19.5628H19.5577H19.5527H19.5477H19.5427H19.5377H19.5328H19.5279H19.5231H19.5182H19.5134H19.5086H19.5039H19.4992H19.4945H19.4899H19.4853H19.4807H19.4762H19.4717H19.4672H19.4627H19.4583H19.4539H19.4496H19.4453H19.441H19.4368H19.4326H19.4284H19.4243H19.4202H19.4161H19.4121H19.4081H19.4041H19.4002H19.3963H19.3925H19.3887H19.3849H19.3812H19.3775H19.3738H19.3702H19.3666H19.363H19.3595H19.3561H19.3526H19.3492H19.3459H19.3426H19.3393H19.336H19.3328H19.3297H19.3266H19.3235H19.3204H19.3174H19.3145H19.3116C17.8781 8.02905 16.9386 8.34625 16.3581 8.8727C15.7874 9.39025 15.4763 10.1904 15.4763 11.3614L18.9908 14.0493ZM18.9908 14.0493H18.4908V14.5493H18.9908H21.5491L21.3419 16.9134H18.9994H18.4994V17.4134V26.9712H14.985V27.4712H14.9763L18.9908 14.0493ZM15.4763 14.5493H14.9763H15.4763ZM15.4763 14.5493V14.0493M15.4763 14.5493V14.0493M15.4763 14.0493V14.0493M15.4763 14.0493V14.0493M15.4763 14.0493V14.0492M15.4763 14.0493V14.0492M15.4763 14.0492V14.0492M15.4763 14.0492V14.0492M15.4763 14.0492V14.0491M15.4763 14.0492V14.0491M15.4763 14.0491V14.0491M15.4763 14.0491V14.0491M15.4763 14.0491V14.049M15.4763 14.0491V14.049M15.4763 14.049V14.0489M15.4763 14.049V14.0489M15.4763 14.0489V14.0488M15.4763 14.0489V14.0488M15.4763 14.0488V14.0487M15.4763 14.0488V14.0487M15.4763 14.0487V14.0486M15.4763 14.0487V14.0486M15.4763 14.0486V14.0485M15.4763 14.0486V14.0485M15.4763 14.0485V14.0483M15.4763 14.0485V14.0483M15.4763 14.0483V14.0482M15.4763 14.0483V14.0482M15.4763 14.0482V14.048M15.4763 14.0482V14.048M15.4763 14.048V14.0478M15.4763 14.048V14.0478M15.4763 14.0478V14.0476M15.4763 14.0478V14.0476M15.4763 14.0476V14.0474M15.4763 14.0476V14.0474M15.4763 14.0474V14.0472M15.4763 14.0474V14.0472M15.4763 14.0472V14.047M15.4763 14.0472V14.047M15.4763 14.047V14.0467M15.4763 14.047V14.0467M15.4763 14.0467V14.0465M15.4763 14.0467V14.0465M15.4763 14.0465V14.0462M15.4763 14.0465V14.0462M15.4763 14.0462V14.0459M15.4763 14.0462V14.0459M15.4763 14.0459V14.0456M15.4763 14.0459V14.0456M15.4763 14.0456V14.0453M15.4763 14.0456V14.0453M15.4763 14.0453V14.045M15.4763 14.0453V14.045M15.4763 14.045V14.0447M15.4763 14.045V14.0447M15.4763 14.0447V14.0443M15.4763 14.0447V14.0443M15.4763 14.0443V14.044M15.4763 14.0443V14.044M15.4763 14.044V14.0436M15.4763 14.044V14.0436M15.4763 14.0436V14.0432M15.4763 14.0436V14.0432M15.4763 14.0432V14.0428M15.4763 14.0432V14.0428M15.4763 14.0428V14.0424M15.4763 14.0428V14.0424M15.4763 14.0424V14.042M15.4763 14.0424V14.042M15.4763 14.042V14.0415M15.4763 14.042V14.0415M15.4763 14.0415V14.0411M15.4763 14.0415V14.0411M15.4763 14.0411V14.0406M15.4763 14.0411V14.0406M15.4763 14.0406V14.0401M15.4763 14.0406V14.0401M15.4763 14.0401V14.0397M15.4763 14.0401V14.0397M15.4763 14.0397V14.0392M15.4763 14.0397V14.0392M15.4763 14.0392V14.0386M15.4763 14.0392V14.0386M15.4763 14.0386V14.0381M15.4763 14.0386V14.0381M15.4763 14.0381V14.0376M15.4763 14.0381V14.0376M15.4763 14.0376V14.037M15.4763 14.0376V14.037M15.4763 14.037V14.0364M15.4763 14.037V14.0364M15.4763 14.0364V14.0359M15.4763 14.0364V14.0359M15.4763 14.0359V14.0353M15.4763 14.0359V14.0353M15.4763 14.0353V14.0346M15.4763 14.0353V14.0346M15.4763 14.0346V14.034M15.4763 14.0346V14.034M15.4763 14.034V14.0334M15.4763 14.034V14.0334M15.4763 14.0334V14.0327M15.4763 14.0334V14.0327M15.4763 14.0327V14.0321M15.4763 14.0327V14.0321M15.4763 14.0321V14.0314M15.4763 14.0321V14.0314M15.4763 14.0314V14.0307M15.4763 14.0314V14.0307M15.4763 14.0307V14.03M15.4763 14.0307V14.03M15.4763 14.03V14.0292M15.4763 14.03V14.0292M15.4763 14.0292V14.0285M15.4763 14.0292V14.0285M15.4763 14.0285V14.0278M15.4763 14.0285V14.0278M15.4763 14.0278V14.027M15.4763 14.0278V14.027M15.4763 14.027V14.0262M15.4763 14.027V14.0262M15.4763 14.0262V14.0254M15.4763 14.0262V14.0254M15.4763 14.0254V14.0246M15.4763 14.0254V14.0246M15.4763 14.0246V14.0238M15.4763 14.0246V14.0238M15.4763 14.0238V14.0229M15.4763 14.0238V14.0229M15.4763 14.0229V14.0221M15.4763 14.0229V14.0221M15.4763 14.0221V14.0212M15.4763 14.0221V14.0212M15.4763 14.0212V14.0203M15.4763 14.0212V14.0203M15.4763 14.0203V14.0194M15.4763 14.0203V14.0194M15.4763 14.0194V14.0185M15.4763 14.0194V14.0185M15.4763 14.0185V14.0176M15.4763 14.0185V14.0176M15.4763 14.0176V14.0166M15.4763 14.0176V14.0166M15.4763 14.0166V14.0157M15.4763 14.0166V14.0157M15.4763 14.0157V14.0147M15.4763 14.0157V14.0147M15.4763 14.0147V14.0137M15.4763 14.0147V14.0137M15.4763 14.0137V14.0127M15.4763 14.0137V14.0127M15.4763 14.0127V14.0117M15.4763 14.0127V14.0117M15.4763 14.0117V14.0106M15.4763 14.0117V14.0106M15.4763 14.0106V14.0096M15.4763 14.0106V14.0096M15.4763 14.0096V14.0085M15.4763 14.0096V14.0085M15.4763 14.0085V14.0074M15.4763 14.0085V14.0074M15.4763 14.0074V14.0063M15.4763 14.0074V14.0063M15.4763 14.0063V14.0052M15.4763 14.0063V14.0052M15.4763 14.0052V14.0041M15.4763 14.0052V14.0041M15.4763 14.0041V14.0029M15.4763 14.0041V14.0029M15.4763 14.0029V14.0017M15.4763 14.0029V14.0017M15.4763 14.0017V14.0006M15.4763 14.0017V14.0006M15.4763 14.0006V13.9994M15.4763 14.0006V13.9994M15.4763 13.9994V13.9982M15.4763 13.9994V13.9982M15.4763 13.9982V13.9969M15.4763 13.9982V13.9969M15.4763 13.9969V13.9957M15.4763 13.9969V13.9957M15.4763 13.9957V13.9944M15.4763 13.9957V13.9944M15.4763 13.9944V13.9931M15.4763 13.9944V13.9931M15.4763 13.9931V13.9919M15.4763 13.9931V13.9919M15.4763 13.9919V13.9905M15.4763 13.9919V13.9905M15.4763 13.9905V13.9892M15.4763 13.9905V13.9892M15.4763 13.9892V13.9879M15.4763 13.9892V13.9879M15.4763 13.9879V13.9865M15.4763 13.9879V13.9865M15.4763 13.9865V13.9851M15.4763 13.9865V13.9851M15.4763 13.9851V13.9837M15.4763 13.9851V13.9837M15.4763 13.9837V13.9823M15.4763 13.9837V13.9823M15.4763 13.9823V13.9809M15.4763 13.9823V13.9809M15.4763 13.9809V13.9795M15.4763 13.9809V13.9795M15.4763 13.9795V13.978M15.4763 13.9795V13.978M15.4763 13.978V13.9765M15.4763 13.978V13.9765M15.4763 13.9765V13.975M15.4763 13.9765V13.975M15.4763 13.975V13.9735M15.4763 13.975V13.9735M15.4763 13.9735V13.972M15.4763 13.9735V13.972M15.4763 13.972V13.9705M15.4763 13.972V13.9705M15.4763 13.9705V13.9689M15.4763 13.9705V13.9689M15.4763 13.9689V13.9673M15.4763 13.9689V13.9673M15.4763 13.9673V13.9657M15.4763 13.9673V13.9657M15.4763 13.9657V13.9641M15.4763 13.9657V13.9641M15.4763 13.9641V13.9625M15.4763 13.9641V13.9625M15.4763 13.9625V13.9608M15.4763 13.9625V13.9608M15.4763 13.9608V13.9592M15.4763 13.9608V13.9592M15.4763 13.9592V13.9575M15.4763 13.9592V13.9575M15.4763 13.9575V13.9558M15.4763 13.9575V13.9558M15.4763 13.9558V13.9541M15.4763 13.9558V13.9541M15.4763 13.9541V13.9523M15.4763 13.9541V13.9523M15.4763 13.9523V13.9506M15.4763 13.9523V13.9506M15.4763 13.9506V13.9488M15.4763 13.9506V13.9488M15.4763 13.9488V13.947M15.4763 13.9488V13.947M15.4763 13.947V13.9452M15.4763 13.947V13.9452M15.4763 13.9452V13.9434M15.4763 13.9452V13.9434M15.4763 13.9434V13.9415M15.4763 13.9434V13.9415M15.4763 13.9415V13.9397M15.4763 13.9415V13.9397M15.4763 13.9397V13.9378M15.4763 13.9397V13.9378M15.4763 13.9378V13.9359M15.4763 13.9378V13.9359M15.4763 13.9359V13.934M15.4763 13.9359V13.934M15.4763 13.934V13.932M15.4763 13.934V13.932M15.4763 13.932V13.9301M15.4763 13.932V13.9301M15.4763 13.9301V13.9281M15.4763 13.9301V13.9281M15.4763 13.9281V13.9261M15.4763 13.9281V13.9261M15.4763 13.9261V13.9241M15.4763 13.9261V13.9241M15.4763 13.9241V13.9221M15.4763 13.9241V13.9221M15.4763 13.9221V13.92M15.4763 13.9221V13.92M15.4763 13.92V13.918M15.4763 13.92V13.918M15.4763 13.918V13.9159M15.4763 13.918V13.9159M15.4763 13.9159V13.9138M15.4763 13.9159V13.9138M15.4763 13.9138V13.9117M15.4763 13.9138V13.9117M15.4763 13.9117V13.9095M15.4763 13.9117V13.9095M15.4763 13.9095V13.9074M15.4763 13.9095V13.9074M15.4763 13.9074V13.9052M15.4763 13.9074V13.9052M15.4763 13.9052V13.903M15.4763 13.9052V13.903M15.4763 13.903V13.9008M15.4763 13.903V13.9008M15.4763 13.9008V13.8985M15.4763 13.9008V13.8985M15.4763 13.8985V13.8963M15.4763 13.8985V13.8963M15.4763 13.8963V13.894M15.4763 13.8963V13.894M15.4763 13.894V13.8917M15.4763 13.894V13.8917M15.4763 13.8917V13.8894M15.4763 13.8917V13.8894M15.4763 13.8894V13.8871M15.4763 13.8894V13.8871M15.4763 13.8871V13.8847M15.4763 13.8871V13.8847M15.4763 13.8847V13.8824M15.4763 13.8847V13.8824M15.4763 13.8824V13.88M15.4763 13.8824V13.88M15.4763 13.88V13.8776M15.4763 13.88V13.8776M15.4763 13.8776V13.8751M15.4763 13.8776V13.8751M15.4763 13.8751V13.8727M15.4763 13.8751V13.8727M15.4763 13.8727V13.8702M15.4763 13.8727V13.8702M15.4763 13.8702V13.8677M15.4763 13.8702V13.8677M15.4763 13.8677V13.8652M15.4763 13.8677V13.8652M15.4763 13.8652V13.8627M15.4763 13.8652V13.8627M15.4763 13.8627V13.8601M15.4763 13.8627V13.8601M15.4763 13.8601V13.8576M15.4763 13.8601V13.8576M15.4763 13.8576V13.855M15.4763 13.8576V13.855M15.4763 13.855V13.8524M15.4763 13.855V13.8524M15.4763 13.8524V13.8497M15.4763 13.8524V13.8497M15.4763 13.8497V13.8471M15.4763 13.8497V13.8471M15.4763 13.8471V13.8444M15.4763 13.8471V13.8444M15.4763 13.8444V13.8417M15.4763 13.8444V13.8417M15.4763 13.8417V13.839M15.4763 13.8417V13.839M15.4763 13.839V13.8363M15.4763 13.839V13.8363M15.4763 13.8363V13.8335M15.4763 13.8363V13.8335M15.4763 13.8335V13.8307M15.4763 13.8335V13.8307M15.4763 13.8307V13.8279M15.4763 13.8307V13.8279M15.4763 13.8279V13.8251M15.4763 13.8279V13.8251M15.4763 13.8251V13.8223M15.4763 13.8251V13.8223M15.4763 13.8223V13.8194M15.4763 13.8223V13.8194M15.4763 13.8194V13.8166M15.4763 13.8194V13.8166M15.4763 13.8166V13.8137M15.4763 13.8166V13.8137M15.4763 13.8137V13.8107M15.4763 13.8137V13.8107M15.4763 13.8107V13.8078M15.4763 13.8107V13.8078M15.4763 13.8078V13.8048M15.4763 13.8078V13.8048M15.4763 13.8048V13.8019M15.4763 13.8048V13.8019M15.4763 13.8019V13.7989M15.4763 13.8019V13.7989M15.4763 13.7989V13.7958M15.4763 13.7989V13.7958M15.4763 13.7958V13.7928M15.4763 13.7958V13.7928M15.4763 13.7928V13.7897M15.4763 13.7928V13.7897M15.4763 13.7897V13.7866M15.4763 13.7897V13.7866M15.4763 13.7866V13.7835M15.4763 13.7866V13.7835M15.4763 13.7835V13.7804M15.4763 13.7835V13.7804M15.4763 13.7804V13.7772M15.4763 13.7804V13.7772M15.4763 13.7772V13.7741M15.4763 13.7772V13.7741M15.4763 13.7741V13.7709M15.4763 13.7741V13.7709M15.4763 13.7709V13.7676M15.4763 13.7709V13.7676M15.4763 13.7676V13.7644M15.4763 13.7676V13.7644M15.4763 13.7644V13.7611M15.4763 13.7644V13.7611M15.4763 13.7611V13.7578M15.4763 13.7611V13.7578M15.4763 13.7578V13.7545M15.4763 13.7578V13.7545M15.4763 13.7545V13.7512M15.4763 13.7545V13.7512M15.4763 13.7512V13.7479M15.4763 13.7512V13.7479M15.4763 13.7479V13.7445M15.4763 13.7479V13.7445M15.4763 13.7445V13.7411M15.4763 13.7445V13.7411M15.4763 13.7411V13.7377M15.4763 13.7411V13.7377M15.4763 13.7377V13.7342M15.4763 13.7377V13.7342M15.4763 13.7342V13.7308M15.4763 13.7342V13.7308M15.4763 13.7308V13.7273M15.4763 13.7308V13.7273M15.4763 13.7273V13.7238M15.4763 13.7273V13.7238M15.4763 13.7238V13.7203M15.4763 13.7238V13.7203M15.4763 13.7203V13.7167M15.4763 13.7203V13.7167M15.4763 13.7167V13.7131M15.4763 13.7167V13.7131M15.4763 13.7131V13.7095M15.4763 13.7131V13.7095M15.4763 13.7095V13.7059M15.4763 13.7095V13.7059M15.4763 13.7059V13.7023M15.4763 13.7059V13.7023M15.4763 13.7023V13.6986M15.4763 13.7023V13.6986M15.4763 13.6986V13.6949M15.4763 13.6986V13.6949M15.4763 13.6949V13.6912M15.4763 13.6949V13.6912M15.4763 13.6912V13.6875M15.4763 13.6912V13.6875M15.4763 13.6875V13.6837M15.4763 13.6875V13.6837M15.4763 13.6837V13.6799M15.4763 13.6837V13.6799M15.4763 13.6799V13.6761M15.4763 13.6799V13.6761M15.4763 13.6761V13.6723M15.4763 13.6761V13.6723M15.4763 13.6723V13.6684M15.4763 13.6723V13.6684M15.4763 13.6684V13.6646M15.4763 13.6684V13.6646M15.4763 13.6646V13.6607M15.4763 13.6646V13.6607M15.4763 13.6607V13.6568M15.4763 13.6607V13.6568M15.4763 13.6568V13.6528M15.4763 13.6568V13.6528M15.4763 13.6528V13.6488M15.4763 13.6528V13.6488M15.4763 13.6488V13.6448M15.4763 13.6488V13.6448M15.4763 13.6448V13.6408M15.4763 13.6448V13.6408M15.4763 13.6408V13.6368M15.4763 13.6408V13.6368M15.4763 13.6368V13.6327M15.4763 13.6368V13.6327M15.4763 13.6327V13.6286M15.4763 13.6327V13.6286M15.4763 13.6286V13.6245M15.4763 13.6286V13.6245M15.4763 13.6245V13.6204M15.4763 13.6245V13.6204M15.4763 13.6204V13.6162M15.4763 13.6204V13.6162M15.4763 13.6162V13.6121M15.4763 13.6162V13.6121M15.4763 13.6121V13.6079M15.4763 13.6121V13.6079M15.4763 13.6079V13.6036M15.4763 13.6079V13.6036M15.4763 13.6036V13.5994M15.4763 13.6036V13.5994M15.4763 13.5994V13.5951M15.4763 13.5994V13.5951M15.4763 13.5951V13.5908M15.4763 13.5951V13.5908M15.4763 13.5908V13.5865M15.4763 13.5908V13.5865M15.4763 13.5865V13.5821M15.4763 13.5865V13.5821M15.4763 13.5821V13.5777M15.4763 13.5821V13.5777M15.4763 13.5777V13.5733M15.4763 13.5777V13.5733M15.4763 13.5733V13.5689M15.4763 13.5733V13.5689M15.4763 13.5689V13.5645M15.4763 13.5689V13.5645M15.4763 13.5645V13.56M15.4763 13.5645V13.56M15.4763 13.56V13.5555M15.4763 13.56V13.5555M15.4763 13.5555V13.551M15.4763 13.5555V13.551M15.4763 13.551V13.5464M15.4763 13.551V13.5464M15.4763 13.5464V13.5418M15.4763 13.5464V13.5418M15.4763 13.5418V13.5372M15.4763 13.5418V13.5372M15.4763 13.5372V13.5326M15.4763 13.5372V13.5326M15.4763 13.5326V13.528M15.4763 13.5326V13.528M15.4763 13.528V13.5233M15.4763 13.528V13.5233M15.4763 13.5233V13.5186M15.4763 13.5233V13.5186M15.4763 13.5186V13.5139M15.4763 13.5186V13.5139M15.4763 13.5139V13.5091M15.4763 13.5139V13.5091M15.4763 13.5091V13.5043M15.4763 13.5091V13.5043M15.4763 13.5043V13.4995M15.4763 13.5043V13.4995M15.4763 13.4995V13.4947M15.4763 13.4995V13.4947M15.4763 13.4947V13.4899M15.4763 13.4947V13.4899M15.4763 13.4899V13.485M15.4763 13.4899V13.485M15.4763 13.485V13.4801M15.4763 13.485V13.4801M15.4763 13.4801V13.4752M15.4763 13.4801V13.4752M15.4763 13.4752V13.4702M15.4763 13.4752V13.4702M15.4763 13.4702V13.4652M15.4763 13.4702V13.4652M15.4763 13.4652V13.4602M15.4763 13.4652V13.4602M15.4763 13.4602V13.4552M15.4763 13.4602V13.4552M15.4763 13.4552V13.4501M15.4763 13.4552V13.4501M15.4763 13.4501V13.4451M15.4763 13.4501V13.4451M15.4763 13.4451V13.4399M15.4763 13.4451V13.4399M15.4763 13.4399V13.4348M15.4763 13.4399V13.4348M15.4763 13.4348V13.4297M15.4763 13.4348V13.4297M15.4763 13.4297V13.4245M15.4763 13.4297V13.4245M15.4763 13.4245V13.4193M15.4763 13.4245V13.4193M15.4763 13.4193V13.414M15.4763 13.4193V13.414M15.4763 13.414V13.4087M15.4763 13.414V13.4087M15.4763 13.4087V13.4035M15.4763 13.4087V13.4035M15.4763 13.4035V13.3981M15.4763 13.4035V13.3981M15.4763 13.3981V13.3928M15.4763 13.3981V13.3928M15.4763 13.3928V13.3874M15.4763 13.3928V13.3874M15.4763 13.3874V13.382M15.4763 13.3874V13.382M15.4763 13.382V13.3766M15.4763 13.382V13.3766M15.4763 13.3766V13.3711M15.4763 13.3766V13.3711M15.4763 13.3711V13.3657M15.4763 13.3711V13.3657M15.4763 13.3657V13.3602M15.4763 13.3657V13.3602M15.4763 13.3602V13.3546M15.4763 13.3602V13.3546M15.4763 13.3546V13.3491M15.4763 13.3546V13.3491M15.4763 13.3491V13.3435M15.4763 13.3491V13.3435M15.4763 13.3435V13.3379M15.4763 13.3435V13.3379M15.4763 13.3379V13.3322M15.4763 13.3379V13.3322M15.4763 13.3322V13.3266M15.4763 13.3322V13.3266M15.4763 13.3266V13.3209M15.4763 13.3266V13.3209M15.4763 13.3209V13.3151M15.4763 13.3209V13.3151M15.4763 13.3151V13.3094M15.4763 13.3151V13.3094M15.4763 13.3094V13.3036M15.4763 13.3094V13.3036M15.4763 13.3036V13.2978M15.4763 13.3036V13.2978M15.4763 13.2978V13.292M15.4763 13.2978V13.292M15.4763 13.292V13.2861M15.4763 13.292V13.2861M15.4763 13.2861V13.2802M15.4763 13.2861V13.2802M15.4763 13.2802V13.2743M15.4763 13.2802V13.2743M15.4763 13.2743V13.2684M15.4763 13.2743V13.2684M15.4763 13.2684V13.2624M15.4763 13.2684V13.2624M15.4763 13.2624V13.2564M15.4763 13.2624V13.2564M15.4763 13.2564V13.2504M15.4763 13.2564V13.2504M15.4763 13.2504V13.2443M15.4763 13.2504V13.2443M15.4763 13.2443V13.2382M15.4763 13.2443V13.2382M15.4763 13.2382V13.2321M15.4763 13.2382V13.2321M15.4763 13.2321V13.226M15.4763 13.2321V13.226M15.4763 13.226V13.2198M15.4763 13.226V13.2198M15.4763 13.2198V13.2136M15.4763 13.2198V13.2136M15.4763 13.2136V13.2074M15.4763 13.2136V13.2074M15.4763 13.2074V13.2012M15.4763 13.2074V13.2012M15.4763 13.2012V13.1949M15.4763 13.2012V13.1949M15.4763 13.1949V13.1886M15.4763 13.1949V13.1886M15.4763 13.1886V13.1822M15.4763 13.1886V13.1822M15.4763 13.1822V13.1759M15.4763 13.1822V13.1759M15.4763 13.1759V13.1695M15.4763 13.1759V13.1695M15.4763 13.1695V13.1631M15.4763 13.1695V13.1631M15.4763 13.1631V13.1566M15.4763 13.1631V13.1566M15.4763 13.1566V13.1501M15.4763 13.1566V13.1501M15.4763 13.1501V13.1436M15.4763 13.1501V13.1436M15.4763 13.1436V13.1371M15.4763 13.1436V13.1371M15.4763 13.1371V13.1305M15.4763 13.1371V13.1305M15.4763 13.1305V13.1239M15.4763 13.1305V13.1239M15.4763 13.1239V13.1173M15.4763 13.1239V13.1173M15.4763 13.1173V13.1107M15.4763 13.1173V13.1107M15.4763 13.1107V13.104M15.4763 13.1107V13.104M15.4763 13.104V13.0973M15.4763 13.104V13.0973M15.4763 13.0973V13.0905M15.4763 13.0973V13.0905M15.4763 13.0905V13.0838M15.4763 13.0905V13.0838M15.4763 13.0838V13.077M15.4763 13.0838V13.077M15.4763 13.077V13.0701M15.4763 13.077V13.0701M15.4763 13.0701V13.0633M15.4763 13.0701V13.0633M15.4763 13.0633V13.0564M15.4763 13.0633V13.0564M15.4763 13.0564V13.0495M15.4763 13.0564V13.0495M15.4763 13.0495V13.0425M15.4763 13.0495V13.0425M15.4763 13.0425V13.0356M15.4763 13.0425V13.0356M15.4763 13.0356V13.0286M15.4763 13.0356V13.0286M15.4763 13.0286V13.0215M15.4763 13.0286V13.0215M15.4763 13.0215V13.0145M15.4763 13.0215V13.0145M15.4763 13.0145V13.0074M15.4763 13.0145V13.0074M15.4763 13.0074V13.0002M15.4763 13.0074V13.0002M15.4763 13.0002V12.9931M15.4763 13.0002V12.9931M15.4763 12.9931V12.9859M15.4763 12.9931V12.9859M15.4763 12.9859V12.9787M15.4763 12.9859V12.9787M15.4763 12.9787V12.9714M15.4763 12.9787V12.9714M15.4763 12.9714V12.9642M15.4763 12.9714V12.9642M15.4763 12.9642V12.9569M15.4763 12.9642V12.9569M15.4763 12.9569V12.9495M15.4763 12.9569V12.9495M15.4763 12.9495V12.9422M15.4763 12.9495V12.9422M15.4763 12.9422V12.9348M15.4763 12.9422V12.9348M15.4763 12.9348V12.9273M15.4763 12.9348V12.9273M15.4763 12.9273V12.9199M15.4763 12.9273V12.9199M15.4763 12.9199V12.9124M15.4763 12.9199V12.9124M15.4763 12.9124V12.9049M15.4763 12.9124V12.9049M15.4763 12.9049V12.8973M15.4763 12.9049V12.8973M15.4763 12.8973V12.8898M15.4763 12.8973V12.8898M15.4763 12.8898V12.8821M15.4763 12.8898V12.8821M15.4763 12.8821V12.8745M15.4763 12.8821V12.8745M15.4763 12.8745V12.8668M15.4763 12.8745V12.8668M15.4763 12.8668V12.8591M15.4763 12.8668V12.8591M15.4763 12.8591V12.8514M15.4763 12.8591V12.8514M15.4763 12.8514V12.8436M15.4763 12.8514V12.8436M15.4763 12.8436V12.8358M15.4763 12.8436V12.8358M15.4763 12.8358V12.828M15.4763 12.8358V12.828M15.4763 12.828V12.8202M15.4763 12.828V12.8202M15.4763 12.8202V12.8123M15.4763 12.8202V12.8123M15.4763 12.8123V12.8043M15.4763 12.8123V12.8043M15.4763 12.8043V12.7964M15.4763 12.8043V12.7964M15.4763 12.7964V12.7884M15.4763 12.7964V12.7884M15.4763 12.7884V12.7804M15.4763 12.7884V12.7804M15.4763 12.7804V12.7724M15.4763 12.7804V12.7724M15.4763 12.7724V12.7643M15.4763 12.7724V12.7643M15.4763 12.7643V12.7562M15.4763 12.7643V12.7562M15.4763 12.7562V12.748M15.4763 12.7562V12.748M15.4763 12.748V12.7399M15.4763 12.748V12.7399M15.4763 12.7399V12.7316M15.4763 12.7399V12.7316M15.4763 12.7316V12.7234M15.4763 12.7316V12.7234M15.4763 12.7234V12.7151M15.4763 12.7234V12.7151M15.4763 12.7151V12.7068M15.4763 12.7151V12.7068M15.4763 12.7068V12.6985M15.4763 12.7068V12.6985M15.4763 12.6985V12.6901M15.4763 12.6985V12.6901M15.4763 12.6901V12.6818M15.4763 12.6901V12.6818M15.4763 12.6818V12.6733M15.4763 12.6818V12.6733M15.4763 12.6733V12.6649M15.4763 12.6733V12.6649M15.4763 12.6649V12.6564M15.4763 12.6649V12.6564M15.4763 12.6564V12.6478M15.4763 12.6564V12.6478M15.4763 12.6478V12.6393M15.4763 12.6478V12.6393M15.4763 12.6393V12.6307M15.4763 12.6393V12.6307M15.4763 12.6307V12.6221M15.4763 12.6307V12.6221M15.4763 12.6221V12.6134M15.4763 12.6221V12.6134M15.4763 12.6134V12.6047M15.4763 12.6134V12.6047M15.4763 12.6047V12.596M15.4763 12.6047V12.596M15.4763 12.596V12.5873M15.4763 12.596V12.5873M15.4763 12.5873V12.5785M15.4763 12.5873V12.5785M15.4763 12.5785V12.5697M15.4763 12.5785V12.5697M15.4763 12.5697V12.5608M15.4763 12.5697V12.5608M15.4763 12.5608V12.5519M15.4763 12.5608V12.5519M15.4763 12.5519V12.543M15.4763 12.5519V12.543M15.4763 12.543V12.5341M15.4763 12.543V12.5341M15.4763 12.5341V12.5251M15.4763 12.5341V12.5251M15.4763 12.5251V12.5161M15.4763 12.5251V12.5161M15.4763 12.5161V12.507M15.4763 12.5161V12.507M15.4763 12.507V12.4979M15.4763 12.507V12.4979M15.4763 12.4979V12.4888M15.4763 12.4979V12.4888M15.4763 12.4888V12.4797M15.4763 12.4888V12.4797M15.4763 12.4797V12.4705M15.4763 12.4797V12.4705M15.4763 12.4705V12.4613M15.4763 12.4705V12.4613M15.4763 12.4613V12.452M15.4763 12.4613V12.452M15.4763 12.452V12.4427M15.4763 12.452V12.4427M15.4763 12.4427V12.4334M15.4763 12.4427V12.4334M15.4763 12.4334V12.4241M15.4763 12.4334V12.4241M15.4763 12.4241V12.4147M15.4763 12.4241V12.4147M15.4763 12.4147V12.4053M15.4763 12.4147V12.4053M15.4763 12.4053V12.3958M15.4763 12.4053V12.3958M15.4763 12.3958V12.3863M15.4763 12.3958V12.3863M15.4763 12.3863V12.3768M15.4763 12.3863V12.3768M15.4763 12.3768V12.3672M15.4763 12.3768V12.3672M15.4763 12.3672V12.3577V12.3672Z" stroke="#EE903B"/>
</svg>
