<svg width="72" height="72" viewBox="0 0 72 72" fill="none" xmlns="http://www.w3.org/2000/svg">
<g clip-path="url(#clip0_5_70)">
<path d="M61.2 15.6H10.8C10.1373 15.6 9.60001 16.1373 9.60001 16.8V55.2C9.60001 55.8628 10.1373 56.4 10.8 56.4H61.2C61.8628 56.4 62.4 55.8628 62.4 55.2V16.8C62.4 16.1373 61.8628 15.6 61.2 15.6Z" fill="#00BCD4"/>
<path d="M61.2 15.6H57.6C58.2627 15.6 58.8 16.1373 58.8 16.8V55.2C58.8 55.8628 58.2627 56.4 57.6 56.4H61.2C61.8627 56.4 62.4 55.8628 62.4 55.2V16.8C62.4 16.1373 61.8627 15.6 61.2 15.6Z" fill="#00838F"/>
<path d="M70.8 16.8C70.7959 15.592 70.1879 14.466 69.18 13.8C70.4106 13.0007 71.0329 11.5344 70.7529 10.0939C70.4729 8.65347 69.3465 7.52715 67.9061 7.24711C66.4656 6.96707 64.9993 7.58937 64.2 8.82001C63.3233 7.49824 61.6848 6.90602 60.1655 7.36179C58.6463 7.81755 57.6044 9.2139 57.6 10.8H14.4C14.3956 9.2139 13.3537 7.81755 11.8345 7.36179C10.3153 6.90602 8.67675 7.49824 7.80001 8.82001C7.00068 7.58937 5.53441 6.96707 4.09394 7.24711C2.65347 7.52715 1.52715 8.65347 1.24711 10.0939C0.967072 11.5344 1.58937 13.0007 2.82001 13.8C1.49824 14.6768 0.90602 16.3153 1.36179 17.8345C1.81755 19.3537 3.2139 20.3956 4.80001 20.4V51.6C3.2139 51.6044 1.81755 52.6463 1.36179 54.1655C0.90602 55.6848 1.49824 57.3233 2.82001 58.2C1.58937 58.9993 0.967072 60.4656 1.24711 61.9061C1.52715 63.3465 2.65347 64.4729 4.09394 64.7529C5.53441 65.0329 7.00068 64.4106 7.80001 63.18C8.67675 64.5018 10.3153 65.094 11.8345 64.6382C13.3537 64.1825 14.3956 62.7861 14.4 61.2H57.6C57.6044 62.7861 58.6463 64.1825 60.1655 64.6382C61.6848 65.094 63.3233 64.5018 64.2 63.18C64.9993 64.4106 66.4656 65.0329 67.9061 64.7529C69.3465 64.4729 70.4729 63.3465 70.7529 61.9061C71.0329 60.4656 70.4106 58.9993 69.18 58.2C70.5018 57.3233 71.094 55.6848 70.6382 54.1655C70.1825 52.6463 68.7861 51.6044 67.2 51.6V20.4C69.1882 20.4 70.8 18.7882 70.8 16.8ZM62.4 55.2C62.4 55.8628 61.8628 56.4 61.2 56.4H10.8C10.1373 56.4 9.60001 55.8628 9.60001 55.2V16.8C9.60001 16.1373 10.1373 15.6 10.8 15.6H61.2C61.8628 15.6 62.4 16.1373 62.4 16.8V55.2Z" fill="#FFDC00"/>
<path d="M70.8 16.8C70.7959 15.592 70.1879 14.4661 69.18 13.8C70.5018 12.9233 71.094 11.2848 70.6382 9.76555C70.1825 8.24633 68.7861 7.2044 67.2 7.20001C66.5663 7.20242 65.9448 7.37437 65.4 7.69801C66.4803 8.31756 67.1611 9.45386 67.1978 10.6986C67.2345 11.9434 66.6219 13.1179 65.58 13.8C66.9018 14.6768 67.494 16.3153 67.0382 17.8345C66.5825 19.3537 65.1861 20.3956 63.6 20.4V51.6C65.1861 51.6044 66.5825 52.6463 67.0382 54.1656C67.494 55.6848 66.9018 57.3233 65.58 58.2C66.622 58.882 67.2348 60.0563 67.1984 61.3011C67.1619 62.5458 66.4813 63.6823 65.4012 64.302C65.9457 64.6255 66.5667 64.7974 67.2 64.8C68.7861 64.7956 70.1825 63.7537 70.6382 62.2345C71.094 60.7153 70.5018 59.0768 69.18 58.2C70.5018 57.3233 71.094 55.6848 70.6382 54.1656C70.1825 52.6463 68.7861 51.6044 67.2 51.6V20.4C69.1882 20.4 70.8 18.7882 70.8 16.8Z" fill="#FEC108"/>
<path d="M15.6 24C15.1147 23.9999 14.6773 23.7075 14.4916 23.2592C14.3059 22.8109 14.4085 22.2948 14.7516 21.9516L15.9516 20.7516C16.4225 20.2969 17.1709 20.3034 17.6338 20.7662C18.0967 21.2291 18.1032 21.9776 17.6484 22.4484L16.4484 23.6484C16.2234 23.8735 15.9182 24 15.6 24Z" fill="#F5F5F5"/>
<path d="M15.6 31.2C15.1147 31.1999 14.6773 30.9075 14.4916 30.4592C14.3059 30.0109 14.4085 29.4948 14.7516 29.1516L23.1516 20.7516C23.6225 20.2969 24.3709 20.3034 24.8338 20.7662C25.2967 21.2291 25.3032 21.9776 24.8484 22.4484L16.4484 30.8484C16.2234 31.0735 15.9182 31.2 15.6 31.2Z" fill="#F5F5F5"/>
<path d="M61.2 14.4H10.8C9.47453 14.4 8.40001 15.4745 8.40001 16.8V55.2C8.40001 56.5255 9.47453 57.6 10.8 57.6H61.2C62.5255 57.6 63.6 56.5255 63.6 55.2V16.8C63.6 15.4745 62.5255 14.4 61.2 14.4ZM10.8 55.2V16.8H61.2V55.2H10.8Z" fill="black"/>
<path d="M67.2 6C66.1091 5.99892 65.0507 6.37066 64.2 7.0536C62.9289 6.03525 61.2281 5.73096 59.6827 6.24544C58.1373 6.75991 56.9583 8.02294 56.5512 9.6H15.4488C15.0417 8.02294 13.8627 6.75991 12.3173 6.24544C10.772 5.73096 9.07114 6.03525 7.8 7.0536C5.89009 5.52695 3.13782 5.67995 1.40888 7.40888C-0.320053 9.13782 -0.473051 11.8901 1.0536 13.8C0.0352469 15.0711 -0.269036 16.772 0.245439 18.3173C0.759914 19.8627 2.02294 21.0417 3.6 21.4488V50.5512C2.02294 50.9583 0.759914 52.1373 0.245439 53.6827C-0.269036 55.2281 0.0352469 56.9289 1.0536 58.2C-0.473051 60.1099 -0.320053 62.8622 1.40888 64.5911C3.13782 66.3201 5.89009 66.4731 7.8 64.9464C9.07114 65.9648 10.772 66.269 12.3173 65.7546C13.8627 65.2401 15.0417 63.9771 15.4488 62.4H56.5512C56.9583 63.9771 58.1373 65.2401 59.6827 65.7546C61.2281 66.269 62.9289 65.9648 64.2 64.9464C66.1099 66.4731 68.8622 66.3201 70.5911 64.5911C72.3201 62.8622 72.4731 60.1099 70.9464 58.2C71.9648 56.9289 72.2691 55.2281 71.7546 53.6827C71.2401 52.1373 69.9771 50.9583 68.4 50.5512V21.4488C69.9771 21.0417 71.2401 19.8627 71.7546 18.3173C72.2691 16.772 71.9648 15.0711 70.9464 13.8C72.0998 12.3595 72.3252 10.3853 71.5262 8.72181C70.7272 7.05836 69.0454 6.00023 67.2 6ZM68.52 14.7996C69.4016 15.384 69.7967 16.4765 69.4928 17.4896C69.1889 18.5026 68.2577 19.1973 67.2 19.2C66.5373 19.2 66 19.7373 66 20.4V51.6C66 52.2627 66.5373 52.8 67.2 52.8C68.2577 52.8027 69.1889 53.4974 69.4928 54.5104C69.7967 55.5235 69.4016 56.616 68.52 57.2004C68.1852 57.4228 67.9839 57.7981 67.9839 58.2C67.9839 58.602 68.1852 58.9772 68.52 59.1996C69.3398 59.7328 69.7542 60.7101 69.5674 61.67C69.3806 62.63 68.63 63.3806 67.67 63.5674C66.7101 63.7542 65.7328 63.3398 65.1996 62.52C64.9772 62.1852 64.602 61.9839 64.2 61.9839C63.7981 61.9839 63.4228 62.1852 63.2004 62.52C62.616 63.4016 61.5235 63.7967 60.5104 63.4928C59.4974 63.1889 58.8027 62.2577 58.8 61.2C58.8 60.5373 58.2627 60 57.6 60H14.4C13.7373 60 13.2 60.5373 13.2 61.2C13.1973 62.2577 12.5026 63.1889 11.4896 63.4928C10.4765 63.7967 9.38397 63.4016 8.7996 62.52C8.56489 62.2034 8.19409 62.0168 7.8 62.0168C7.40592 62.0168 7.03512 62.2034 6.8004 62.52C6.26724 63.3398 5.28994 63.7542 4.32999 63.5674C3.37004 63.3806 2.61945 62.63 2.43264 61.67C2.24583 60.7101 2.66016 59.7328 3.48 59.1996C3.81483 58.9772 4.01608 58.602 4.01608 58.2C4.01608 57.7981 3.81483 57.4228 3.48 57.2004C2.59845 56.616 2.20335 55.5235 2.50724 54.5104C2.81113 53.4974 3.74236 52.8027 4.8 52.8C5.46275 52.8 6 52.2627 6 51.6V20.4C6 19.7373 5.46275 19.2 4.8 19.2C3.74236 19.1973 2.81113 18.5026 2.50724 17.4896C2.20335 16.4765 2.59845 15.384 3.48 14.7996C3.81483 14.5772 4.01608 14.202 4.01608 13.8C4.01608 13.3981 3.81483 13.0228 3.48 12.8004C2.66016 12.2672 2.24583 11.2899 2.43264 10.33C2.61945 9.37004 3.37004 8.61945 4.32999 8.43264C5.28994 8.24583 6.26724 8.66016 6.8004 9.48C7.03512 9.79657 7.40592 9.98323 7.8 9.98323C8.19409 9.98323 8.56489 9.79657 8.7996 9.48C9.38397 8.59845 10.4765 8.20335 11.4896 8.50724C12.5026 8.81113 13.1973 9.74236 13.2 10.8C13.2 11.4627 13.7373 12 14.4 12H57.6C58.2627 12 58.8 11.4627 58.8 10.8C58.8027 9.74236 59.4974 8.81113 60.5104 8.50724C61.5235 8.20335 62.616 8.59845 63.2004 9.48C63.4351 9.79657 63.8059 9.98323 64.2 9.98323C64.5941 9.98323 64.9649 9.79657 65.1996 9.48C65.7328 8.66016 66.7101 8.24583 67.67 8.43264C68.63 8.61945 69.3806 9.37004 69.5674 10.33C69.7542 11.2899 69.3398 12.2672 68.52 12.8004C68.1852 13.0228 67.9839 13.3981 67.9839 13.8C67.9839 14.202 68.1852 14.5772 68.52 14.7996Z" fill="black"/>
</g>
<defs>
<clipPath id="clip0_5_70">
<rect width="72" height="72" fill="white"/>
</clipPath>
</defs>
</svg>
