<svg width="72" height="70" viewBox="0 0 72 70" fill="none" xmlns="http://www.w3.org/2000/svg">
<path d="M0.5625 43.7163L8.49066 48.2935C8.61862 48.3673 8.75988 48.4152 8.90637 48.4345C9.05285 48.4537 9.2017 48.444 9.3444 48.4057C9.4871 48.3674 9.62087 48.3014 9.73806 48.2114C9.85525 48.1215 9.95357 48.0093 10.0274 47.8813L10.313 47.3866L14.9044 50.0748C14.7959 50.4651 14.7409 50.8684 14.7409 51.2736C14.7387 51.8554 14.8519 52.4319 15.0739 52.9697C15.296 53.5075 15.6225 53.9958 16.0346 54.4066C16.4458 54.8183 16.9342 55.1447 17.4718 55.367C18.0095 55.5894 18.5858 55.7033 19.1676 55.7023C19.253 55.7023 19.3385 55.6989 19.4238 55.6941C19.4191 55.7785 19.416 55.8629 19.416 55.9487C19.4147 56.5304 19.5283 57.1066 19.7504 57.6442C19.9724 58.1819 20.2984 58.6704 20.7097 59.0817C21.121 59.493 21.6095 59.819 22.1472 60.041C22.6848 60.263 23.261 60.3767 23.8427 60.3754C23.9285 60.3754 24.0138 60.3723 24.0989 60.3675C24.0941 60.4526 24.0909 60.538 24.0909 60.6238C24.0896 61.2054 24.2032 61.7817 24.4252 62.3193C24.6473 62.857 24.9733 63.3455 25.3846 63.7568C25.7959 64.1682 26.2844 64.4942 26.8221 64.7162C27.3597 64.9382 27.9359 65.0519 28.5176 65.0506C28.8292 65.0505 29.1398 65.018 29.4446 64.9536C29.586 65.8215 30.0319 66.6106 30.7025 67.1794C31.3731 67.7483 32.2244 68.0595 33.1037 68.0575C33.5484 68.0579 33.9895 67.9788 34.4063 67.8238L34.6298 68.0469C35.1119 68.5298 35.7179 68.8704 36.3811 69.031C37.0444 69.1917 37.7391 69.1662 38.3887 68.9574C39.0384 68.7486 39.6179 68.3646 40.0634 67.8477C40.5088 67.3308 40.803 66.7009 40.9136 66.0276C41.2182 66.0926 41.5287 66.1255 41.8402 66.126C42.4435 66.1267 43.0406 66.004 43.5948 65.7654C44.1489 65.5268 44.6484 65.1774 45.0625 64.7386C45.4765 64.2997 45.7965 63.7808 46.0025 63.2138C46.2086 62.6467 46.2964 62.0435 46.2607 61.4412C46.3451 61.446 46.4295 61.4489 46.5152 61.4489C47.1185 61.4501 47.7157 61.3278 48.27 61.0895C48.8242 60.8512 49.3238 60.5019 49.7379 60.0632C50.1521 59.6245 50.472 59.1057 50.6781 58.5386C50.8841 57.9716 50.9718 57.3684 50.9359 56.7661C51.0203 56.7709 51.1047 56.7739 51.1905 56.7739C52.0017 56.7731 52.7972 56.5496 53.4901 56.1277C54.1831 55.7059 54.7469 55.1019 55.1202 54.3816C55.4935 53.6614 55.6619 52.8524 55.607 52.043C55.5521 51.2337 55.2761 50.4548 54.809 49.7915L61.0152 46.2231L61.9726 47.8813C62.1218 48.1397 62.3675 48.3282 62.6557 48.4054C62.9439 48.4827 63.251 48.4422 63.5094 48.2931L71.4375 43.7163C71.6959 43.5671 71.8844 43.3214 71.9616 43.0332C72.0389 42.745 71.9984 42.4379 71.8493 42.1795L61.4513 24.1698C61.3021 23.9115 61.0564 23.723 60.7683 23.6457C60.4801 23.5685 60.1731 23.6089 59.9147 23.7581L51.9865 28.3354C51.7282 28.4846 51.5396 28.7303 51.4624 29.0185C51.3852 29.3067 51.4256 29.6138 51.5748 29.8722L52.4943 31.4649L51.18 31.9626C50.577 32.2038 49.9068 32.2174 49.2946 32.0007L40.5315 29.0797C40.0452 28.9133 39.5307 28.8456 39.0179 28.8806C38.5051 28.9155 38.0045 29.0525 37.5453 29.2834L35.8016 30.1429C35.7851 30.133 35.7692 30.1225 35.7519 30.1133L33.6748 29.0165C33.1151 28.7165 32.4907 28.5578 31.8557 28.5539C31.2208 28.55 30.5945 28.7012 30.0312 28.9942L27.2583 30.4146C27.0481 30.5321 26.8118 30.5954 26.571 30.5986L19.9616 30.6743L20.4248 29.8717C20.574 29.6133 20.6144 29.3063 20.5372 29.0181C20.46 28.7299 20.2714 28.4842 20.0131 28.335L12.0853 23.7581C11.8269 23.6089 11.5199 23.5685 11.2317 23.6457C10.9436 23.723 10.6979 23.9115 10.5487 24.1698L0.15075 42.1795C0.00157197 42.4379 -0.0388545 42.745 0.0383631 43.0332C0.115581 43.3214 0.304117 43.5671 0.5625 43.7163ZM17.6255 52.8161C17.2188 52.4059 16.9906 51.8517 16.9906 51.274C16.9906 50.6964 17.2188 50.1421 17.6255 49.7319L21.5816 45.7759C21.9911 45.3692 22.545 45.1414 23.1222 45.1424C23.6993 45.1434 24.2525 45.3731 24.6605 45.7812C25.0686 46.1894 25.2982 46.7426 25.2992 47.3197C25.3001 47.8968 25.0722 48.4508 24.6655 48.8602L20.7097 52.8161C20.3004 53.2244 19.7458 53.4537 19.1676 53.4537C18.5894 53.4537 18.0349 53.2244 17.6255 52.8161ZM22.3007 57.4912C21.8942 57.0812 21.666 56.5272 21.6658 55.9498C21.6657 55.3724 21.8935 54.8183 22.2998 54.408L22.3007 54.407L26.2568 50.4511C26.6668 50.0472 27.2199 49.8218 27.7954 49.8239C28.371 49.8261 28.9223 50.0557 29.3293 50.4627C29.7362 50.8696 29.9658 51.421 29.968 51.9965C29.9702 52.572 29.7447 53.1251 29.3408 53.5351L25.3848 57.4912C24.9755 57.8995 24.4209 58.1288 23.8428 58.1288C23.2646 58.1288 22.71 57.8995 22.3007 57.4912ZM26.9758 62.1663C26.5674 61.757 26.338 61.2024 26.338 60.6242C26.338 60.046 26.5674 59.4914 26.9758 59.0821L30.9317 55.1262C31.3407 54.7172 31.8954 54.4874 32.4738 54.4874C33.0522 54.4874 33.6069 54.7172 34.0159 55.1262C34.4249 55.5351 34.6547 56.0899 34.6547 56.6683C34.6547 57.2467 34.4249 57.8014 34.0159 58.2104C33.9782 58.2486 33.9433 58.2896 33.9114 58.3328C33.7934 58.425 33.6809 58.5242 33.5748 58.6298L30.4793 61.725C30.3735 61.8314 30.2741 61.9441 30.1818 62.0625C30.1387 62.0942 30.098 62.129 30.0599 62.1665C29.6505 62.5749 29.096 62.8042 28.5178 62.8041C27.9396 62.8041 27.3851 62.5747 26.9758 62.1663ZM32.0707 65.3831C31.7967 65.1088 31.6429 64.7371 31.6429 64.3495C31.6429 63.9619 31.7967 63.5901 32.0707 63.3159L35.1658 60.2207C35.4399 59.9466 35.8117 59.7926 36.1994 59.7926C36.5871 59.7926 36.9589 59.9466 37.233 60.2207C37.5071 60.4949 37.6611 60.8666 37.6611 61.2543C37.6611 61.642 37.5071 62.0138 37.233 62.2879L34.1378 65.3831C33.8628 65.6554 33.4913 65.8082 33.1043 65.8082C32.7172 65.8082 32.3457 65.6554 32.0707 65.3831ZM38.2876 66.4565C38.0155 66.7277 37.6476 66.8811 37.2635 66.8833C36.8793 66.8856 36.5096 66.7366 36.2344 66.4686L38.3001 64.4029C38.5682 64.6782 38.7172 65.048 38.7149 65.4323C38.7125 65.8165 38.559 66.1845 38.2876 66.4565ZM43.3828 63.2398C42.9735 63.6481 42.419 63.8774 41.8409 63.8774C41.2627 63.8774 40.7082 63.6481 40.2989 63.2398C40.2606 63.2021 40.2196 63.1671 40.1763 63.1353C40.0841 63.0172 39.985 62.9048 39.8793 62.7987L39.664 62.5834C39.8618 62.0695 39.9427 61.5179 39.9006 60.9688C39.8585 60.4198 39.6946 59.887 39.4208 59.4092C39.147 58.9314 38.7701 58.5207 38.3176 58.2068C37.8651 57.893 37.3484 57.6839 36.8049 57.5948C36.9279 57.0163 36.9348 56.4192 36.8251 55.838C37.2392 55.6078 37.717 55.5186 38.1863 55.5838C38.6556 55.6491 39.091 55.8652 39.4266 56.1997L43.3828 60.1558C43.7912 60.565 44.0206 61.1196 44.0206 61.6978C44.0206 62.276 43.7912 62.8305 43.3828 63.2398ZM48.058 58.5647C47.6478 58.9713 47.0936 59.1994 46.5161 59.1994C45.9385 59.1994 45.3844 58.9713 44.9741 58.5647L41.0179 54.6087C40.621 54.1975 40.4014 53.6469 40.4063 53.0754C40.4112 52.5039 40.6402 51.9571 41.0442 51.5528C41.4481 51.1485 41.9946 50.9188 42.5661 50.9134C43.1376 50.9079 43.6884 51.127 44.1 51.5235V51.5243L48.0561 55.4803C48.4647 55.8894 48.6944 56.444 48.6946 57.0222C48.6949 57.6005 48.4657 58.1553 48.0573 58.5647H48.058ZM52.733 53.8896C52.3237 54.298 51.7692 54.5273 51.1911 54.5273C50.613 54.5273 50.0584 54.298 49.6492 53.8896L45.693 49.9336C45.2891 49.5236 45.0637 48.9705 45.0659 48.395C45.068 47.8194 45.2976 47.2681 45.7046 46.8611C46.1116 46.4542 46.6629 46.2246 47.2384 46.2224C47.814 46.2202 48.367 46.4457 48.7771 46.8495L52.7326 50.8063C53.1392 51.2165 53.3673 51.7707 53.3673 52.3483C53.3673 52.9259 53.1392 53.4801 52.7326 53.8903L52.733 53.8896ZM60.0661 26.2692L69.339 42.3301L63.3593 45.7825L54.0856 29.7214L60.0661 26.2692ZM38.5401 31.3016C38.7357 31.1992 38.9505 31.1386 39.1708 31.1236C39.3911 31.1085 39.6121 31.1395 39.8198 31.2144L48.583 34.1355C49.687 34.5141 50.8893 34.4898 51.9771 34.067L53.6344 33.4391L59.8906 44.275L53.2195 48.1107L50.3675 45.2585C50.0655 44.9564 49.7211 44.6998 49.3453 44.4966L40.377 37.7732C39.807 37.3466 39.1266 37.0928 38.4165 37.0419L37.0987 36.9256C36.3608 36.8547 35.618 36.9961 34.9578 37.3333C34.2976 37.6704 33.7474 38.1891 33.3721 38.8284L31.6252 41.7013C31.5994 41.7498 31.5588 41.7888 31.5093 41.8127C31.4598 41.8366 31.404 41.844 31.35 41.834L28.6921 41.4993C28.652 41.4942 28.6134 41.4806 28.579 41.4592C28.5447 41.4379 28.5153 41.4094 28.493 41.3756C28.4706 41.3419 28.4558 41.3037 28.4496 41.2637C28.4433 41.2238 28.4458 41.1829 28.4567 41.144L29.8489 36.208C29.9081 35.9781 30.0175 35.7641 30.1694 35.5816C30.3212 35.3991 30.5117 35.2525 30.727 35.1525L38.5401 31.3016ZM26.5968 32.8485C27.1858 32.842 27.7645 32.6941 28.2843 32.4172L31.0572 30.9969C31.2984 30.8671 31.5684 30.7999 31.8423 30.8015C32.1162 30.8032 32.3854 30.8736 32.625 31.0063L33.3128 31.3693L29.7316 33.1345C29.233 33.3733 28.7918 33.717 28.4382 34.1421C28.0846 34.5671 27.8269 35.0635 27.6829 35.5973L26.2907 40.5332C26.1918 40.8838 26.1697 41.2517 26.226 41.6116C26.2823 41.9716 26.4156 42.3151 26.6169 42.6188C26.8181 42.9225 27.0826 43.1791 27.3921 43.3712C27.7017 43.5633 28.049 43.6863 28.4105 43.7319L31.0683 44.0664C31.5531 44.1315 32.0463 44.0529 32.4869 43.8405C32.9275 43.628 33.2961 43.291 33.5471 42.8711L35.2942 39.9984C35.4529 39.7194 35.6891 39.4925 35.9742 39.345C36.2593 39.1975 36.581 39.1359 36.9004 39.1676L38.2181 39.2839C38.5105 39.2981 38.7921 39.3991 39.0268 39.5742L45.4063 44.3567C44.6301 44.7073 43.9719 45.2748 43.5107 45.9908C43.0496 46.7069 42.8052 47.5409 42.8071 48.3926C42.8071 48.4778 42.8102 48.5626 42.8148 48.6471C42.2126 48.6112 41.6094 48.699 41.0424 48.905C40.4754 49.111 39.9565 49.431 39.5178 49.8451C39.0791 50.2592 38.7298 50.7588 38.4915 51.313C38.2532 51.8672 38.1308 52.4644 38.132 53.0677C38.132 53.153 38.1351 53.2377 38.1398 53.3222C37.3479 53.2761 36.5582 53.4429 35.8526 53.8053C35.7744 53.7133 35.6932 53.6225 35.6064 53.5363C35.1646 53.0943 34.6341 52.751 34.0499 52.5291C33.4657 52.3071 32.8411 52.2116 32.2173 52.2487C32.2221 52.1643 32.2251 52.0799 32.2251 51.9942C32.2264 51.3909 32.1043 50.7938 31.8662 50.2395C31.6281 49.6853 31.2791 49.1856 30.8406 48.7713C30.4021 48.357 29.8834 48.0369 29.3165 47.8306C28.7497 47.6244 28.1466 47.5363 27.5444 47.5719C27.58 46.9698 27.4921 46.3668 27.2859 45.8C27.0798 45.2332 26.7598 44.7145 26.3457 44.276C25.9316 43.8375 25.4321 43.4883 24.878 43.2501C24.324 43.0119 23.727 42.8895 23.1238 42.8907C22.542 42.8884 21.9655 43.0016 21.4277 43.2237C20.8899 43.4458 20.4015 43.7723 19.9907 44.1844L16.0418 48.1344L11.438 45.4385L18.654 32.9398L26.5968 32.8485ZM11.9346 26.2692L17.9142 29.7214L8.64127 45.7825L2.66175 42.3301L11.9346 26.2692ZM36 27.236C38.6075 27.236 41.1565 26.4628 43.3245 25.0142C45.4926 23.5656 47.1824 21.5066 48.1803 19.0976C49.1782 16.6886 49.4393 14.0377 48.9306 11.4803C48.4219 8.92293 47.1663 6.5738 45.3225 4.73001C43.4787 2.88622 41.1296 1.63058 38.5722 1.12187C36.0148 0.61316 33.364 0.874233 30.955 1.87207C28.546 2.86992 26.4869 4.55971 25.0383 6.72777C23.5896 8.89582 22.8164 11.4448 22.8164 14.0523C22.8204 17.5476 24.2106 20.8986 26.6822 23.3701C29.1537 25.8417 32.5047 27.232 36 27.236ZM36 3.11882C38.1625 3.11879 40.2764 3.76002 42.0745 4.96143C43.8726 6.16283 45.274 7.87044 46.1016 9.86833C46.9291 11.8662 47.1457 14.0646 46.7238 16.1856C46.3019 18.3065 45.2606 20.2548 43.7315 21.7839C42.2023 23.313 40.2541 24.3543 38.1332 24.7762C36.0122 25.1981 33.8138 24.9815 31.8159 24.154C29.818 23.3264 28.1104 21.925 26.909 20.1269C25.7076 18.3289 25.0664 16.2149 25.0664 14.0524C25.0697 11.1536 26.2227 8.37452 28.2724 6.32476C30.3221 4.275 33.1012 3.12213 36 3.11882ZM30.9954 14.1053C30.82 13.8639 30.7477 13.5628 30.7943 13.2681C30.8409 12.9733 31.0027 12.7092 31.2441 12.5338C31.4854 12.3584 31.7866 12.286 32.0813 12.3327C32.376 12.3793 32.6401 12.5411 32.8156 12.7824L34.5375 15.1522L40.2698 10.4565C40.5009 10.2697 40.7964 10.1819 41.092 10.2122C41.3875 10.2425 41.6591 10.3886 41.8474 10.6184C42.0357 10.8483 42.1254 11.1432 42.097 11.439C42.0685 11.7348 41.9242 12.0072 41.6956 12.197L35.0411 17.6482C34.9226 17.7453 34.7855 17.8171 34.6382 17.8594C34.4909 17.9016 34.3365 17.9133 34.1846 17.8937C34.0326 17.8742 33.8862 17.8238 33.7545 17.7457C33.6227 17.6675 33.5082 17.5633 33.4181 17.4394L30.9954 14.1053Z" fill="white"/>
</svg>
