<svg width="36" height="38" viewBox="0 0 36 38" fill="none" xmlns="http://www.w3.org/2000/svg">
<path d="M3 8.15108C3 7.28691 3.672 6.58838 4.5 6.58838H24C24.828 6.58838 25.5 7.28691 25.5 8.15108C25.5 9.01526 24.828 9.71379 24 9.71379H4.5C3.672 9.71379 3 9.01526 3 8.15108ZM31.5 17.5273H4.5C3.672 17.5273 3 18.2258 3 19.09C3 19.9542 3.672 20.6527 4.5 20.6527H31.5C32.328 20.6527 33 19.9542 33 19.09C33 18.2258 32.328 17.5273 31.5 17.5273ZM18 28.4663H4.5C3.672 28.4663 3 29.1648 3 30.029C3 30.8931 3.672 31.5917 4.5 31.5917H18C18.828 31.5917 19.5 30.8931 19.5 30.029C19.5 29.1648 18.828 28.4663 18 28.4663Z" fill="#EE903B"/>
</svg>
