<svg width="26" height="26" viewBox="0 0 26 26" fill="none" xmlns="http://www.w3.org/2000/svg">
<path d="M16.75 0.8125H9.25C4.5975 0.8125 0.8125 4.5975 0.8125 9.25V16.75C0.8125 21.4025 4.5975 25.1875 9.25 25.1875H16.75C21.4025 25.1875 25.1875 21.4025 25.1875 16.75V9.25C25.1875 4.5975 21.4025 0.8125 16.75 0.8125ZM23.3125 16.75C23.3125 20.3688 20.3688 23.3125 16.75 23.3125H9.25C5.63125 23.3125 2.6875 20.3688 2.6875 16.75V9.25C2.6875 5.63125 5.63125 2.6875 9.25 2.6875H16.75C20.3688 2.6875 23.3125 5.63125 23.3125 9.25V16.75ZM18.9375 13C18.9375 13.5175 18.5175 13.9375 18 13.9375H8C7.4825 13.9375 7.0625 13.5175 7.0625 13C7.0625 12.4825 7.4825 12.0625 8 12.0625H18C18.5175 12.0625 18.9375 12.4825 18.9375 13Z" fill="#41416E"/>
</svg>
