<svg id="Layer_1" data-name="Layer 1" xmlns="http://www.w3.org/2000/svg" viewBox="0 0 32 32"><defs><style>.cls-1{fill:none;stroke:#ee903a;stroke-miterlimit:10;}.cls-2{fill:#ee903a;}</style></defs><path class="cls-1" d="M.74,16A15.26,15.26,0,1,1,16,31.26,15.3,15.3,0,0,1,.74,16Zm26,8.07A13.45,13.45,0,1,0,5.17,8,13.3,13.3,0,0,0,2.78,18.54c.34,1.9,1.78,5,2.49,5.5a7.05,7.05,0,0,1,6.42-6.7,1.68,1.68,0,0,0,.59,1.12,3.72,3.72,0,0,0,.85.57,6.85,6.85,0,0,0,5.64,0,2.24,2.24,0,0,0,1.55-1.75A7.1,7.1,0,0,1,26.74,24.08Z"/><path class="cls-2" d="M26,24.13a6.35,6.35,0,0,0-5.13-6,3.16,3.16,0,0,1-1.8,1.62,7.55,7.55,0,0,1-6.24-.06,4.29,4.29,0,0,1-1-.67,2.38,2.38,0,0,1-.66-.89A6.31,6.31,0,0,0,6,24.09L4.52,24a7.79,7.79,0,0,1,7.14-7.4l.71,0,.07.71a.87.87,0,0,0,.33.62,3.07,3.07,0,0,0,.66.45,6.13,6.13,0,0,0,5.05.05c.69-.3,1-.64,1.09-1.17l.1-.68.69,0A7.82,7.82,0,0,1,27.49,24Z"/><path class="cls-2" d="M15.93,19.84a5.24,5.24,0,0,1-3.68-1.62,8.21,8.21,0,0,1-2.38-4.73,9.05,9.05,0,0,1-.09-3.24,6.22,6.22,0,0,1,6.63-5,6.13,6.13,0,0,1,5.27,3.39,5.65,5.65,0,0,1,.63,2.26v0A10.1,10.1,0,0,1,20.75,17a5.93,5.93,0,0,1-3.16,2.54A5.17,5.17,0,0,1,15.93,19.84Z"/><path class="cls-2" d="M5.73,24.75s-.06,1.43,0,2.71L3.72,25,2.25,22.83l-1-3-.3-1.47L.74,15.27s.45-6.53,4.37-9.93,8.85-5.52,15-4,10.31,7.2,10.71,11.14S31.58,22,26,27.59a7.7,7.7,0,0,0,.3-3.05s2.73-3.73,3-6.08.67-8.12-3.57-11.82-8.26-5-14.25-3.3S3.11,11.46,2.86,13,2.45,20.79,5.73,24.75Z"/><path class="cls-2" d="M26.52,25.94V27.2A15.57,15.57,0,0,1,16,31.26h0A15.84,15.84,0,0,1,5.65,27.32V26.1A15,15,0,0,0,16,30.36h0A14.69,14.69,0,0,0,26.52,25.94Z"/><path class="cls-2" d="M6,24.09s-.1,1.64-.11,2.26l-.06.33s-.3.14-.36.06S5,26.2,5,25.94s-.27-1.44-.11-1.67.74-.83.74-.83Z"/><path class="cls-2" d="M26,24.13a23.13,23.13,0,0,1,0,2.38c-.06,1.2.78-.51.78-.51L27,24.7c0-.13-.2-1.43-.2-1.43Z"/></svg>