<svg width="36" height="38" viewBox="0 0 36 38" fill="none" xmlns="http://www.w3.org/2000/svg">
<path d="M16.5 23.7794V28.4675C16.5 29.3317 15.828 30.0302 15 30.0302C14.172 30.0302 13.5 29.3317 13.5 28.4675V23.7794C13.5 22.9152 14.172 22.2167 15 22.2167C15.828 22.2167 16.5 22.9152 16.5 23.7794ZM21 22.2167C20.172 22.2167 19.5 22.9152 19.5 23.7794V28.4675C19.5 29.3317 20.172 30.0302 21 30.0302C21.828 30.0302 22.5 29.3317 22.5 28.4675V23.7794C22.5 22.9152 21.828 22.2167 21 22.2167ZM30.6435 20.0617L29.517 29.2582C29.136 32.3696 26.577 34.7168 23.565 34.7168H12.468C9.46652 34.7168 6.90901 32.3791 6.51901 29.2786L5.3595 20.0632C3.9615 19.2662 3 17.7396 3 15.9659C3 13.3812 5.019 11.2778 7.5 11.2778H9.65099L13.7145 4.22214C14.1405 3.48142 15.06 3.2423 15.7725 3.68611C16.4835 4.12991 16.713 5.08953 16.287 5.83025L13.1505 11.2763H22.8525L19.716 5.83025C19.29 5.08953 19.5195 4.12991 20.2305 3.68611C20.9415 3.2423 21.8625 3.48142 22.2885 4.22214L26.352 11.2778H28.5C30.981 11.2778 33 13.3812 33 15.9659C33 17.738 32.04 19.2647 30.6435 20.0617ZM6 15.9659C6 16.8285 6.6735 17.5286 7.5 17.5286H28.5C29.3265 17.5286 30 16.8285 30 15.9659C30 15.1033 29.3265 14.4032 28.5 14.4032H7.5C6.6735 14.4032 6 15.1033 6 15.9659ZM27.546 20.654H8.46002L9.49498 28.8739C9.68848 30.4241 10.968 31.5929 12.468 31.5929H23.565C25.071 31.5929 26.3505 30.4194 26.5395 28.8645L27.546 20.654Z" fill="white"/>
</svg>
