<svg width="34" height="34" viewBox="0 0 34 34" fill="none" xmlns="http://www.w3.org/2000/svg">
<path d="M17 33C8.17135 33 1 25.8441 1 17C1 8.17135 8.15586 1 17 1C25.8287 1 33 8.15586 33 17C32.9845 25.8441 25.8287 33 17 33Z" stroke="#EE903B" stroke-width="1.5" stroke-miterlimit="10"/>
<path d="M20.5795 16.0413L15.9761 13.4626C15.7114 13.3143 15.3985 13.3198 15.1391 13.4772C14.8795 13.6348 14.7246 13.9131 14.7246 14.222V19.3353C14.7246 19.6427 14.8785 19.9206 15.1364 20.0783C15.271 20.1606 15.4203 20.202 15.5699 20.202C15.7069 20.202 15.8443 20.1673 15.9707 20.0976L20.5742 17.5633C20.8475 17.4128 21.0181 17.1219 21.0194 16.804C21.0205 16.4862 20.852 16.194 20.5795 16.0413ZM15.9457 18.692V14.8704L19.3862 16.7978L15.9457 18.692Z" fill="#EE903B"/>
<path d="M27.637 12.7303L27.636 12.7205C27.6184 12.5488 27.4427 11.0215 26.7175 10.2446C25.8792 9.33088 24.9289 9.21988 24.4718 9.16666C24.434 9.16226 24.3993 9.15819 24.3683 9.15396L24.3319 9.15005C21.5772 8.94498 17.417 8.91698 17.3753 8.91682L17.3717 8.91666L17.368 8.91682C17.3264 8.91698 13.1662 8.94498 10.3867 9.15005L10.3499 9.15396C10.3204 9.15803 10.2878 9.16177 10.2523 9.16601C9.80052 9.21939 8.86034 9.33056 8.01969 10.2773C7.32894 11.0459 7.12927 12.5405 7.10876 12.7085L7.10638 12.7303C7.10018 12.8017 6.95312 14.5028 6.95312 16.2104V17.8068C6.95312 19.5145 7.10018 21.2155 7.10638 21.2871L7.10749 21.2978C7.12514 21.4668 7.30064 22.9661 8.02255 23.7433C8.81074 24.6265 9.80736 24.7433 10.3434 24.8061C10.4282 24.8161 10.5011 24.8245 10.5509 24.8335L10.5991 24.8403C12.1896 24.9953 17.1765 25.0716 17.3879 25.0747L17.3943 25.0749L17.4006 25.0747C17.4423 25.0745 21.6023 25.0465 24.357 24.8415L24.3934 24.8376C24.4283 24.8328 24.4674 24.8286 24.5103 24.824C24.9595 24.7752 25.8946 24.6738 26.7237 23.7399C27.4144 22.9712 27.6143 21.4766 27.6346 21.3087L27.637 21.2869C27.6432 21.2153 27.7904 19.5145 27.7904 17.8068V16.2104C27.7903 14.5028 27.6432 12.8019 27.637 12.7303ZM26.5692 17.8068C26.5692 19.3874 26.4344 21.0151 26.4216 21.1645C26.3698 21.5762 26.1592 22.5218 25.8226 22.8963C25.3037 23.4808 24.7707 23.5387 24.3815 23.5809C24.3345 23.5859 24.2909 23.5908 24.2515 23.5959C21.5871 23.7931 17.5839 23.8234 17.3995 23.8245C17.1927 23.8214 12.2788 23.7445 10.7367 23.5978C10.6577 23.5846 10.5723 23.5745 10.4824 23.5641C10.0259 23.5106 9.40118 23.4373 8.92075 22.8963L8.90947 22.8839C8.5788 22.5312 8.3742 21.647 8.32221 21.1694C8.31252 21.0565 8.17421 19.4095 8.17421 17.8068V16.2104C8.17421 14.6317 8.3087 13.0057 8.32174 12.8532C8.38358 12.3683 8.59819 11.48 8.92075 11.1209C9.45555 10.5187 10.0194 10.452 10.3924 10.4079C10.428 10.4036 10.4612 10.3997 10.4919 10.3957C13.1951 10.1974 17.227 10.168 17.3717 10.1668C17.5164 10.1678 21.5468 10.1974 24.226 10.3957C24.2589 10.3999 24.2949 10.4041 24.3335 10.4087C24.7171 10.4534 25.2969 10.5211 25.829 11.1022L25.8339 11.1076C26.1646 11.4603 26.3692 12.36 26.4212 12.8472C26.4304 12.9538 26.5692 14.6043 26.5692 16.2104V17.8068Z" fill="#EE903B"/>
</svg>
