<svg xmlns="http://www.w3.org/2000/svg" xmlns:xlink="http://www.w3.org/1999/xlink" viewBox="0 0 32 32"><defs><style>.cls-1{mask:url(#mask);filter:url(#luminosity-noclip-3);}.cls-2,.cls-4{mix-blend-mode:multiply;}.cls-2{fill:url(#linear-gradient);}.cls-3{mask:url(#mask-2);filter:url(#luminosity-noclip-4);}.cls-4{fill:url(#linear-gradient-2);}.cls-5{isolation:isolate;}.cls-6{fill:url(#linear-gradient-3);}.cls-7{fill:url(#linear-gradient-4);}.cls-8{fill:url(#linear-gradient-5);}.cls-9{fill:url(#linear-gradient-6);}.cls-10{fill:url(#linear-gradient-7);}.cls-11{fill:url(#linear-gradient-8);}.cls-12{mask:url(#mask-3);}.cls-13{mix-blend-mode:soft-light;fill:url(#linear-gradient-9);}.cls-14{fill:url(#linear-gradient-10);}.cls-15{mask:url(#mask-4);}.cls-16{opacity:0.25;fill:url(#linear-gradient-11);}.cls-17{filter:url(#luminosity-noclip-2);}.cls-18{filter:url(#luminosity-noclip);}</style><filter id="luminosity-noclip" x="5.78" y="-8208" width="20.45" height="32766" filterUnits="userSpaceOnUse" color-interpolation-filters="sRGB"><feFlood flood-color="#fff" result="bg"/><feBlend in="SourceGraphic" in2="bg"/></filter><mask id="mask" x="5.78" y="-8208" width="20.45" height="32766" maskUnits="userSpaceOnUse"><g class="cls-18"/></mask><linearGradient id="linear-gradient" x1="749.9" y1="8.13" x2="770.35" y2="8.13" gradientTransform="matrix(-1, 0, 0, 1, 776.13, 0)" gradientUnits="userSpaceOnUse"><stop offset="0" stop-color="#fff"/><stop offset="1"/></linearGradient><filter id="luminosity-noclip-2" x="7.52" y="-8208" width="18.71" height="32766" filterUnits="userSpaceOnUse" color-interpolation-filters="sRGB"><feFlood flood-color="#fff" result="bg"/><feBlend in="SourceGraphic" in2="bg"/></filter><mask id="mask-2" x="7.52" y="-8208" width="18.71" height="32766" maskUnits="userSpaceOnUse"><g class="cls-17"/></mask><linearGradient id="linear-gradient-2" x1="749.9" y1="11.52" x2="768.61" y2="11.52" gradientTransform="matrix(-1, 0, 0, 1, 776.13, 0)" gradientUnits="userSpaceOnUse"><stop offset="0"/><stop offset="1" stop-color="#fff"/></linearGradient><linearGradient id="linear-gradient-3" x1="750.79" y1="18.69" x2="768.24" y2="18.69" gradientTransform="matrix(-1, 0, 0, 1, 776.13, 0)" gradientUnits="userSpaceOnUse"><stop offset="0" stop-color="#542061"/><stop offset="0.49" stop-color="#b11f61"/><stop offset="0.63" stop-color="#9b1f61"/><stop offset="0.93" stop-color="#632061"/><stop offset="1" stop-color="#542061"/></linearGradient><linearGradient id="linear-gradient-4" x1="750.79" y1="18.92" x2="767.45" y2="18.92" gradientTransform="matrix(-1, 0, 0, 1, 776.13, 0)" gradientUnits="userSpaceOnUse"><stop offset="0" stop-color="#542061"/><stop offset="0.49" stop-color="#822167"/><stop offset="0.75" stop-color="#6c2164"/><stop offset="1" stop-color="#542061"/></linearGradient><linearGradient id="linear-gradient-5" x1="750.65" y1="23.02" x2="765.01" y2="23.02" gradientTransform="matrix(-1, 0, 0, 1, 776.13, 0)" gradientUnits="userSpaceOnUse"><stop offset="0" stop-color="#efe354"/><stop offset="0.15" stop-color="#efd24f"/><stop offset="0.45" stop-color="#efa641"/><stop offset="0.86" stop-color="#ef5f2b"/><stop offset="1" stop-color="#ef4523"/></linearGradient><linearGradient id="linear-gradient-6" x1="750.65" y1="23.02" x2="763.53" y2="23.02" gradientTransform="matrix(-1, 0, 0, 1, 776.13, 0)" gradientUnits="userSpaceOnUse"><stop offset="0" stop-color="#efe354"/><stop offset="0.33" stop-color="#efa441"/><stop offset="0.64" stop-color="#ef7131"/><stop offset="0.87" stop-color="#ef5127"/><stop offset="1" stop-color="#ef4523"/></linearGradient><linearGradient id="linear-gradient-7" x1="750.55" y1="23.02" x2="762.31" y2="23.02" gradientTransform="matrix(-1, 0, 0, 1, 776.13, 0)" gradientUnits="userSpaceOnUse"><stop offset="0" stop-color="#efe354"/><stop offset="0.09" stop-color="#efc64b"/><stop offset="0.22" stop-color="#ef9f3f"/><stop offset="0.36" stop-color="#ef7e35"/><stop offset="0.51" stop-color="#ef652d"/><stop offset="0.66" stop-color="#ef5327"/><stop offset="0.82" stop-color="#ef4824"/><stop offset="1" stop-color="#ef4523"/></linearGradient><linearGradient id="linear-gradient-8" x1="749.9" y1="11.52" x2="770.35" y2="11.52" gradientTransform="matrix(-1, 0, 0, 1, 776.13, 0)" gradientUnits="userSpaceOnUse"><stop offset="0" stop-color="#86cfc4"/><stop offset="1" stop-color="#103c5d"/></linearGradient><filter id="luminosity-noclip-3" x="5.78" y="0.85" width="20.45" height="14.55" filterUnits="userSpaceOnUse" color-interpolation-filters="sRGB"><feFlood flood-color="#fff" result="bg"/><feBlend in="SourceGraphic" in2="bg"/></filter><mask id="mask-3" x="5.78" y="0.85" width="20.45" height="14.55" maskUnits="userSpaceOnUse"><g class="cls-1"><path class="cls-2" d="M24.28.94a15.21,15.21,0,0,1-3.71,3.47c-3.31,2.09-9.91,3.8-12.41,5.94A6.53,6.53,0,0,0,5.78,15.4a6.56,6.56,0,0,1,2.38-5.14c2.5-2.14,9.1-3.85,12.41-5.94A14.85,14.85,0,0,0,24.27.85s2,3.62,1.95,6.68A17.22,17.22,0,0,0,24.28.94Z"/></g></mask><linearGradient id="linear-gradient-9" x1="749.9" y1="8.13" x2="770.35" y2="8.13" gradientTransform="matrix(-1, 0, 0, 1, 776.13, 0)" gradientUnits="userSpaceOnUse"><stop offset="0" stop-color="#fff"/><stop offset="1" stop-color="#fff"/></linearGradient><linearGradient id="linear-gradient-10" x1="749.9" y1="11.52" x2="769.89" y2="11.52" gradientTransform="matrix(-1, 0, 0, 1, 776.13, 0)" gradientUnits="userSpaceOnUse"><stop offset="0" stop-color="#86cfc4"/><stop offset="0.14" stop-color="#70b3b0"/><stop offset="0.43" stop-color="#47808d"/><stop offset="0.67" stop-color="#295b73"/><stop offset="0.87" stop-color="#174463"/><stop offset="1" stop-color="#103c5d"/></linearGradient><filter id="luminosity-noclip-4" x="7.52" y="0.85" width="18.71" height="21.34" filterUnits="userSpaceOnUse" color-interpolation-filters="sRGB"><feFlood flood-color="#fff" result="bg"/><feBlend in="SourceGraphic" in2="bg"/></filter><mask id="mask-4" x="7.52" y="0.85" width="18.71" height="21.34" maskUnits="userSpaceOnUse"><g class="cls-3"><path class="cls-4" d="M9.41,22.1c-.45-.65-.75-2.76,1.94-4.91s12.22-4.25,14.16-7.3c1.72-2.71-.65-7.76-1.22-8.9,0-.09,0-.14,0-.14S27.55,6.92,25.61,10s-11.48,5.16-14.16,7.31S9,21.62,9.51,22.19a5.29,5.29,0,0,1-2-1.68A5.8,5.8,0,0,0,9.41,22.1Z"/></g></mask><linearGradient id="linear-gradient-11" x1="749.9" y1="11.52" x2="768.61" y2="11.52" gradientTransform="matrix(-1, 0, 0, 1, 776.13, 0)" gradientUnits="userSpaceOnUse"><stop offset="0" stop-color="#010101"/><stop offset="1" stop-color="#010101"/></linearGradient></defs><g class="cls-5"><g id="Layer_1" data-name="Layer 1"><path class="cls-6" d="M11.17,16.71s1.32.79,4.63.2c2.73-.49,4.67-1.65,5.83-1.9a3.05,3.05,0,0,1,2.55.41,3.17,3.17,0,0,1,.87,3.76c-.83,2.14-12.2,3.39-13.85,3.28a4.4,4.4,0,0,1-1.69-.27L7.88,19.38l2.48-3.59Z"/><path class="cls-7" d="M15.58,19.27c2.71-.57,5-1.46,6.12-1.71s2.14-2.5,2.48-2.14a3.17,3.17,0,0,1,.87,3.76c-.83,2.14-12.2,3.39-13.85,3.28a4.4,4.4,0,0,1-1.69-.27L9,21.88l-.32-3.46S10.06,20.42,15.58,19.27Z"/><path class="cls-8" d="M21.63,15c1.71-.21,1.84,1.49-.41,2.27-3.43,1.2-6.87,2.32-8.52,4.37-1.9,2.38-1.82,4.19-1.17,6a8.07,8.07,0,0,0,3.3,3.5s-.41-2.95,2.92-5.51,6.15-3.78,6.93-5a3.83,3.83,0,0,0,.7-3.18,3,3,0,0,0-1.53-2.27A3.6,3.6,0,0,0,21.63,15Z"/><path class="cls-9" d="M21.63,15c3-.49,2.59,2.13,1.24,3.07C19.74,20.24,16.29,20,14,22.71a5.46,5.46,0,0,0-1,5.75,5.09,5.09,0,0,0,1.85,2.69s-.3-2.95,3-5.51,6-3.78,6.82-5a3.83,3.83,0,0,0,.7-3.18,3,3,0,0,0-1.53-2.27A3.6,3.6,0,0,0,21.63,15Z"/><path class="cls-10" d="M21.63,15c3.55-.72,3.72,2.44,3.14,3.75-1.41,3.18-5.71,3.21-8.88,5.6-1.78,1.35-2.43,2.91-1.9,4.69a6.71,6.71,0,0,0,.84,2.1s-.31-2.85,3-5.41,5.71-3.57,6.83-5.12a3.67,3.67,0,0,0,.79-3.24,3,3,0,0,0-1.59-2.21A3.7,3.7,0,0,0,21.63,15Z"/><path class="cls-11" d="M24.27.85S27.55,6.92,25.61,10s-11.48,5.16-14.16,7.31S9,21.62,9.51,22.19A6.44,6.44,0,0,1,6.36,18.4c-1.11-3-.7-6,1.8-8.14s9.1-3.85,12.41-5.94A14.85,14.85,0,0,0,24.27.85Z"/><g class="cls-12"><path class="cls-13" d="M24.28.94a15.21,15.21,0,0,1-3.71,3.47c-3.31,2.09-9.91,3.8-12.41,5.94A6.53,6.53,0,0,0,5.78,15.4a6.56,6.56,0,0,1,2.38-5.14c2.5-2.14,9.1-3.85,12.41-5.94A14.85,14.85,0,0,0,24.27.85s2,3.62,1.95,6.68A17.22,17.22,0,0,0,24.28.94Z"/></g><path class="cls-14" d="M24.27.85S27.55,6.92,25.61,10s-11.48,5.16-14.16,7.31S9,21.62,9.51,22.19A6.44,6.44,0,0,1,6.36,18.4c-.6-1.6,1.15-4,4-5.74,3.28-2,7.13-2.06,11.3-4.89C25,5.48,24.27.85,24.27.85Z"/><g class="cls-15"><path class="cls-16" d="M9.41,22.1c-.45-.65-.75-2.76,1.94-4.91s12.22-4.25,14.16-7.3c1.72-2.71-.65-7.76-1.22-8.9,0-.09,0-.14,0-.14S27.55,6.92,25.61,10s-11.48,5.16-14.16,7.31S9,21.62,9.51,22.19a5.29,5.29,0,0,1-2-1.68A5.8,5.8,0,0,0,9.41,22.1Z"/></g></g></g></svg>