<svg width="120" height="123" viewBox="0 0 120 123" fill="none" xmlns="http://www.w3.org/2000/svg">
<path d="M112.631 52.9098C112.163 38.9936 106.753 25.9805 97.2548 16.085C87.2992 5.7112 74.0677 0 60 0C31.5872 0 8.37134 23.5604 7.3706 52.9098C3.03473 54.9172 0 59.4383 0 64.693V79.1694C0 86.278 5.55091 92.0629 12.3762 92.0629C16.7924 92.0629 20.384 88.3212 20.384 83.7204V60.14C20.384 55.8202 17.2038 52.2978 13.1607 51.8792C14.6532 26.3094 35.085 5.98031 60 5.98031C72.5369 5.98031 84.3257 11.0715 93.1983 20.3151C101.346 28.8032 106.114 39.8667 106.832 51.8812C102.792 52.3038 99.618 55.8242 99.618 60.14V83.7184C99.618 88.074 102.848 91.6184 106.939 91.9872V97.9455C106.939 104.655 101.698 110.113 95.2572 110.113H86.6065C86.1817 108.85 85.5158 107.681 84.5821 106.713C82.9461 105 80.7647 104.057 78.4418 104.057H69.5251C68.245 104.057 67.0166 104.34 65.8915 104.887C62.8223 106.356 60.84 109.581 60.84 113.104C60.84 115.524 61.7451 117.796 63.3849 119.497C65.0247 121.209 67.206 122.152 69.5251 122.152H78.4418C82.1386 122.152 85.3972 119.662 86.6122 116.094H95.2572C104.865 116.094 112.679 107.953 112.679 97.9455V90.9227C116.988 88.9033 120 84.3981 120 79.1654V64.689C120 59.4383 116.965 54.9172 112.631 52.9098ZM14.6417 60.14V83.7184C14.6417 85.0201 13.6257 86.0806 12.3743 86.0806C8.71576 86.0806 5.73843 82.9788 5.73843 79.1674V64.691C5.73843 60.8776 8.71576 57.7778 12.3743 57.7778C13.6257 57.7778 14.6417 58.8383 14.6417 60.14ZM81.3216 113.746C81.0365 115.153 79.8233 116.176 78.4399 116.176H69.5232C68.7387 116.176 68.002 115.857 67.4395 115.271C66.8846 114.694 66.5784 113.925 66.5784 113.108C66.5784 111.914 67.2501 110.823 68.3025 110.319C68.6775 110.135 69.0889 110.042 69.5232 110.042H78.4399C79.2244 110.042 79.9611 110.359 80.5217 110.945C81.0766 111.521 81.3828 112.29 81.3828 113.108C81.3847 113.327 81.3617 113.546 81.3216 113.746ZM114.26 79.1674C114.26 82.9788 111.282 86.0806 107.624 86.0806C106.374 86.0806 105.356 85.0221 105.356 83.7184V60.14C105.356 58.8383 106.372 57.7778 107.624 57.7778C111.282 57.7778 114.26 60.8796 114.26 64.691V79.1674Z" fill="white"/>
<path d="M78.5853 80.1981C85.292 80.1981 90.7472 74.5128 90.7472 67.5278V41.7108C90.7472 38.3339 89.4805 35.1524 87.1805 32.7563C84.8806 30.3602 81.8286 29.0405 78.5853 29.0405H41.4147C34.708 29.0405 29.2528 34.7238 29.2528 41.7108V67.5278C29.2528 74.5148 34.708 80.1981 41.4147 80.1981H41.6424V86.8881C41.6424 89.4397 43.1023 91.7042 45.3602 92.6591C46.0892 92.9641 46.847 93.1156 47.597 93.1156C49.1603 93.1156 50.6834 92.4697 51.799 91.2677L62.4817 80.1981H78.5853ZM59.2767 75.0869L47.7157 87.0655C47.664 87.1213 47.6257 87.1632 47.5167 87.1133C47.3846 87.0575 47.3846 86.9678 47.3846 86.8881V77.208C47.3846 75.5574 46.1007 74.2178 44.5145 74.2178H41.4166C37.8748 74.2178 34.995 71.2157 34.995 67.5278V41.7108C34.995 38.021 37.8748 35.0208 41.4166 35.0208H78.5872C80.2979 35.0208 81.9071 35.7185 83.124 36.9844C84.341 38.2522 85.0088 39.9307 85.0088 41.7108V67.5278C85.0088 71.2177 82.1271 74.2178 78.5872 74.2178H61.3011C60.5415 74.2178 59.8144 74.5308 59.2767 75.0869Z" fill="white"/>
<path d="M46.0567 50.6851C43.7223 50.6851 41.8222 52.6665 41.8222 55.0965C41.8222 57.5265 43.7242 59.508 46.0567 59.508C48.393 59.508 50.295 57.5265 50.295 55.0965C50.295 52.6665 48.3949 50.6851 46.0567 50.6851Z" fill="white"/>
<path d="M59.9981 50.6851C57.6637 50.6851 55.7636 52.6665 55.7636 55.0965C55.7636 57.5265 57.6656 59.508 59.9981 59.508C62.3363 59.508 64.2364 57.5265 64.2364 55.0965C64.2364 52.6665 62.3363 50.6851 59.9981 50.6851Z" fill="white"/>
<path d="M73.9395 50.6851C71.6051 50.6851 69.705 52.6665 69.705 55.0965C69.705 57.5265 71.607 59.508 73.9395 59.508C76.2758 59.508 78.1778 57.5265 78.1778 55.0965C78.1778 52.6665 76.2758 50.6851 73.9395 50.6851Z" fill="white"/>
</svg>
