<svg width="120" height="120" viewBox="0 0 120 120" fill="none" xmlns="http://www.w3.org/2000/svg">
<path d="M85.6015 16.875H65.1316V15C65.1316 13.9636 64.2993 13.125 63.2707 13.125H57.5026C56.6376 8.85132 52.8758 5.625 48.3835 5.625C43.8911 5.625 40.1293 8.85132 39.2643 13.125H33.4962C32.4676 13.125 31.6353 13.9636 31.6353 15V16.875H11.1654C10.1368 16.875 9.3045 17.7136 9.3045 18.75V90C9.3045 91.0364 10.1368 91.875 11.1654 91.875C12.194 91.875 13.0263 91.0364 13.0263 90V20.625H31.6353V22.5C31.6353 23.5364 32.4676 24.375 33.4962 24.375H63.2707C64.2993 24.375 65.1316 23.5364 65.1316 22.5V20.625H83.7406V67.5C83.7406 68.5364 84.5729 69.375 85.6015 69.375C86.6301 69.375 87.4624 68.5364 87.4624 67.5V18.75C87.4624 17.7136 86.6301 16.875 85.6015 16.875ZM61.4098 20.625H35.3571V16.875H40.9398C41.9684 16.875 42.8007 16.0364 42.8007 15C42.8007 11.8982 45.305 9.375 48.3835 9.375C51.4619 9.375 53.9662 11.8982 53.9662 15C53.9662 16.0364 54.7985 16.875 55.8271 16.875H61.4098V20.625Z" fill="white"/>
<path d="M9.3045 112.5C9.3045 113.536 10.1368 114.375 11.1654 114.375H52.1053C53.1338 114.375 53.9662 113.536 53.9662 112.5C53.9662 111.464 53.1338 110.625 52.1053 110.625H13.0263V105C13.0263 103.964 12.194 103.125 11.1654 103.125C10.1368 103.125 9.3045 103.964 9.3045 105V112.5Z" fill="white"/>
<path d="M106.071 82.9431L109.597 75.8386C109.884 75.2563 109.855 74.5679 109.517 74.0149C109.175 73.4619 108.576 73.125 107.932 73.125H85.6015C84.8964 73.125 84.2531 73.5278 83.9369 74.1614L81.8797 78.3069L79.8225 74.1614C79.5063 73.5278 78.863 73.125 78.1579 73.125H55.8271C55.1837 73.125 54.584 73.4619 54.2424 74.0149C53.9044 74.5679 53.8753 75.2563 54.1624 75.8386L57.688 82.9431V112.5C57.688 113.536 58.5203 114.375 59.5489 114.375H104.211C105.239 114.375 106.071 113.536 106.071 112.5V82.9431ZM86.75 76.875H104.923L103.062 80.625H84.8891L86.75 76.875ZM77.0094 76.875L78.8703 80.625H60.6974L58.8365 76.875H77.0094ZM61.4098 84.375H80.0188V110.625H61.4098V84.375ZM102.35 110.625H83.7406V84.375H102.35V110.625Z" fill="white"/>
<path d="M93.0451 106.875H96.7669C97.7955 106.875 98.6278 106.036 98.6278 105C98.6278 103.964 97.7955 103.125 96.7669 103.125H93.0451C92.0165 103.125 91.1842 103.964 91.1842 105C91.1842 106.036 92.0165 106.875 93.0451 106.875Z" fill="white"/>
<path d="M24.7369 46.3257C25.1004 46.6919 25.5765 46.875 26.0526 46.875C26.5287 46.875 27.0049 46.6919 27.3683 46.3257L34.8119 38.8257C35.5389 38.0933 35.5389 36.9067 34.8119 36.1743C34.085 35.4419 32.9074 35.4419 32.1805 36.1743L26.0526 42.3486L23.6465 39.9243C22.9196 39.1919 21.742 39.1919 21.0151 39.9243C20.2882 40.6567 20.2882 41.8433 21.0151 42.5757L24.7369 46.3257Z" fill="white"/>
<path d="M40.9399 43.125H74.4361C75.4647 43.125 76.297 42.2864 76.297 41.25C76.297 40.2136 75.4647 39.375 74.4361 39.375H40.9399C39.9113 39.375 39.0789 40.2136 39.0789 41.25C39.0789 42.2864 39.9113 43.125 40.9399 43.125Z" fill="white"/>
<path d="M21.0151 61.3257L24.7369 65.0757C25.1004 65.4419 25.5765 65.625 26.0526 65.625C26.5287 65.625 27.0049 65.4419 27.3683 65.0757L34.8119 57.5757C35.5389 56.8433 35.5389 55.6567 34.8119 54.9243C34.085 54.1919 32.9074 54.1919 32.1805 54.9243L26.0526 61.0986L23.6465 58.6743C22.9196 57.9419 21.742 57.9419 21.0151 58.6743C20.2882 59.4067 20.2882 60.5933 21.0151 61.3257Z" fill="white"/>
<path d="M76.297 60C76.297 58.9636 75.4647 58.125 74.4361 58.125H40.9399C39.9113 58.125 39.0789 58.9636 39.0789 60C39.0789 61.0364 39.9113 61.875 40.9399 61.875H74.4361C75.4647 61.875 76.297 61.0364 76.297 60Z" fill="white"/>
<path d="M11.1654 99.375C12.1932 99.375 13.0263 98.5355 13.0263 97.5C13.0263 96.4645 12.1932 95.625 11.1654 95.625C10.1377 95.625 9.3045 96.4645 9.3045 97.5C9.3045 98.5355 10.1377 99.375 11.1654 99.375Z" fill="white"/>
</svg>
